<svg width="100" height="36" viewBox="0 0 100 36" fill="none" xmlns="http://www.w3.org/2000/svg">
<g clip-path="url(#clip0_955_2961)">
<path fill-rule="evenodd" clip-rule="evenodd" d="M25.8845 12.6185C25.7506 12.6185 25.6311 12.6052 25.5262 12.5788C25.4213 12.5524 25.3309 12.4951 25.255 12.4069V12.4797C25.255 12.7308 25.216 12.9512 25.1378 13.1406C25.0597 13.3301 24.9481 13.4877 24.803 13.6133C24.6579 13.7389 24.4849 13.8325 24.284 13.8942C24.0831 13.9559 23.8599 13.9867 23.6143 13.9867C23.3777 13.9867 23.1601 13.9559 22.9614 13.8942C22.7627 13.8325 22.5897 13.7389 22.4424 13.6133C22.2951 13.4877 22.1801 13.3301 22.0975 13.1406C22.0149 12.9512 21.9736 12.7286 21.9736 12.473C21.9736 12.2351 22.0116 11.9971 22.0875 11.7592C22.1634 11.5212 22.2571 11.3163 22.3687 11.1444C22.391 11.1048 22.4245 11.1004 22.4692 11.1312L23.0116 11.3427C23.0339 11.3515 23.0462 11.3637 23.0484 11.3791C23.0507 11.3945 23.0473 11.411 23.0384 11.4287C22.967 11.552 22.8989 11.6964 22.8341 11.8616C22.7694 12.0269 22.737 12.2086 22.737 12.4069C22.737 12.5788 22.7649 12.7231 22.8208 12.8399C22.8766 12.9567 22.948 13.0503 23.035 13.1208C23.1221 13.1913 23.2192 13.2409 23.3264 13.2695C23.4335 13.2982 23.5384 13.3125 23.6411 13.3125C23.8956 13.3125 24.1021 13.2453 24.2605 13.1109C24.419 12.9765 24.4983 12.7595 24.4983 12.4598V10.4967C24.4983 10.4526 24.5206 10.4306 24.5653 10.4306H25.188C25.2327 10.4306 25.255 10.4526 25.255 10.4967V11.5543C25.255 11.6865 25.3052 11.7878 25.4057 11.8583C25.5061 11.9288 25.6412 11.9641 25.8108 11.9641H26.8287C26.6636 11.8495 26.5307 11.703 26.4303 11.5245C26.3298 11.346 26.2796 11.1488 26.2796 10.9329C26.2796 10.576 26.4002 10.2906 26.6412 10.0769C26.8823 9.8632 27.2305 9.75634 27.6859 9.75634C28.1413 9.75634 28.4895 9.8632 28.7306 10.0769C28.9717 10.2906 29.0922 10.576 29.0922 10.9329C29.0922 11.1488 29.042 11.346 28.9416 11.5245C28.8411 11.703 28.7061 11.8495 28.5364 11.9641H29.8155C29.9271 11.9641 30.0086 11.9387 30.0599 11.8881C30.1113 11.8374 30.1369 11.7459 30.1369 11.6137V8.18977C30.1369 8.1457 30.1592 8.12367 30.2039 8.12367H30.8267C30.8713 8.12367 30.8937 8.1457 30.8937 8.18977V11.5543C30.8937 11.6865 30.9439 11.7878 31.0443 11.8583C31.1448 11.9288 31.2798 11.9641 31.4495 11.9641H31.8915C32.0031 11.9641 32.0846 11.9387 32.1359 11.8881C32.1872 11.8374 32.2129 11.7459 32.2129 11.6137V8.18977C32.2129 8.1457 32.2352 8.12367 32.2799 8.12367H32.9027C32.9473 8.12367 32.9696 8.1457 32.9696 8.18977V11.7856C32.9696 12.072 32.9094 12.2825 32.7888 12.4169C32.6683 12.5513 32.4674 12.6185 32.1861 12.6185H31.5633C31.3892 12.6185 31.2374 12.5975 31.1079 12.5557C30.9785 12.5138 30.8758 12.4224 30.7999 12.2814C30.7374 12.4047 30.647 12.4918 30.5287 12.5424C30.4104 12.5931 30.2508 12.6185 30.0499 12.6185H28.5565C28.3958 12.6185 28.244 12.6118 28.1011 12.5986C27.9583 12.5854 27.8221 12.5391 27.6926 12.4598C27.5453 12.5391 27.3879 12.5854 27.2205 12.5986C27.0531 12.6118 26.9046 12.6185 26.7752 12.6185H25.8845ZM27.6859 10.3446C27.5118 10.3446 27.3611 10.3986 27.2339 10.5066C27.1067 10.6145 27.043 10.7743 27.043 10.9858C27.043 11.2105 27.1055 11.3923 27.2305 11.5311C27.3556 11.6699 27.5073 11.7768 27.6859 11.8517C27.86 11.7768 28.0096 11.6699 28.1346 11.5311C28.2596 11.3923 28.3221 11.2105 28.3221 10.9858C28.3221 10.7743 28.2596 10.6145 28.1346 10.5066C28.0096 10.3986 27.86 10.3446 27.6859 10.3446ZM44.9707 12.6185C44.8189 12.6185 44.6883 12.6052 44.579 12.5788C44.4696 12.5524 44.3769 12.4929 44.301 12.4003V12.5259C44.301 12.7639 44.281 12.9721 44.2408 13.1506C44.2006 13.329 44.1348 13.4778 44.0432 13.5967C43.9517 13.7157 43.83 13.805 43.6783 13.8644C43.5265 13.9239 43.339 13.9537 43.1157 13.9537H42.868C42.8233 13.9537 42.801 13.9316 42.801 13.8876V13.3588C42.801 13.3147 42.8233 13.2927 42.868 13.2927H43.0153C43.1447 13.2927 43.2452 13.2706 43.3166 13.2266C43.3881 13.1825 43.4405 13.1175 43.474 13.0316C43.5075 12.9457 43.5276 12.8421 43.5343 12.7209C43.541 12.5997 43.5443 12.4598 43.5443 12.3012V9.94142C43.5443 9.89735 43.5666 9.87532 43.6113 9.87532H44.2341C44.2787 9.87532 44.301 9.89735 44.301 9.94142V11.5543C44.301 11.6865 44.3513 11.7878 44.4517 11.8583C44.5522 11.9288 44.6872 11.9641 44.8569 11.9641H45.2989C45.4105 11.9641 45.492 11.9387 45.5433 11.8881C45.5946 11.8374 45.6203 11.7459 45.6203 11.6137V9.94142C45.6203 9.89735 45.6426 9.87532 45.6873 9.87532H46.3101C46.3547 9.87532 46.377 9.89735 46.377 9.94142V11.7856C46.377 12.072 46.3168 12.2825 46.1962 12.4169C46.0757 12.5513 45.8748 12.6185 45.5935 12.6185H44.9707ZM57.574 12.6185C57.4222 12.6185 57.2916 12.6052 57.1822 12.5788C57.0728 12.5524 56.9802 12.4929 56.9043 12.4003V12.5259C56.9043 12.7639 56.8842 12.9721 56.844 13.1506C56.8038 13.329 56.738 13.4778 56.6465 13.5967C56.5549 13.7157 56.4333 13.805 56.2815 13.8644C56.1297 13.9239 55.9422 13.9537 55.719 13.9537H55.4712C55.4265 13.9537 55.4042 13.9316 55.4042 13.8876V13.3588C55.4042 13.3147 55.4265 13.2927 55.4712 13.2927H55.6185C55.748 13.2927 55.8484 13.2706 55.9199 13.2266C55.9913 13.1825 56.0438 13.1175 56.0772 13.0316C56.1107 12.9457 56.1308 12.8421 56.1375 12.7209C56.1442 12.5997 56.1475 12.4598 56.1475 12.3012V9.94142C56.1475 9.89735 56.1699 9.87532 56.2145 9.87532H56.8373C56.882 9.87532 56.9043 9.89735 56.9043 9.94142V11.5543C56.9043 11.6865 56.9545 11.7878 57.055 11.8583C57.1554 11.9288 57.2905 11.9641 57.4601 11.9641H58.3575C58.4289 11.9641 58.5093 11.9608 58.5985 11.9542C58.6878 11.9475 58.7928 11.931 58.9133 11.9046C58.8776 11.7592 58.8296 11.6336 58.7693 11.5278C58.709 11.4221 58.641 11.3284 58.5651 11.2469C58.4892 11.1654 58.4077 11.0927 58.3206 11.0288C58.2336 10.9649 58.1454 10.9021 58.0561 10.8404C58.007 10.8051 57.9791 10.7732 57.9724 10.7445C57.9657 10.7159 57.9624 10.6839 57.9624 10.6487V10.2323C57.9624 10.1838 58.0048 10.1309 58.0896 10.0736C58.1744 10.0163 58.286 9.96455 58.4244 9.91828C58.5628 9.87201 58.7213 9.83345 58.8999 9.80261C59.0785 9.77176 59.2615 9.75634 59.449 9.75634C59.9624 9.75634 60.3375 9.85108 60.5741 10.0406C60.8107 10.2301 60.929 10.479 60.929 10.7875C60.929 10.9197 60.9078 11.0442 60.8654 11.161C60.823 11.2777 60.7683 11.3857 60.7013 11.4848C60.6344 11.584 60.5585 11.6732 60.4736 11.7526C60.3888 11.8319 60.3062 11.898 60.2259 11.9509C60.2616 11.9597 60.3006 11.9641 60.343 11.9641H61.5786C61.6277 11.9641 61.6768 11.9542 61.7259 11.9343C61.775 11.9145 61.8197 11.8814 61.8599 11.8352C61.9 11.7889 61.9335 11.7272 61.9603 11.6501C61.9871 11.573 62.0005 11.4771 62.0005 11.3626C61.996 11.3273 61.9938 11.2943 61.9938 11.2634V11.1643C61.9983 10.9087 62.0351 10.6917 62.1043 10.5132C62.1735 10.3347 62.2695 10.1893 62.3922 10.0769C62.515 9.96455 62.659 9.88303 62.8242 9.83235C62.9894 9.78168 63.1702 9.75634 63.3666 9.75634C63.5631 9.75634 63.7461 9.78278 63.9157 9.83566C64.0854 9.88854 64.2316 9.97226 64.3544 10.0868C64.4772 10.2014 64.5731 10.3534 64.6423 10.5429C64.7115 10.7324 64.7461 10.9616 64.7461 11.2304C64.7461 11.4904 64.7127 11.7107 64.6457 11.8914C64.5787 12.072 64.485 12.2197 64.3644 12.3342C64.2439 12.4488 64.0988 12.5325 63.9291 12.5854C63.7595 12.6383 63.572 12.6647 63.3666 12.6647C63.1434 12.6647 62.9425 12.635 62.7639 12.5755C62.5853 12.516 62.4358 12.418 62.3152 12.2814C62.2706 12.3519 62.217 12.4091 62.1545 12.4532C62.092 12.4973 62.0273 12.5314 61.9603 12.5557C61.8933 12.5799 61.8241 12.5964 61.7527 12.6052C61.6813 12.6141 61.6143 12.6185 61.5518 12.6185H60.3196C60.1589 12.6185 60.006 12.6041 59.8609 12.5755C59.7158 12.5469 59.5785 12.4929 59.449 12.4136C59.3017 12.4929 59.1455 12.5469 58.9803 12.5755C58.8151 12.6041 58.6678 12.6185 58.5383 12.6185H57.574ZM59.5495 11.7526C59.6209 11.7085 59.6935 11.6556 59.7671 11.5939C59.8408 11.5322 59.9055 11.465 59.9613 11.3923C60.0171 11.3196 60.0629 11.2414 60.0986 11.1577C60.1343 11.0739 60.1522 10.988 60.1522 10.8999C60.1522 10.7192 60.0863 10.5936 59.9546 10.5231C59.8229 10.4526 59.6544 10.4173 59.449 10.4173C59.2705 10.4173 59.1153 10.435 58.9836 10.4702C58.8519 10.5055 58.7615 10.5363 58.7124 10.5628C58.9178 10.6905 59.093 10.8569 59.2381 11.0618C59.3832 11.2667 59.487 11.497 59.5495 11.7526ZM63.3666 10.4173C63.1523 10.4173 62.9938 10.4856 62.8911 10.6222C62.7885 10.7589 62.7371 10.9572 62.7371 11.2171C62.7371 11.4992 62.7885 11.7019 62.8911 11.8253C62.9938 11.9486 63.1523 12.0103 63.3666 12.0103C63.5854 12.0103 63.7461 11.9475 63.8488 11.822C63.9515 11.6964 64.0028 11.4948 64.0028 11.2171C64.0028 10.6839 63.7907 10.4173 63.3666 10.4173ZM4.22731 11.9641C4.34338 11.9641 4.42709 11.9387 4.47843 11.8881C4.52977 11.8374 4.55545 11.7459 4.55545 11.6137V9.94142C4.55545 9.89735 4.57777 9.87532 4.62241 9.87532H5.23851C5.28316 9.87532 5.30548 9.89735 5.30548 9.94142V11.7856C5.30548 12.072 5.24521 12.2825 5.12467 12.4169C5.00413 12.5513 4.79876 12.6185 4.50857 12.6185H1.1669C0.885641 12.6185 0.68474 12.5513 0.564199 12.4169C0.443658 12.2825 0.383387 12.072 0.383387 11.7856V10.3645C0.383387 10.3204 0.40571 10.2984 0.450355 10.2984H1.06645C1.1111 10.2984 1.13342 10.3204 1.13342 10.3645V11.6137C1.13342 11.7459 1.15909 11.8374 1.21043 11.8881C1.26177 11.9387 1.34325 11.9641 1.45486 11.9641H4.22731ZM2.51295 13.8876C2.4683 13.8876 2.44598 13.8655 2.44598 13.8215V13.253C2.44598 13.209 2.4683 13.1869 2.51295 13.1869H3.15583C3.20047 13.1869 3.2228 13.209 3.2228 13.253V13.8215C3.2228 13.8655 3.20047 13.8876 3.15583 13.8876H2.51295ZM8.59357 11.4882C8.59357 11.7085 8.57348 11.8903 8.5333 12.0335C8.49312 12.1767 8.43285 12.2924 8.35249 12.3805C8.27213 12.4686 8.16944 12.5303 8.04444 12.5656C7.91943 12.6008 7.7721 12.6185 7.60245 12.6185H6.04881C6.00417 12.6185 5.98185 12.5964 5.98185 12.5524V12.0302C5.98185 11.9861 6.00417 11.9641 6.04881 11.9641H7.2944C7.41495 11.9641 7.51093 11.9553 7.58236 11.9376C7.6538 11.92 7.70848 11.8903 7.74643 11.8484C7.78438 11.8065 7.80894 11.7526 7.8201 11.6865C7.83126 11.6204 7.83684 11.5388 7.83684 11.4419V10.999C7.83684 10.6112 7.60915 10.4173 7.15377 10.4173H6.35017C6.30552 10.4173 6.2832 10.3953 6.2832 10.3512V9.82244C6.2832 9.77837 6.30552 9.75634 6.35017 9.75634H7.42164C7.7788 9.75634 8.06341 9.85218 8.27547 10.0439C8.48754 10.2356 8.59357 10.5341 8.59357 10.9395V11.4882ZM10.3347 8.28892C10.3035 8.24045 10.2778 8.18426 10.2577 8.12037C10.2376 8.05647 10.2276 7.98706 10.2276 7.91215C10.2276 7.83724 10.2398 7.76122 10.2644 7.68411C10.289 7.60699 10.3303 7.53648 10.3883 7.47259C10.4463 7.40869 10.52 7.35581 10.6093 7.31395C10.6986 7.27208 10.808 7.25115 10.9374 7.25115C11.0624 7.25115 11.174 7.27429 11.2723 7.32056C11.3705 7.36683 11.4486 7.42742 11.5066 7.50233C11.52 7.52877 11.52 7.5486 11.5066 7.56182L11.3325 7.72707C11.3057 7.7491 11.2834 7.75131 11.2656 7.73368C11.2209 7.68962 11.1718 7.65326 11.1182 7.62462C11.0647 7.59597 11.0066 7.58165 10.9441 7.58165C10.8414 7.58165 10.7611 7.6136 10.703 7.6775C10.645 7.74139 10.616 7.82182 10.616 7.91876C10.616 8.0069 10.6394 8.08291 10.6863 8.14681C10.7332 8.2107 10.7812 8.25807 10.8303 8.28892H11.5066C11.5334 8.28892 11.5468 8.30434 11.5468 8.33519V8.57976C11.5468 8.61061 11.5334 8.62603 11.5066 8.62603H10.0869C10.0602 8.62603 10.0468 8.61061 10.0468 8.57976V8.33519C10.0468 8.30434 10.0602 8.28892 10.0869 8.28892H10.3347ZM11.1919 11.9641H11.8884C12 11.9641 12.0814 11.9387 12.1328 11.8881C12.1841 11.8374 12.2098 11.7459 12.2098 11.6137V8.18977C12.2098 8.1457 12.2321 8.12367 12.2768 8.12367H12.8996C12.9442 8.12367 12.9665 8.1457 12.9665 8.18977V11.7856C12.9665 12.072 12.9063 12.2825 12.7857 12.4169C12.6652 12.5513 12.4643 12.6185 12.183 12.6185H9.24315C9.19851 12.6185 9.17618 12.5964 9.17618 12.5524V12.0302C9.17618 11.9861 9.19851 11.9641 9.24315 11.9641H10.4352V9.12178C10.4352 9.07771 10.4575 9.05568 10.5021 9.05568H11.1249C11.1696 9.05568 11.1919 9.07771 11.1919 9.12178V11.9641ZM14.5938 12.5524C14.5938 12.5964 14.5715 12.6185 14.5269 12.6185H13.9041C13.8594 12.6185 13.8371 12.5964 13.8371 12.5524V8.18977C13.8371 8.1457 13.8594 8.12367 13.9041 8.12367H14.5269C14.5715 8.12367 14.5938 8.1457 14.5938 8.18977V12.5524ZM18.2636 12.6185C18.0538 12.6185 17.8674 12.5953 17.7045 12.5491C17.5415 12.5028 17.4042 12.4257 17.2926 12.3177C17.181 12.2097 17.0951 12.0698 17.0348 11.898C16.9745 11.7261 16.9444 11.5146 16.9444 11.2634C16.9444 10.9946 16.9812 10.7644 17.0549 10.5727C17.1285 10.381 17.229 10.2245 17.3562 10.1034C17.4835 9.98218 17.6297 9.89404 17.7949 9.83896C17.9601 9.78388 18.1342 9.75634 18.3172 9.75634C18.5181 9.75634 18.7023 9.78278 18.8697 9.83566C19.0371 9.88854 19.1811 9.97226 19.3016 10.0868C19.4222 10.2014 19.5159 10.3512 19.5829 10.5363C19.6499 10.7214 19.6833 10.9483 19.6833 11.2171V12.7639C19.6833 13.1781 19.5784 13.48 19.3686 13.6694C19.1588 13.8589 18.8529 13.9537 18.4511 13.9537H17.5471C17.5024 13.9537 17.4801 13.9316 17.4801 13.8876V13.3588C17.4801 13.3147 17.5024 13.2927 17.5471 13.2927H18.3306C18.4199 13.2927 18.5025 13.285 18.5784 13.2695C18.6543 13.2541 18.719 13.2222 18.7726 13.1737C18.8262 13.1252 18.8675 13.0569 18.8965 12.9688C18.9255 12.8807 18.94 12.7639 18.94 12.6185H18.2636ZM18.3239 10.4173C18.1185 10.4173 17.9601 10.4922 17.8484 10.6421C17.7368 10.7919 17.681 10.9924 17.681 11.2436C17.681 11.5212 17.7379 11.7107 17.8518 11.812C17.9656 11.9134 18.1297 11.9641 18.344 11.9641H18.94V11.2105C18.94 10.9505 18.8909 10.7533 18.7927 10.6189C18.6945 10.4845 18.5382 10.4173 18.3239 10.4173ZM23.4804 10.1001C23.4357 10.1001 23.4134 10.078 23.4134 10.034V9.4655C23.4134 9.42143 23.4357 9.3994 23.4804 9.3994H24.1233C24.1679 9.3994 24.1902 9.42143 24.1902 9.4655V10.034C24.1902 10.078 24.1679 10.1001 24.1233 10.1001H23.4804ZM27.3712 9.21432C27.3265 9.21432 27.3042 9.19228 27.3042 9.14822V8.57976C27.3042 8.53569 27.3265 8.51366 27.3712 8.51366H28.0141C28.0587 8.51366 28.081 8.53569 28.081 8.57976V9.14822C28.081 9.19228 28.0587 9.21432 28.0141 9.21432H27.3712ZM35.8364 13.9537C35.7917 13.9537 35.7694 13.9316 35.7694 13.8876V13.3588C35.7694 13.3147 35.7917 13.2927 35.8364 13.2927H35.9837C36.1712 13.2927 36.3063 13.2464 36.3889 13.1539C36.4715 13.0613 36.5128 12.9203 36.5128 12.7308V9.94142C36.5128 9.89735 36.5351 9.87532 36.5797 9.87532H37.2025C37.2472 9.87532 37.2695 9.89735 37.2695 9.94142V12.7441C37.2695 13.5505 36.8744 13.9537 36.0842 13.9537H35.8364ZM36.573 9.21432C36.5284 9.21432 36.5061 9.19228 36.5061 9.14822V8.57976C36.5061 8.53569 36.5284 8.51366 36.573 8.51366H37.2159C37.2606 8.51366 37.2829 8.53569 37.2829 8.57976V9.14822C37.2829 9.19228 37.2606 9.21432 37.2159 9.21432H36.573ZM38.87 12.5524C38.87 12.5964 38.8477 12.6185 38.803 12.6185H38.1802C38.1356 12.6185 38.1133 12.5964 38.1133 12.5524V8.18977C38.1133 8.1457 38.1356 8.12367 38.1802 8.12367H38.803C38.8477 8.12367 38.87 8.1457 38.87 8.18977V12.5524ZM40.9594 12.6185C40.7496 12.6185 40.5632 12.5953 40.4002 12.5491C40.2373 12.5028 40.1 12.4257 39.9884 12.3177C39.8767 12.2097 39.7908 12.0698 39.7305 11.898C39.6703 11.7261 39.6401 11.5146 39.6401 11.2634C39.6401 10.9946 39.677 10.7644 39.7506 10.5727C39.8243 10.381 39.9247 10.2245 40.052 10.1034C40.1792 9.98218 40.3254 9.89404 40.4906 9.83896C40.6558 9.78388 40.8299 9.75634 41.013 9.75634C41.2139 9.75634 41.398 9.78278 41.5654 9.83566C41.7329 9.88854 41.8768 9.97226 41.9974 10.0868C42.1179 10.2014 42.2117 10.3512 42.2786 10.5363C42.3456 10.7214 42.3791 10.9483 42.3791 11.2171V12.7639C42.3791 13.1781 42.2742 13.48 42.0643 13.6694C41.8545 13.8589 41.5487 13.9537 41.1469 13.9537H40.2428C40.1982 13.9537 40.1759 13.9316 40.1759 13.8876V13.3588C40.1759 13.3147 40.1982 13.2927 40.2428 13.2927H41.0264C41.1156 13.2927 41.1982 13.285 41.2741 13.2695C41.35 13.2541 41.4148 13.2222 41.4683 13.1737C41.5219 13.1252 41.5632 13.0569 41.5922 12.9688C41.6212 12.8807 41.6358 12.7639 41.6358 12.6185H40.9594ZM41.0197 10.4173C40.8143 10.4173 40.6558 10.4922 40.5442 10.6421C40.4326 10.7919 40.3768 10.9924 40.3768 11.2436C40.3768 11.5212 40.4337 11.7107 40.5475 11.812C40.6614 11.9134 40.8255 11.9641 41.0397 11.9641H41.6358V11.2105C41.6358 10.9505 41.5866 10.7533 41.4884 10.6189C41.3902 10.4845 41.2339 10.4173 41.0197 10.4173ZM45.56 13.8744C45.5154 13.8744 45.4931 13.8523 45.4931 13.8083V13.2398C45.4931 13.1957 45.5154 13.1737 45.56 13.1737H46.2029C46.2476 13.1737 46.2699 13.1957 46.2699 13.2398V13.8083C46.2699 13.8523 46.2476 13.8744 46.2029 13.8744H45.56ZM49.049 11.1444C49.0713 11.1048 49.1048 11.1004 49.1495 11.1312L49.6919 11.3427C49.7142 11.3515 49.7265 11.3637 49.7287 11.3791C49.731 11.3945 49.7276 11.411 49.7187 11.4287C49.6473 11.552 49.5792 11.6964 49.5144 11.8616C49.4497 12.0269 49.4173 12.2086 49.4173 12.4069C49.4173 12.5788 49.4452 12.7231 49.5011 12.8399C49.5569 12.9567 49.6283 13.0503 49.7153 13.1208C49.8024 13.1913 49.8995 13.2409 50.0067 13.2695C50.1138 13.2982 50.2187 13.3125 50.3214 13.3125C50.5759 13.3125 50.7824 13.2453 50.9408 13.1109C51.0993 12.9765 51.1786 12.7595 51.1786 12.4598V9.90837C51.1786 9.8643 51.2009 9.84227 51.2456 9.84227H51.8683C51.913 9.84227 51.9353 9.8643 51.9353 9.90837V10.1265C52.1451 10.0251 52.3773 9.93811 52.6318 9.8654C52.8862 9.79269 53.1497 9.75634 53.422 9.75634C53.7166 9.75634 53.9666 9.79379 54.172 9.86871C54.3774 9.94362 54.5459 10.0494 54.6776 10.186C54.8093 10.3226 54.9053 10.4889 54.9656 10.685C55.0259 10.8811 55.056 11.0982 55.056 11.3361C55.056 11.6137 55.0303 11.8363 54.979 12.0037C54.9276 12.1712 54.8473 12.3001 54.7379 12.3904C54.6285 12.4808 54.4856 12.5413 54.3093 12.5722C54.133 12.603 53.9175 12.6185 53.6631 12.6185H52.5514C52.4443 12.6185 52.3393 12.6174 52.2367 12.6152C52.134 12.613 52.0313 12.6096 51.9286 12.6052C51.9018 13.0679 51.74 13.4139 51.4431 13.643C51.1462 13.8722 50.7634 13.9867 50.2946 13.9867C50.058 13.9867 49.8404 13.9559 49.6417 13.8942C49.443 13.8325 49.27 13.7389 49.1227 13.6133C48.9754 13.4877 48.8604 13.3301 48.7778 13.1406C48.6952 12.9512 48.6539 12.7286 48.6539 12.473C48.6539 12.2351 48.6919 11.9971 48.7678 11.7592C48.8437 11.5212 48.9374 11.3163 49.049 11.1444ZM53.3148 10.4173C53.0648 10.4173 52.8193 10.4548 52.5782 10.5297C52.3371 10.6046 52.1228 10.6861 51.9353 10.7743V11.9641H53.3684C53.5559 11.9641 53.7088 11.9597 53.8271 11.9509C53.9454 11.942 54.037 11.9167 54.1017 11.8748C54.1664 11.833 54.21 11.768 54.2323 11.6798C54.2546 11.5917 54.2658 11.4661 54.2658 11.3031C54.2658 11.1621 54.2513 11.0365 54.2222 10.9263C54.1932 10.8161 54.1419 10.7236 54.0682 10.6487C53.9946 10.5738 53.8974 10.5165 53.7769 10.4768C53.6564 10.4372 53.5023 10.4173 53.3148 10.4173ZM53.0269 9.21432C52.9822 9.21432 52.9599 9.19228 52.9599 9.14822V8.57976C52.9599 8.53569 52.9822 8.51366 53.0269 8.51366H53.6698C53.7144 8.51366 53.7367 8.53569 53.7367 8.57976V9.14822C53.7367 9.19228 53.7144 9.21432 53.6698 9.21432H53.0269ZM0 16.3085C0 16.2644 0.0228804 16.2424 0.0669672 16.2424H1.76124C2.2434 16.2424 2.60112 16.3514 2.83271 16.5696C3.06542 16.7877 3.18094 17.0774 3.18094 17.4388C3.18094 17.6944 3.12904 17.8982 3.02413 18.0502C2.91921 18.2022 2.79532 18.3157 2.65246 18.3906V18.4038C2.72389 18.4303 2.79532 18.4722 2.8662 18.5294C2.93819 18.5867 3.00292 18.6583 3.0604 18.7443C3.119 18.8302 3.16699 18.9293 3.20438 19.0417C3.24289 19.1541 3.2613 19.2786 3.2613 19.4152C3.2613 19.8647 3.1257 20.1974 2.8528 20.4133C2.58103 20.6292 2.19485 20.7372 1.69427 20.7372H0.0669672C0.0228804 20.7372 0 20.7151 0 20.6711V16.3085ZM0.790213 20.0101C0.790213 20.0365 0.803606 20.0497 0.830393 20.0497H1.78189C2.00511 20.0497 2.17588 19.9924 2.29363 19.8779C2.41249 19.7633 2.47109 19.6113 2.47109 19.4218C2.47109 19.2367 2.41249 19.0869 2.29363 18.9723C2.17588 18.8577 2.00511 18.8004 1.78189 18.8004H0.830393C0.803606 18.8004 0.790213 18.8137 0.790213 18.8401V20.0101ZM1.74115 18.113C1.94205 18.113 2.1011 18.059 2.21661 17.9511C2.33325 17.8431 2.39073 17.701 2.39073 17.5247C2.39073 17.344 2.33325 17.1997 2.21661 17.0918C2.1011 16.9838 1.94205 16.9298 1.74115 16.9298H0.830393C0.803606 16.9298 0.790213 16.943 0.790213 16.9695V18.0734C0.790213 18.0998 0.803606 18.113 0.830393 18.113H1.74115ZM5.33729 20.8099C4.99408 20.8099 4.70612 20.7317 4.47341 20.5752C4.24182 20.4188 4.08109 20.2018 3.99125 19.9241C3.95609 19.8228 3.92763 19.7093 3.9081 19.5837C3.88801 19.4581 3.8774 19.3116 3.8774 19.1442C3.8774 18.9767 3.88689 18.8291 3.90419 18.7013C3.92261 18.5735 3.94939 18.4589 3.98455 18.3576C4.0744 18.08 4.23568 17.864 4.47006 17.7098C4.70445 17.5556 4.98236 17.4785 5.3038 17.4785C5.63864 17.4785 5.92158 17.5567 6.15094 17.7131C6.38142 17.8695 6.54102 18.0844 6.62976 18.3576C6.64817 18.4149 6.66324 18.4722 6.67663 18.5294C6.69003 18.5867 6.70174 18.6528 6.71012 18.7277C6.7196 18.8027 6.7263 18.8875 6.73076 18.9822C6.73523 19.077 6.73746 19.1882 6.73746 19.316C6.73746 19.3601 6.71291 19.3821 6.66324 19.3821H4.67431C4.64753 19.3821 4.63413 19.3953 4.63413 19.4218C4.63413 19.4703 4.63915 19.5143 4.64753 19.554C4.65701 19.5936 4.66762 19.6311 4.68101 19.6664C4.79318 19.988 5.03426 20.1489 5.40425 20.1489C5.58786 20.1489 5.73909 20.1202 5.85963 20.063C5.98073 20.0057 6.08062 19.933 6.16098 19.8448C6.19726 19.8096 6.23074 19.8052 6.26144 19.8316L6.65654 20.1753C6.68835 20.2018 6.69003 20.2326 6.66324 20.2679C6.5254 20.4265 6.34459 20.5565 6.1208 20.6579C5.89814 20.7592 5.63697 20.8099 5.33729 20.8099ZM5.98073 18.7872C5.98073 18.6859 5.96734 18.5955 5.93999 18.5162C5.89591 18.3884 5.81778 18.2882 5.70561 18.2155C5.59455 18.1428 5.46285 18.1064 5.3105 18.1064C5.1548 18.1064 5.02087 18.1428 4.9087 18.2155C4.79764 18.2882 4.71951 18.3884 4.67431 18.5162C4.64753 18.5955 4.63413 18.6859 4.63413 18.7872C4.63413 18.8137 4.64753 18.8269 4.67431 18.8269H5.93999C5.96734 18.8269 5.98073 18.8137 5.98073 18.7872ZM9.46303 20.7372C9.41838 20.7372 9.39606 20.7151 9.39606 20.6711V20.4397H9.3888C9.31347 20.5499 9.19962 20.6391 9.04727 20.7074C8.89604 20.7757 8.70574 20.8099 8.47861 20.8099C8.33072 20.8099 8.19176 20.7901 8.06006 20.7504C7.92836 20.7107 7.8134 20.6512 7.71462 20.5719C7.61696 20.4926 7.53884 20.3924 7.48024 20.2712C7.42276 20.15 7.39318 20.0057 7.39318 19.8382C7.39318 19.4901 7.5087 19.2345 7.73806 19.0715C7.96854 18.9084 8.28384 18.8269 8.68565 18.8269H9.34193C9.36871 18.8269 9.38267 18.8137 9.38267 18.7872V18.6352C9.38267 18.4501 9.33132 18.3157 9.22864 18.232C9.12596 18.1483 8.93845 18.1064 8.66556 18.1064C8.48307 18.1064 8.33351 18.1273 8.21688 18.1692C8.10136 18.2111 8.00537 18.2628 7.92892 18.3245C7.88874 18.3554 7.85805 18.351 7.83516 18.3113L7.58794 17.875C7.56562 17.8398 7.57009 17.8112 7.60078 17.7891C7.73081 17.6966 7.88706 17.6217 8.06955 17.5644C8.25315 17.5071 8.47861 17.4785 8.74648 17.4785C9.23757 17.4785 9.58468 17.5666 9.78726 17.7428C9.99095 17.9191 10.092 18.2011 10.092 18.5889V20.6711C10.092 20.7151 10.0702 20.7372 10.025 20.7372H9.46303ZM8.66556 20.2084C8.89827 20.2084 9.07573 20.1643 9.19851 20.0762C9.32128 19.988 9.38267 19.8514 9.38267 19.6664V19.4218C9.38267 19.3953 9.36871 19.3821 9.34193 19.3821H8.80619C8.56511 19.3821 8.38932 19.4163 8.27715 19.4846C8.16609 19.5529 8.10973 19.6619 8.10973 19.8118C8.10973 20.0762 8.29556 20.2084 8.66556 20.2084ZM13.7885 20.7372C13.7489 20.7372 13.7216 20.7151 13.7082 20.6711L13.0854 18.6352H13.072L12.4425 20.6711C12.4291 20.7151 12.4023 20.7372 12.3621 20.7372H11.813C11.7734 20.7372 11.746 20.7151 11.7327 20.6711L10.7148 17.6173C10.7014 17.5732 10.7175 17.5512 10.7616 17.5512H11.4045C11.4497 17.5512 11.4782 17.5732 11.4916 17.6173L12.1144 19.7192H12.1278L12.7444 17.6173C12.7578 17.5732 12.7868 17.5512 12.8309 17.5512H13.3131C13.3583 17.5512 13.3867 17.5732 13.4001 17.6173L14.0564 19.7192H14.0698L14.6591 17.6173C14.6725 17.5732 14.7021 17.5512 14.7462 17.5512H15.3896C15.4343 17.5512 15.4493 17.5732 15.4359 17.6173L14.4186 20.6711C14.4046 20.7151 14.3779 20.7372 14.3377 20.7372H13.7885ZM17.9673 20.7372C17.9232 20.7372 17.9003 20.7151 17.9003 20.6711V20.4397H17.8936C17.8183 20.5499 17.7045 20.6391 17.5521 20.7074C17.4009 20.7757 17.2106 20.8099 16.9829 20.8099C16.8356 20.8099 16.6966 20.7901 16.5643 20.7504C16.4332 20.7107 16.3182 20.6512 16.2195 20.5719C16.1218 20.4926 16.0437 20.3924 15.9856 20.2712C15.9276 20.15 15.898 20.0057 15.898 19.8382C15.898 19.4901 16.0135 19.2345 16.2429 19.0715C16.4734 18.9084 16.7892 18.8269 17.1905 18.8269H17.8473C17.8736 18.8269 17.8869 18.8137 17.8869 18.7872V18.6352C17.8869 18.4501 17.8362 18.3157 17.7329 18.232C17.6308 18.1483 17.4433 18.1064 17.1704 18.1064C16.9879 18.1064 16.8383 18.1273 16.7217 18.1692C16.6062 18.2111 16.5102 18.2628 16.4338 18.3245C16.3936 18.3554 16.3629 18.351 16.34 18.3113L16.0928 17.875C16.0705 17.8398 16.0749 17.8112 16.1062 17.7891C16.2356 17.6966 16.3919 17.6217 16.5744 17.5644C16.758 17.5071 16.9829 17.4785 17.2508 17.4785C17.7424 17.4785 18.0895 17.5666 18.2921 17.7428C18.4958 17.9191 18.5974 18.2011 18.5974 18.5889V20.6711C18.5974 20.7151 18.575 20.7372 18.5304 20.7372H17.9673ZM17.1704 20.2084C17.4031 20.2084 17.5806 20.1643 17.7028 20.0762C17.8261 19.988 17.8869 19.8514 17.8869 19.6664V19.4218C17.8869 19.3953 17.8736 19.3821 17.8473 19.3821H17.311C17.0699 19.3821 16.8942 19.4163 16.782 19.4846C16.6709 19.5529 16.6146 19.6619 16.6146 19.8118C16.6146 20.0762 16.8004 20.2084 17.1704 20.2084ZM19.4741 20.7372C19.43 20.7372 19.4071 20.7151 19.4071 20.6711V20.1885C19.4071 20.1665 19.4138 20.1445 19.4272 20.1224L21.0751 18.2122V18.1989H19.5611C19.517 18.1989 19.4942 18.1769 19.4942 18.1328V17.6173C19.4942 17.5732 19.517 17.5512 19.5611 17.5512H21.8921C21.9368 17.5512 21.9586 17.5732 21.9586 17.6173V18.1328C21.9586 18.1593 21.9519 18.1813 21.9385 18.1989L20.3112 20.0762V20.0894H21.8921C21.9368 20.0894 21.9586 20.1114 21.9586 20.1555V20.6711C21.9586 20.7151 21.9368 20.7372 21.8921 20.7372H19.4741ZM24.39 16.3085C24.39 16.2644 24.4123 16.2424 24.457 16.2424H27.3092C27.3544 16.2424 27.3762 16.2644 27.3762 16.3085V16.8769C27.3762 16.921 27.3544 16.943 27.3092 16.943H25.2199C25.1936 16.943 25.1797 16.9563 25.1797 16.9827V18.08C25.1797 18.1064 25.1936 18.1196 25.2199 18.1196H26.9817C27.0263 18.1196 27.0486 18.1417 27.0486 18.1857V18.7542C27.0486 18.7982 27.0263 18.8203 26.9817 18.8203H25.2199C25.1936 18.8203 25.1797 18.8335 25.1797 18.8599V19.9969C25.1797 20.0233 25.1936 20.0365 25.2199 20.0365H27.3092C27.3544 20.0365 27.3762 20.0585 27.3762 20.1026V20.6711C27.3762 20.7151 27.3544 20.7372 27.3092 20.7372H24.457C24.4123 20.7372 24.39 20.7151 24.39 20.6711V16.3085ZM30.1419 20.7372C30.1018 20.7372 30.0666 20.7151 30.0348 20.6711L29.3651 19.6994H29.359L28.6893 20.6711C28.6581 20.7151 28.6201 20.7372 28.5755 20.7372H27.9119C27.8812 20.7372 27.8617 20.7306 27.855 20.7173C27.8483 20.7041 27.85 20.6887 27.8584 20.6711L28.9499 19.0847L27.9393 17.6173C27.9304 17.5996 27.9287 17.5842 27.9354 17.571C27.9421 17.5578 27.9616 17.5512 27.9923 17.5512H28.662C28.7116 17.5512 28.749 17.5732 28.7764 17.6173L29.359 18.4766H29.3651L29.9544 17.6173C29.9862 17.5732 30.0214 17.5512 30.0616 17.5512H30.7313C30.7631 17.5512 30.782 17.5578 30.7882 17.571C30.7954 17.5842 30.7943 17.5996 30.7848 17.6173L29.7736 19.0847L30.8652 20.6711C30.8747 20.6887 30.8752 20.7041 30.8685 20.7173C30.8618 20.7306 30.8434 20.7372 30.8116 20.7372H30.1419ZM33.5506 20.7372C33.5065 20.7372 33.4836 20.7151 33.4836 20.6711V18.8335C33.4836 18.6264 33.4328 18.4589 33.3296 18.3311C33.2275 18.2033 33.0751 18.1395 32.8748 18.1395C32.6783 18.1395 32.526 18.2033 32.4188 18.3311C32.3117 18.4589 32.2581 18.6264 32.2581 18.8335V20.6711C32.2581 20.7151 32.2363 20.7372 32.1911 20.7372H31.575C31.531 20.7372 31.5081 20.7151 31.5081 20.6711V16.3085C31.5081 16.2644 31.531 16.2424 31.575 16.2424H32.1911C32.2363 16.2424 32.2581 16.2644 32.2581 16.3085V17.8486H32.2648C32.3368 17.7473 32.4423 17.6602 32.5829 17.5875C32.7241 17.5148 32.901 17.4785 33.1153 17.4785C33.2894 17.4785 33.4451 17.5082 33.5807 17.5677C33.7174 17.6272 33.8346 17.7098 33.9323 17.8156C34.0311 17.9213 34.1058 18.0458 34.1572 18.189C34.2085 18.3322 34.2336 18.4898 34.2336 18.6616V20.6711C34.2336 20.7151 34.2119 20.7372 34.1667 20.7372H33.5506ZM35.2454 16.9497C35.2008 16.9497 35.1784 16.9276 35.1784 16.8836V16.3085C35.1784 16.2644 35.2008 16.2424 35.2454 16.2424H35.8609C35.9062 16.2424 35.9279 16.2644 35.9279 16.3085V16.8836C35.9279 16.9276 35.9062 16.9497 35.8609 16.9497H35.2454ZM35.2454 20.7372C35.2008 20.7372 35.1784 20.7151 35.1784 20.6711V17.6173C35.1784 17.5732 35.2008 17.5512 35.2454 17.5512H35.8609C35.9062 17.5512 35.9279 17.5732 35.9279 17.6173V20.6711C35.9279 20.7151 35.9062 20.7372 35.8609 20.7372H35.2454ZM38.5195 20.8099C38.3013 20.8099 38.1228 20.7746 37.9838 20.7041C37.846 20.6336 37.7388 20.5433 37.6624 20.4331H37.6557V20.6711C37.6557 20.7151 37.6339 20.7372 37.5887 20.7372H36.9732C36.9285 20.7372 36.9062 20.7151 36.9062 20.6711V16.3085C36.9062 16.2644 36.9285 16.2424 36.9732 16.2424H37.5887C37.6339 16.2424 37.6557 16.2644 37.6557 16.3085V17.8552H37.6624C37.7388 17.7451 37.846 17.6547 37.9838 17.5842C38.1228 17.5137 38.3013 17.4785 38.5195 17.4785C38.7969 17.4785 39.0313 17.5423 39.2227 17.6701C39.4152 17.7979 39.5536 17.9896 39.6379 18.2452C39.6781 18.3686 39.7077 18.4953 39.725 18.6253C39.7434 18.7553 39.7517 18.9282 39.7517 19.1442C39.7517 19.3601 39.7434 19.5331 39.725 19.663C39.7077 19.793 39.6781 19.9197 39.6379 20.0431C39.5536 20.2987 39.4152 20.4904 39.2227 20.6182C39.0313 20.746 38.7969 20.8099 38.5195 20.8099ZM38.3253 20.1489C38.6334 20.1489 38.8326 20.0123 38.9213 19.7391C38.9442 19.6642 38.961 19.5826 38.9716 19.4945C38.9833 19.4064 38.9883 19.2896 38.9883 19.1442C38.9883 18.9987 38.9833 18.882 38.9716 18.7938C38.961 18.7057 38.9442 18.6242 38.9213 18.5493C38.8326 18.2761 38.6334 18.1395 38.3253 18.1395C38.0134 18.1395 37.8125 18.2761 37.7226 18.5493C37.7009 18.6242 37.6841 18.7057 37.6724 18.7938C37.6618 18.882 37.6557 18.9987 37.6557 19.1442C37.6557 19.2896 37.6618 19.4064 37.6724 19.4945C37.6841 19.5826 37.7009 19.6642 37.7226 19.7391C37.8125 20.0123 38.0134 20.1489 38.3253 20.1489ZM40.6229 16.9497C40.5782 16.9497 40.5559 16.9276 40.5559 16.8836V16.3085C40.5559 16.2644 40.5782 16.2424 40.6229 16.2424H41.239C41.2836 16.2424 41.3059 16.2644 41.3059 16.3085V16.8836C41.3059 16.9276 41.2836 16.9497 41.239 16.9497H40.6229ZM40.6229 20.7372C40.5782 20.7372 40.5559 20.7151 40.5559 20.6711V17.6173C40.5559 17.5732 40.5782 17.5512 40.6229 17.5512H41.239C41.2836 17.5512 41.3059 17.5732 41.3059 17.6173V20.6711C41.3059 20.7151 41.2836 20.7372 41.239 20.7372H40.6229ZM43.2273 20.7768C42.902 20.7768 42.671 20.6997 42.5342 20.5455C42.3986 20.3913 42.3305 20.1577 42.3305 19.8448V18.1659C42.3305 18.1395 42.3166 18.1262 42.2898 18.1262H42.0761C42.0314 18.1262 42.0091 18.1042 42.0091 18.0601V17.6173C42.0091 17.5732 42.0314 17.5512 42.0761 17.5512H42.2898C42.3166 17.5512 42.3305 17.5379 42.3305 17.5115V16.639C42.3305 16.5949 42.3529 16.5729 42.3975 16.5729H43.0136C43.0583 16.5729 43.0806 16.5949 43.0806 16.639V17.5115C43.0806 17.5379 43.094 17.5512 43.1202 17.5512H43.5493C43.594 17.5512 43.6163 17.5732 43.6163 17.6173V18.0601C43.6163 18.1042 43.594 18.1262 43.5493 18.1262H43.1202C43.094 18.1262 43.0806 18.1395 43.0806 18.1659V19.8184C43.0806 19.933 43.1051 20.0112 43.1537 20.053C43.2033 20.0949 43.2792 20.1158 43.3814 20.1158H43.5493C43.594 20.1158 43.6163 20.1379 43.6163 20.1819V20.7107C43.6163 20.7548 43.594 20.7768 43.5493 20.7768H43.2273ZM44.5003 16.9497C44.4556 16.9497 44.4333 16.9276 44.4333 16.8836V16.3085C44.4333 16.2644 44.4556 16.2424 44.5003 16.2424H45.1158C45.161 16.2424 45.1828 16.2644 45.1828 16.3085V16.8836C45.1828 16.9276 45.161 16.9497 45.1158 16.9497H44.5003ZM44.5003 20.7372C44.4556 20.7372 44.4333 20.7151 44.4333 20.6711V17.6173C44.4333 17.5732 44.4556 17.5512 44.5003 17.5512H45.1158C45.161 17.5512 45.1828 17.5732 45.1828 17.6173V20.6711C45.1828 20.7151 45.161 20.7372 45.1158 20.7372H44.5003ZM47.4262 20.8099C47.0964 20.8099 46.814 20.7328 46.5796 20.5785C46.3452 20.4243 46.1834 20.2084 46.0941 19.9308C46.0584 19.8162 46.0316 19.7005 46.0132 19.5837C45.9959 19.467 45.9864 19.3204 45.9864 19.1442C45.9864 18.9679 45.9959 18.8214 46.0132 18.7046C46.0316 18.5878 46.0584 18.4722 46.0941 18.3576C46.1834 18.08 46.3452 17.864 46.5796 17.7098C46.814 17.5556 47.0964 17.4785 47.4262 17.4785C47.7527 17.4785 48.0322 17.5556 48.2672 17.7098C48.5016 17.864 48.6634 18.08 48.7527 18.3576C48.7884 18.4722 48.8152 18.5878 48.8325 18.7046C48.8509 18.8214 48.8593 18.9679 48.8593 19.1442C48.8593 19.3204 48.8509 19.467 48.8325 19.5837C48.8152 19.7005 48.7884 19.8162 48.7527 19.9308C48.6634 20.2084 48.5016 20.4243 48.2672 20.5785C48.0322 20.7328 47.7527 20.8099 47.4262 20.8099ZM47.4262 20.1489C47.5785 20.1489 47.7041 20.1125 47.8046 20.0398C47.905 19.9671 47.9803 19.8647 48.0294 19.7325C48.0557 19.6487 48.0741 19.5639 48.083 19.478C48.092 19.392 48.0964 19.2808 48.0964 19.1442C48.0964 19.0076 48.092 18.8974 48.083 18.8137C48.0741 18.7299 48.0557 18.644 48.0294 18.5559C47.9803 18.4237 47.905 18.3212 47.8046 18.2485C47.7041 18.1758 47.5785 18.1395 47.4262 18.1395C47.275 18.1395 47.1477 18.1758 47.045 18.2485C46.9423 18.3212 46.8665 18.4237 46.8168 18.5559C46.79 18.644 46.7727 18.7299 46.7632 18.8137C46.7548 18.8974 46.7498 19.0076 46.7498 19.1442C46.7498 19.2808 46.7548 19.392 46.7632 19.478C46.7727 19.5639 46.79 19.6487 46.8168 19.7325C46.8665 19.8647 46.9423 19.9671 47.045 20.0398C47.1477 20.1125 47.275 20.1489 47.4262 20.1489ZM51.7054 20.7372C51.6613 20.7372 51.6384 20.7151 51.6384 20.6711V18.8335C51.6384 18.6264 51.5876 18.4589 51.4844 18.3311C51.3823 18.2033 51.2305 18.1395 51.0296 18.1395C50.8331 18.1395 50.6814 18.2033 50.5736 18.3311C50.4665 18.4589 50.4135 18.6264 50.4135 18.8335V20.6711C50.4135 20.7151 50.3912 20.7372 50.3465 20.7372H49.7299C49.6858 20.7372 49.6629 20.7151 49.6629 20.6711V17.6173C49.6629 17.5732 49.6858 17.5512 49.7299 17.5512H50.3465C50.3912 17.5512 50.4135 17.5732 50.4135 17.6173V17.8486H50.4196C50.4916 17.7473 50.5971 17.6602 50.7377 17.5875C50.8789 17.5148 51.0558 17.4785 51.2701 17.4785C51.4448 17.4785 51.5999 17.5082 51.7355 17.5677C51.8722 17.6272 51.9894 17.7098 52.0871 17.8156C52.1859 17.9213 52.2607 18.0458 52.3114 18.189C52.3633 18.3322 52.3885 18.4898 52.3885 18.6616V20.6711C52.3885 20.7151 52.3667 20.7372 52.3215 20.7372H51.7054ZM55.0811 20.7372C55.0365 20.7372 55.0141 20.7151 55.0141 20.6711V18.1659C55.0141 18.1395 55.0002 18.1262 54.9734 18.1262H54.7597C54.715 18.1262 54.6927 18.1042 54.6927 18.0601V17.6173C54.6927 17.5732 54.715 17.5512 54.7597 17.5512H54.9734C55.0002 17.5512 55.0141 17.5379 55.0141 17.5115V17.3066C55.0141 16.932 55.104 16.661 55.2848 16.4936C55.4662 16.3261 55.7329 16.2424 56.0856 16.2424H56.3803C56.4249 16.2424 56.4472 16.2644 56.4472 16.3085V16.8373C56.4472 16.8813 56.4249 16.9034 56.3803 16.9034H56.1721C56.0878 16.9034 56.0181 16.9089 55.9651 16.9199C55.9109 16.9309 55.8702 16.9519 55.8406 16.9827C55.8122 17.0135 55.7921 17.0532 55.7809 17.1017C55.7697 17.1502 55.7642 17.2141 55.7642 17.2934V17.5115C55.7642 17.5379 55.777 17.5512 55.8038 17.5512H56.3803C56.4249 17.5512 56.4472 17.5732 56.4472 17.6173V18.0601C56.4472 18.1042 56.4249 18.1262 56.3803 18.1262H55.8038C55.777 18.1262 55.7642 18.1395 55.7642 18.1659V20.6711C55.7642 20.7151 55.7418 20.7372 55.6972 20.7372H55.0811ZM58.3753 20.8099C58.0455 20.8099 57.7626 20.7328 57.5282 20.5785C57.2938 20.4243 57.1325 20.2084 57.0427 19.9308C57.0075 19.8162 56.9807 19.7005 56.9623 19.5837C56.945 19.467 56.9361 19.3204 56.9361 19.1442C56.9361 18.9679 56.945 18.8214 56.9623 18.7046C56.9807 18.5878 57.0075 18.4722 57.0427 18.3576C57.1325 18.08 57.2938 17.864 57.5282 17.7098C57.7626 17.5556 58.0455 17.4785 58.3753 17.4785C58.7018 17.4785 58.9814 17.5556 59.2163 17.7098C59.4507 17.864 59.6125 18.08 59.7013 18.3576C59.7376 18.4722 59.7643 18.5878 59.7816 18.7046C59.8001 18.8214 59.8084 18.9679 59.8084 19.1442C59.8084 19.3204 59.8001 19.467 59.7816 19.5837C59.7643 19.7005 59.7376 19.8162 59.7013 19.9308C59.6125 20.2084 59.4507 20.4243 59.2163 20.5785C58.9814 20.7328 58.7018 20.8099 58.3753 20.8099ZM58.3753 20.1489C58.5277 20.1489 58.6532 20.1125 58.7537 20.0398C58.8541 19.9671 58.9295 19.8647 58.978 19.7325C59.0048 19.6487 59.0232 19.5639 59.0316 19.478C59.0411 19.392 59.045 19.2808 59.045 19.1442C59.045 19.0076 59.0411 18.8974 59.0316 18.8137C59.0232 18.7299 59.0048 18.644 58.978 18.5559C58.9295 18.4237 58.8541 18.3212 58.7537 18.2485C58.6532 18.1758 58.5277 18.1395 58.3753 18.1395C58.2241 18.1395 58.0969 18.1758 57.9936 18.2485C57.8915 18.3212 57.8156 18.4237 57.7659 18.5559C57.7397 18.644 57.7218 18.7299 57.7123 18.8137C57.704 18.8974 57.699 19.0076 57.699 19.1442C57.699 19.2808 57.704 19.392 57.7123 19.478C57.7218 19.5639 57.7397 19.6487 57.7659 19.7325C57.8156 19.8647 57.8915 19.9671 57.9936 20.0398C58.0969 20.1125 58.2241 20.1489 58.3753 20.1489ZM60.679 20.7372C60.6349 20.7372 60.6126 20.7151 60.6126 20.6711V17.6173C60.6126 17.5732 60.6349 17.5512 60.679 17.5512H61.2951C61.3403 17.5512 61.3621 17.5732 61.3621 17.6173V17.8883H61.3693C61.4452 17.7649 61.5524 17.6657 61.6902 17.5908C61.8292 17.5159 62.001 17.4785 62.2064 17.4785C62.3359 17.4785 62.4598 17.5016 62.5775 17.5479C62.6964 17.5941 62.798 17.6591 62.8822 17.7428C62.914 17.7737 62.9185 17.8045 62.8956 17.8354L62.5407 18.2783C62.5139 18.3135 62.4832 18.3179 62.4469 18.2915C62.3716 18.243 62.2957 18.2055 62.2192 18.1791C62.1439 18.1527 62.0613 18.1395 61.972 18.1395C61.7572 18.1395 61.6026 18.21 61.506 18.351C61.4106 18.492 61.3621 18.6903 61.3621 18.9459V20.6711C61.3621 20.7151 61.3403 20.7372 61.2951 20.7372H60.679ZM12.1841 24.2405C12.1975 24.1964 12.2265 24.1744 12.2712 24.1744H12.8873C12.9319 24.1744 12.9609 24.1964 12.9743 24.2405L14.5146 28.6031C14.528 28.6471 14.5124 28.6692 14.4677 28.6692H13.8114C13.7668 28.6692 13.7378 28.6471 13.7244 28.6031L13.423 27.7305H11.7087L11.4073 28.6031C11.3939 28.6471 11.3649 28.6692 11.3203 28.6692H10.6707C10.626 28.6692 10.6104 28.6471 10.6238 28.6031L12.1841 24.2405ZM13.1819 27.0365L12.5792 25.2915H12.5591L11.9497 27.0365H13.1819ZM15.191 28.6692C15.1463 28.6692 15.124 28.6471 15.124 28.6031V25.5492C15.124 25.5052 15.1463 25.4831 15.191 25.4831H15.8071C15.8517 25.4831 15.874 25.5052 15.874 25.5492V25.8203H15.8807C15.9566 25.6969 16.0638 25.5977 16.2022 25.5228C16.3406 25.4479 16.5124 25.4104 16.7178 25.4104C16.8473 25.4104 16.9712 25.4336 17.0895 25.4798C17.2078 25.5261 17.3094 25.5911 17.3942 25.6748C17.4254 25.7057 17.4299 25.7365 17.4076 25.7674L17.0526 26.2102C17.0259 26.2455 16.9946 26.2499 16.9589 26.2235C16.883 26.175 16.8071 26.1375 16.7312 26.1111C16.6553 26.0847 16.5727 26.0714 16.4834 26.0714C16.2691 26.0714 16.114 26.1419 16.018 26.283C15.922 26.424 15.874 26.6223 15.874 26.8778V28.6031C15.874 28.6471 15.8517 28.6692 15.8071 28.6692H15.191ZM18.9009 28.7088C18.575 28.7088 18.344 28.6317 18.2078 28.4775C18.0717 28.3232 18.0036 28.0897 18.0036 27.7768V26.0979C18.0036 26.0714 17.9902 26.0582 17.9634 26.0582H17.7491C17.7045 26.0582 17.6821 26.0362 17.6821 25.9921V25.5492C17.6821 25.5052 17.7045 25.4831 17.7491 25.4831H17.9634C17.9902 25.4831 18.0036 25.4699 18.0036 25.4435V24.571C18.0036 24.5269 18.0259 24.5049 18.0705 24.5049H18.6866C18.7313 24.5049 18.7536 24.5269 18.7536 24.571V25.4435C18.7536 25.4699 18.767 25.4831 18.7938 25.4831H19.2224C19.267 25.4831 19.2894 25.5052 19.2894 25.5492V25.9921C19.2894 26.0362 19.267 26.0582 19.2224 26.0582H18.7938C18.767 26.0582 18.7536 26.0714 18.7536 26.0979V27.7504C18.7536 27.8649 18.7782 27.9432 18.8273 27.985C18.8764 28.0269 18.9523 28.0478 19.055 28.0478H19.2224C19.267 28.0478 19.2894 28.0698 19.2894 28.1139V28.6427C19.2894 28.6868 19.267 28.7088 19.2224 28.7088H18.9009ZM23.6087 28.6692C23.5641 28.6692 23.5418 28.6471 23.5418 28.6031V28.3717H23.5351C23.4592 28.4819 23.3453 28.5711 23.1935 28.6394C23.0417 28.7077 22.852 28.7419 22.6243 28.7419C22.477 28.7419 22.3375 28.722 22.2058 28.6824C22.0741 28.6427 21.9591 28.5832 21.8609 28.5039C21.7627 28.4246 21.6845 28.3243 21.6265 28.2032C21.5685 28.082 21.5394 27.9377 21.5394 27.7702C21.5394 27.4221 21.6544 27.1665 21.8843 27.0034C22.1143 26.8404 22.4301 26.7589 22.8319 26.7589H23.4882C23.515 26.7589 23.5284 26.7456 23.5284 26.7192V26.5672C23.5284 26.3821 23.477 26.2477 23.3744 26.164C23.2717 26.0802 23.0842 26.0384 22.8118 26.0384C22.6288 26.0384 22.4792 26.0593 22.3631 26.1012C22.2471 26.143 22.1511 26.1948 22.0752 26.2565C22.035 26.2874 22.0038 26.2829 21.9814 26.2433L21.7337 25.807C21.7113 25.7718 21.7158 25.7431 21.747 25.7211C21.8765 25.6286 22.0328 25.5536 22.2158 25.4964C22.3989 25.4391 22.6243 25.4104 22.8922 25.4104C23.3833 25.4104 23.7304 25.4986 23.9335 25.6748C24.1367 25.8511 24.2382 26.1331 24.2382 26.5209V28.6031C24.2382 28.6471 24.2159 28.6692 24.1713 28.6692H23.6087ZM22.8118 28.1404C23.044 28.1404 23.2214 28.0963 23.3442 28.0082C23.467 27.92 23.5284 27.7834 23.5284 27.5983V27.3538C23.5284 27.3273 23.515 27.3141 23.4882 27.3141H22.9525C22.7114 27.3141 22.535 27.3483 22.4234 27.4166C22.3118 27.4849 22.256 27.5939 22.256 27.7438C22.256 28.0082 22.4413 28.1404 22.8118 28.1404ZM27.2317 28.6692C27.187 28.6692 27.1647 28.6471 27.1647 28.6031V26.7655C27.1647 26.5584 27.1134 26.3909 27.0107 26.2631C26.908 26.1353 26.7562 26.0714 26.5553 26.0714C26.3589 26.0714 26.2071 26.1353 26.0999 26.2631C25.9928 26.3909 25.9392 26.5584 25.9392 26.7655V28.6031C25.9392 28.6471 25.9169 28.6692 25.8722 28.6692H25.2561C25.2115 28.6692 25.1892 28.6471 25.1892 28.6031V25.5492C25.1892 25.5052 25.2115 25.4831 25.2561 25.4831H25.8722C25.9169 25.4831 25.9392 25.5052 25.9392 25.5492V25.7806H25.9459C26.0173 25.6792 26.1234 25.5922 26.264 25.5195C26.4046 25.4468 26.5821 25.4104 26.7964 25.4104C26.9705 25.4104 27.1256 25.4402 27.2618 25.4997C27.398 25.5592 27.5152 25.6418 27.6134 25.7475C27.7116 25.8533 27.7864 25.9778 27.8377 26.121C27.8891 26.2642 27.9147 26.4218 27.9147 26.5936V28.6031C27.9147 28.6471 27.8924 28.6692 27.8478 28.6692H27.2317ZM30.8479 28.6692C30.8032 28.6692 30.7809 28.6471 30.7809 28.6031V28.3651H30.7742C30.6983 28.4753 30.5912 28.5656 30.4528 28.6361C30.3144 28.7066 30.1358 28.7419 29.917 28.7419C29.6403 28.7419 29.4059 28.678 29.2139 28.5502C29.0219 28.4224 28.8835 28.2307 28.7987 27.9751C28.7585 27.8517 28.7295 27.725 28.7116 27.595C28.6938 27.465 28.6849 27.2921 28.6849 27.0761C28.6849 26.8602 28.6938 26.6873 28.7116 26.5573C28.7295 26.4273 28.7585 26.3006 28.7987 26.1772C28.8835 25.9216 29.0219 25.7299 29.2139 25.6021C29.4059 25.4743 29.6403 25.4104 29.917 25.4104C30.1358 25.4104 30.3144 25.4457 30.4528 25.5162C30.5912 25.5867 30.6983 25.677 30.7742 25.7872H30.7809V24.2405C30.7809 24.1964 30.8032 24.1744 30.8479 24.1744H31.464C31.5086 24.1744 31.531 24.1964 31.531 24.2405V28.6031C31.531 28.6471 31.5086 28.6692 31.464 28.6692H30.8479ZM30.1113 28.0809C30.4238 28.0809 30.6247 27.9443 30.714 27.671C30.7363 27.5961 30.753 27.5146 30.7642 27.4265C30.7753 27.3383 30.7809 27.2216 30.7809 27.0761C30.7809 26.9307 30.7753 26.814 30.7642 26.7258C30.753 26.6377 30.7363 26.5562 30.714 26.4813C30.6247 26.208 30.4238 26.0714 30.1113 26.0714C29.8032 26.0714 29.6045 26.208 29.5152 26.4813C29.4929 26.5562 29.4762 26.6377 29.465 26.7258C29.4539 26.814 29.4483 26.9307 29.4483 27.0761C29.4483 27.2216 29.4539 27.3383 29.465 27.4265C29.4762 27.5146 29.4929 27.5961 29.5152 27.671C29.6045 27.9443 29.8032 28.0809 30.1113 28.0809ZM34.1025 24.2405C34.1025 24.1964 34.1248 24.1744 34.1695 24.1744H34.8257C34.8704 24.1744 34.8927 24.1964 34.8927 24.2405V27.9288C34.8927 27.9553 34.9061 27.9685 34.9329 27.9685H37.0223C37.0669 27.9685 37.0892 27.9905 37.0892 28.0346V28.6031C37.0892 28.6471 37.0669 28.6692 37.0223 28.6692H34.1695C34.1248 28.6692 34.1025 28.6471 34.1025 28.6031V24.2405ZM37.8058 24.8816C37.7611 24.8816 37.7388 24.8596 37.7388 24.8155V24.2405C37.7388 24.1964 37.7611 24.1744 37.8058 24.1744H38.4219C38.4665 24.1744 38.4889 24.1964 38.4889 24.2405V24.8155C38.4889 24.8596 38.4665 24.8816 38.4219 24.8816H37.8058ZM37.8058 28.6692C37.7611 28.6692 37.7388 28.6471 37.7388 28.6031V25.5492C37.7388 25.5052 37.7611 25.4831 37.8058 25.4831H38.4219C38.4665 25.4831 38.4889 25.5052 38.4889 25.5492V28.6031C38.4889 28.6471 38.4665 28.6692 38.4219 28.6692H37.8058ZM40.4108 28.7088C40.0849 28.7088 39.8539 28.6317 39.7177 28.4775C39.5815 28.3232 39.5135 28.0897 39.5135 27.7768V26.0979C39.5135 26.0714 39.5001 26.0582 39.4733 26.0582H39.259C39.2143 26.0582 39.192 26.0362 39.192 25.9921V25.5492C39.192 25.5052 39.2143 25.4831 39.259 25.4831H39.4733C39.5001 25.4831 39.5135 25.4699 39.5135 25.4435V24.571C39.5135 24.5269 39.5358 24.5049 39.5804 24.5049H40.1965C40.2412 24.5049 40.2635 24.5269 40.2635 24.571V25.4435C40.2635 25.4699 40.2769 25.4831 40.3037 25.4831H40.7323C40.7769 25.4831 40.7992 25.5052 40.7992 25.5492V25.9921C40.7992 26.0362 40.7769 26.0582 40.7323 26.0582H40.3037C40.2769 26.0582 40.2635 26.0714 40.2635 26.0979V27.7504C40.2635 27.8649 40.288 27.9432 40.3371 27.985C40.3863 28.0269 40.4622 28.0478 40.5648 28.0478H40.7323C40.7769 28.0478 40.7992 28.0698 40.7992 28.1139V28.6427C40.7992 28.6868 40.7769 28.7088 40.7323 28.7088H40.4108ZM42.902 28.7419C42.5582 28.7419 42.2703 28.6636 42.0381 28.5072C41.806 28.3508 41.6452 28.1337 41.556 27.8561C41.5202 27.7548 41.4923 27.6413 41.4722 27.5157C41.4522 27.3901 41.4421 27.2436 41.4421 27.0761C41.4421 26.9087 41.451 26.7611 41.4689 26.6333C41.4868 26.5055 41.5135 26.3909 41.5493 26.2896C41.6385 26.0119 41.8004 25.796 42.0348 25.6418C42.2691 25.4875 42.5471 25.4104 42.8685 25.4104C43.2033 25.4104 43.4857 25.4886 43.7156 25.6451C43.9456 25.8015 44.1052 26.0163 44.1945 26.2896C44.2123 26.3468 44.2279 26.4041 44.2413 26.4614C44.2547 26.5187 44.2659 26.5848 44.2748 26.6597C44.2837 26.7346 44.2904 26.8195 44.2949 26.9142C44.2994 27.0089 44.3016 27.1202 44.3016 27.248C44.3016 27.2921 44.2771 27.3141 44.2279 27.3141H42.239C42.2122 27.3141 42.1988 27.3273 42.1988 27.3538C42.1988 27.4022 42.2033 27.4463 42.2122 27.486C42.2212 27.5256 42.2323 27.5631 42.2457 27.5983C42.3573 27.92 42.5984 28.0809 42.969 28.0809C43.152 28.0809 43.3038 28.0522 43.4243 27.9949C43.5449 27.9376 43.6453 27.8649 43.7257 27.7768C43.7614 27.7416 43.7949 27.7371 43.8261 27.7636L44.2212 28.1073C44.2525 28.1337 44.2547 28.1646 44.2279 28.1998C44.0895 28.3585 43.9087 28.4885 43.6855 28.5898C43.4623 28.6912 43.2011 28.7419 42.902 28.7419ZM43.5449 26.7192C43.5449 26.6179 43.5315 26.5275 43.5047 26.4482C43.4601 26.3204 43.3819 26.2202 43.2703 26.1474C43.1587 26.0747 43.027 26.0384 42.8752 26.0384C42.7189 26.0384 42.585 26.0747 42.4734 26.1474C42.3618 26.2202 42.2837 26.3204 42.239 26.4482C42.2122 26.5275 42.1988 26.6179 42.1988 26.7192C42.1988 26.7456 42.2122 26.7589 42.239 26.7589H43.5047C43.5315 26.7589 43.5449 26.7456 43.5449 26.7192ZM45.1722 28.6692C45.1275 28.6692 45.1052 28.6471 45.1052 28.6031V25.5492C45.1052 25.5052 45.1275 25.4831 45.1722 25.4831H45.7883C45.8329 25.4831 45.8552 25.5052 45.8552 25.5492V25.8203H45.8619C45.9378 25.6969 46.045 25.5977 46.1834 25.5228C46.3218 25.4479 46.4937 25.4104 46.699 25.4104C46.8285 25.4104 46.9524 25.4336 47.0707 25.4798C47.189 25.5261 47.2906 25.5911 47.3754 25.6748C47.4067 25.7057 47.4111 25.7365 47.3888 25.7674L47.0339 26.2102C47.0071 26.2455 46.9758 26.2499 46.9401 26.2235C46.8642 26.175 46.7883 26.1375 46.7124 26.1111C46.6365 26.0847 46.5539 26.0714 46.4646 26.0714C46.2504 26.0714 46.0952 26.1419 45.9992 26.283C45.9032 26.424 45.8552 26.6223 45.8552 26.8778V28.6031C45.8552 28.6471 45.8329 28.6692 45.7883 28.6692H45.1722ZM49.7393 28.6692C49.6947 28.6692 49.6724 28.6471 49.6724 28.6031V28.3717H49.6657C49.5898 28.4819 49.4759 28.5711 49.3242 28.6394C49.1724 28.7077 48.9826 28.7419 48.7549 28.7419C48.6076 28.7419 48.4681 28.722 48.3364 28.6824C48.2047 28.6427 48.0897 28.5832 47.9915 28.5039C47.8933 28.4246 47.8152 28.3243 47.7571 28.2032C47.6991 28.082 47.6701 27.9377 47.6701 27.7702C47.6701 27.4221 47.785 27.1665 48.0149 27.0034C48.2449 26.8404 48.5607 26.7589 48.9625 26.7589H49.6188C49.6456 26.7589 49.659 26.7456 49.659 26.7192V26.5672C49.659 26.3821 49.6076 26.2477 49.505 26.164C49.4023 26.0802 49.2148 26.0384 48.9424 26.0384C48.7594 26.0384 48.6098 26.0593 48.4938 26.1012C48.3777 26.143 48.2817 26.1948 48.2058 26.2565C48.1656 26.2874 48.1344 26.2829 48.112 26.2433L47.8643 25.807C47.8419 25.7718 47.8464 25.7431 47.8777 25.7211C48.0071 25.6286 48.1634 25.5536 48.3464 25.4964C48.5295 25.4391 48.7549 25.4104 49.0228 25.4104C49.5139 25.4104 49.861 25.4986 50.0641 25.6748C50.2673 25.8511 50.3688 26.1331 50.3688 26.5209V28.6031C50.3688 28.6471 50.3465 28.6692 50.3019 28.6692H49.7393ZM48.9424 28.1404C49.1746 28.1404 49.3521 28.0963 49.4748 28.0082C49.5976 27.92 49.659 27.7834 49.659 27.5983V27.3538C49.659 27.3273 49.6456 27.3141 49.6188 27.3141H49.0831C48.842 27.3141 48.6656 27.3483 48.554 27.4166C48.4424 27.4849 48.3866 27.5939 48.3866 27.7438C48.3866 28.0082 48.5719 28.1404 48.9424 28.1404ZM52.264 28.7088C51.9381 28.7088 51.7071 28.6317 51.5709 28.4775C51.4347 28.3232 51.3666 28.0897 51.3666 27.7768V26.0979C51.3666 26.0714 51.3533 26.0582 51.3265 26.0582H51.1122C51.0675 26.0582 51.0452 26.0362 51.0452 25.9921V25.5492C51.0452 25.5052 51.0675 25.4831 51.1122 25.4831H51.3265C51.3533 25.4831 51.3666 25.4699 51.3666 25.4435V24.571C51.3666 24.5269 51.389 24.5049 51.4336 24.5049H52.0497C52.0944 24.5049 52.1167 24.5269 52.1167 24.571V25.4435C52.1167 25.4699 52.1301 25.4831 52.1569 25.4831H52.5855C52.6301 25.4831 52.6524 25.5052 52.6524 25.5492V25.9921C52.6524 26.0362 52.6301 26.0582 52.5855 26.0582H52.1569C52.1301 26.0582 52.1167 26.0714 52.1167 26.0979V27.7504C52.1167 27.8649 52.1412 27.9432 52.1903 27.985C52.2395 28.0269 52.3153 28.0478 52.418 28.0478H52.5855C52.6301 28.0478 52.6524 28.0698 52.6524 28.1139V28.6427C52.6524 28.6868 52.6301 28.7088 52.5855 28.7088H52.264ZM55.4516 28.6692C55.407 28.6692 55.3847 28.6471 55.3847 28.6031V28.3717H55.378C55.2887 28.4819 55.1782 28.5711 55.0465 28.6394C54.9148 28.7077 54.7463 28.7419 54.5409 28.7419C54.3668 28.7419 54.2116 28.7121 54.0755 28.6526C53.9393 28.5931 53.8232 28.5105 53.7272 28.4048C53.6313 28.299 53.5576 28.1745 53.5062 28.0313C53.4549 27.8881 53.4292 27.7305 53.4292 27.5587V25.5492C53.4292 25.5052 53.4516 25.4831 53.4962 25.4831H54.1123C54.157 25.4831 54.1793 25.5052 54.1793 25.5492V27.3868C54.1793 27.5939 54.2284 27.7614 54.3266 27.8892C54.4248 28.017 54.5766 28.0809 54.782 28.0809C54.9739 28.0809 55.1224 28.017 55.2273 27.8892C55.3322 27.7614 55.3847 27.5961 55.3847 27.3934V25.5492C55.3847 25.5052 55.407 25.4831 55.4516 25.4831H56.0677C56.1124 25.4831 56.1347 25.5052 56.1347 25.5492V28.6031C56.1347 28.6471 56.1124 28.6692 56.0677 28.6692H55.4516ZM57.1794 28.6692C57.1348 28.6692 57.1124 28.6471 57.1124 28.6031V25.5492C57.1124 25.5052 57.1348 25.4831 57.1794 25.4831H57.7955C57.8401 25.4831 57.8625 25.5052 57.8625 25.5492V25.8203H57.8692C57.9451 25.6969 58.0522 25.5977 58.1906 25.5228C58.329 25.4479 58.5009 25.4104 58.7063 25.4104C58.8357 25.4104 58.9596 25.4336 59.0779 25.4798C59.1962 25.5261 59.2978 25.5911 59.3826 25.6748C59.4139 25.7057 59.4183 25.7365 59.396 25.7674L59.0411 26.2102C59.0143 26.2455 58.9831 26.2499 58.9473 26.2235C58.8714 26.175 58.7955 26.1375 58.7197 26.1111C58.6438 26.0847 58.5612 26.0714 58.4719 26.0714C58.2576 26.0714 58.1024 26.1419 58.0064 26.283C57.9105 26.424 57.8625 26.6223 57.8625 26.8778V28.6031C57.8625 28.6471 57.8401 28.6692 57.7955 28.6692H57.1794ZM61.2309 28.7419C60.8872 28.7419 60.5992 28.6636 60.367 28.5072C60.1349 28.3508 59.9742 28.1337 59.8849 27.8561C59.8492 27.7548 59.8213 27.6413 59.8012 27.5157C59.7811 27.3901 59.771 27.2436 59.771 27.0761C59.771 26.9087 59.78 26.7611 59.7978 26.6333C59.8157 26.5055 59.8425 26.3909 59.8782 26.2896C59.9675 26.0119 60.1293 25.796 60.3637 25.6418C60.5981 25.4875 60.876 25.4104 61.1974 25.4104C61.5323 25.4104 61.8147 25.4886 62.0446 25.6451C62.2745 25.8015 62.4341 26.0163 62.5234 26.2896C62.5412 26.3468 62.5569 26.4041 62.5703 26.4614C62.5837 26.5187 62.5948 26.5848 62.6037 26.6597C62.6127 26.7346 62.6194 26.8195 62.6238 26.9142C62.6283 27.0089 62.6305 27.1202 62.6305 27.248C62.6305 27.2921 62.606 27.3141 62.5569 27.3141H60.5679C60.5412 27.3141 60.5278 27.3273 60.5278 27.3538C60.5278 27.4022 60.5322 27.4463 60.5412 27.486C60.5501 27.5256 60.5612 27.5631 60.5746 27.5983C60.6863 27.92 60.9273 28.0809 61.2979 28.0809C61.4809 28.0809 61.6327 28.0522 61.7533 27.9949C61.8738 27.9376 61.9743 27.8649 62.0546 27.7768C62.0903 27.7416 62.1238 27.7371 62.1551 27.7636L62.5502 28.1073C62.5814 28.1337 62.5837 28.1646 62.5569 28.1998C62.4185 28.3585 62.2377 28.4885 62.0144 28.5898C61.7912 28.6912 61.53 28.7419 61.2309 28.7419ZM61.8738 26.7192C61.8738 26.6179 61.8604 26.5275 61.8336 26.4482C61.789 26.3204 61.7109 26.2202 61.5992 26.1474C61.4876 26.0747 61.3559 26.0384 61.2041 26.0384C61.0479 26.0384 60.9139 26.0747 60.8023 26.1474C60.6907 26.2202 60.6126 26.3204 60.5679 26.4482C60.5412 26.5275 60.5278 26.6179 60.5278 26.7192C60.5278 26.7456 60.5412 26.7589 60.5679 26.7589H61.8336C61.8604 26.7589 61.8738 26.7456 61.8738 26.7192ZM99.996 0.527146V35.4659C99.996 35.7567 99.7566 35.993 99.4619 35.993H67.9974C67.7022 35.993 67.4633 35.7567 67.4633 35.4659V0.527146C67.4633 0.235756 67.7022 0 67.9974 0H99.4619C99.7566 0 99.996 0.235756 99.996 0.527146ZM98.9273 1.05429H68.5315V34.9387H98.9273V1.05429ZM70.6627 24.6894C70.6627 24.593 70.6889 24.501 70.7369 24.4217C70.7486 24.4019 70.762 24.3826 70.776 24.3644C70.7944 24.3418 70.8145 24.3203 70.8357 24.3011L83.3653 12.7765C83.521 12.6333 83.747 12.5948 83.9417 12.6785C84.1365 12.7617 84.2632 12.9512 84.2637 13.1605L84.2838 20.0387H92.085C92.3796 20.0387 92.619 20.275 92.619 20.5659V24.1925C94.9685 24.4553 96.7967 26.4262 96.7967 28.8157C96.7967 31.3837 94.6844 33.4686 92.0827 33.4686C90.5575 33.4686 89.2009 32.7525 88.3392 31.6425V32.9365C88.3392 33.2278 88.1004 33.4641 87.8052 33.4641H83.7297H79.5995H71.1968C70.9015 33.4641 70.6627 33.2278 70.6627 32.9365V24.6894ZM88.4754 29.3406C88.7327 31.0779 90.2512 32.4143 92.0827 32.4143C94.0945 32.4143 95.7285 30.8014 95.7285 28.8157C95.7285 27.0089 94.3775 25.5118 92.619 25.2556V28.8129C92.619 29.1043 92.3796 29.3406 92.085 29.3406H88.4754ZM71.7308 25.9574V32.4093H78.3048L71.7308 25.9574ZM91.5509 24.192V21.093H84.2844L84.2799 23.6577L84.2822 24.1622H87.8052C88.1004 24.1622 88.3392 24.3986 88.3392 24.6894V25.9883C89.0993 25.0094 90.245 24.3369 91.5509 24.192ZM80.1335 32.4093H83.1962L83.209 25.2171H80.1335V32.4093ZM83.2163 20.4193L83.199 14.3707L71.9669 24.7021L74.8638 27.5455V24.6894C74.8638 24.5495 74.9207 24.4145 75.0217 24.3159L79.2228 20.1924C79.3757 20.042 79.6056 19.9974 79.8048 20.0795C80.0041 20.161 80.1335 20.3532 80.1335 20.5659V24.1622H83.2107L83.2118 23.6599L83.1956 20.5686C83.1951 20.5179 83.2023 20.4678 83.2163 20.4193ZM88.476 28.2858H91.5509V25.2551C89.9654 25.4842 88.7098 26.722 88.476 28.2858ZM75.9319 28.5937L79.0654 31.669V21.8339L75.9319 24.9086V28.5937ZM84.2643 32.4093H87.2711V25.2171H84.2771L84.2643 32.4093Z" fill="white"/>
</g>
<defs>
<clipPath id="clip0_955_2961">
<rect width="100" height="36" fill="white"/>
</clipPath>
</defs>
</svg>
