<svg width="33" height="29" viewBox="0 0 33 29" fill="none" xmlns="http://www.w3.org/2000/svg">
<g clip-path="url(#clip0_287_14661)">
<path d="M32.501 0.5V28.5H4.21094V0.5H32.501Z" stroke="white"/>
<path d="M14.3809 8.22363C19.9976 8.16771 25.606 10.1609 28.6582 14.2568C27.6999 16.05 25.925 17.4769 23.6406 18.4785C21.2488 19.5272 18.3404 20.0916 15.3574 20.1309C9.49155 20.2079 3.51912 18.2569 0.610352 14.209C3.35891 10.367 8.78332 8.27939 14.3809 8.22363Z" stroke="white"/>
<path d="M14.6182 7.96484C18.0849 7.96508 20.8994 10.7593 20.8994 14.1797C20.8993 17.5999 18.0848 20.3933 14.6182 20.3936C11.1513 20.3936 8.3361 17.6001 8.33594 14.1797C8.33594 10.7592 11.1512 7.96484 14.6182 7.96484Z" stroke="white"/>
</g>
<defs>
<clipPath id="clip0_287_14661">
<rect width="33" height="29" fill="white"/>
</clipPath>
</defs>
</svg>
