<svg width="623" height="419" viewBox="0 0 623 419" fill="none" xmlns="http://www.w3.org/2000/svg">
<path fill-rule="evenodd" clip-rule="evenodd" d="M177.351 313.368C174.425 313.368 171.908 313.11 169.8 312.594C167.692 312.077 165.907 310.916 164.444 309.109V311.561C164.444 316.208 164.057 320.273 163.282 323.758C162.508 327.243 161.239 330.147 159.475 332.47C157.711 334.793 155.366 336.536 152.441 337.697C149.515 338.859 145.901 339.44 141.599 339.44H136.823C135.963 339.44 135.533 339.01 135.533 338.149V327.824C135.533 326.963 135.963 326.533 136.823 326.533H139.663C142.158 326.533 144.094 326.103 145.471 325.242C146.848 324.382 147.859 323.113 148.504 321.435C149.149 319.757 149.536 317.735 149.666 315.369C149.795 313.002 149.859 310.27 149.859 307.173V261.095C149.859 260.235 150.289 259.805 151.15 259.805H163.153C164.014 259.805 164.444 260.235 164.444 261.095V292.588C164.444 295.169 165.412 297.148 167.348 298.525C169.284 299.902 171.887 300.59 175.157 300.59H183.675C185.826 300.59 187.397 300.096 188.386 299.106C189.376 298.116 189.87 296.331 189.87 293.75V261.095C189.87 260.235 190.301 259.805 191.161 259.805H203.164C204.025 259.805 204.455 260.235 204.455 261.095V297.105C204.455 302.698 203.294 306.807 200.97 309.431C198.647 312.056 194.775 313.368 189.354 313.368H177.351ZM1.30144 339.44C0.440984 339.44 0.0107575 339.01 0.0107575 338.149V327.824C0.0107575 326.963 0.440984 326.533 1.30144 326.533H4.14094C7.75486 326.533 10.3577 325.63 11.9496 323.823C13.5414 322.016 14.3373 319.262 14.3373 315.562V261.095C14.3373 260.235 14.7676 259.805 15.628 259.805H27.6314C28.4918 259.805 28.9221 260.235 28.9221 261.095V315.82C28.9221 331.567 21.307 339.44 6.07697 339.44H1.30144ZM15.499 246.898C14.6385 246.898 14.2083 246.468 14.2083 245.607V234.507C14.2083 233.647 14.6385 233.217 15.499 233.217H27.8895C28.75 233.217 29.1802 233.647 29.1802 234.507V245.607C29.1802 246.468 28.75 246.898 27.8895 246.898H15.499ZM59.7694 312.077C59.7694 312.938 59.3392 313.368 58.4787 313.368H46.4754C45.6149 313.368 45.1847 312.938 45.1847 312.077V226.892C45.1847 226.032 45.6149 225.602 46.4754 225.602H58.4787C59.3392 225.602 59.7694 226.032 59.7694 226.892V312.077ZM100.039 313.368C95.9946 313.368 92.4022 312.916 89.2616 312.013C86.1209 311.109 83.475 309.604 81.3238 307.495C79.1727 305.387 77.5163 302.655 76.3547 299.3C75.1931 295.944 74.6123 291.814 74.6123 286.909C74.6123 281.66 75.3222 277.164 76.7419 273.421C78.1617 269.678 80.0977 266.624 82.55 264.258C85.0023 261.891 87.8203 260.17 91.004 259.095C94.1877 258.019 97.5434 257.481 101.071 257.481C104.943 257.481 108.493 257.998 111.719 259.03C114.946 260.063 117.721 261.698 120.044 263.935C122.368 266.172 124.175 269.098 125.465 272.712C126.756 276.325 127.401 280.757 127.401 286.006V316.208C127.401 324.296 125.379 330.19 121.335 333.89C117.291 337.59 111.397 339.44 103.653 339.44H86.2284C85.368 339.44 84.9378 339.01 84.9378 338.149V327.824C84.9378 326.963 85.368 326.533 86.2284 326.533H101.329C103.05 326.533 104.642 326.382 106.105 326.081C107.568 325.78 108.815 325.156 109.848 324.21C110.881 323.263 111.676 321.93 112.236 320.209C112.795 318.488 113.075 316.208 113.075 313.368H100.039ZM101.2 270.388C97.2423 270.388 94.1877 271.851 92.0365 274.777C89.8854 277.702 88.8098 281.617 88.8098 286.522C88.8098 291.943 89.9069 295.643 92.1011 297.622C94.2952 299.601 97.4574 300.59 101.588 300.59H113.075V285.877C113.075 280.8 112.128 276.949 110.235 274.325C108.342 271.7 105.331 270.388 101.2 270.388ZM188.709 337.891C187.848 337.891 187.418 337.461 187.418 336.6V325.501C187.418 324.64 187.848 324.21 188.709 324.21H201.099C201.96 324.21 202.39 324.64 202.39 325.501V336.6C202.39 337.461 201.96 337.891 201.099 337.891H188.709ZM0 360.327C0 359.811 0.25814 359.553 0.774413 359.553H20.2315C25.7707 359.553 29.8793 360.822 32.536 363.361C35.2034 365.899 36.5371 369.276 36.5371 373.471C36.5371 376.45 35.9348 378.827 34.7302 380.591C33.5255 382.355 32.1058 383.678 30.4601 384.549V384.711C31.2883 385.012 32.1058 385.507 32.9232 386.163C33.7514 386.829 34.4935 387.668 35.1604 388.669C35.8272 389.669 36.3758 390.82 36.806 392.132C37.247 393.434 37.4621 394.886 37.4621 396.477C37.4621 401.705 35.9025 405.577 32.7726 408.094C29.6427 410.6 25.2114 411.858 19.4678 411.858H0.774413C0.25814 411.858 0 411.6 0 411.094V360.327ZM20.0056 381.323C22.3073 381.323 24.1358 380.699 25.4695 379.44C26.7925 378.182 27.4593 376.526 27.4593 374.471C27.4593 372.374 26.7925 370.696 25.4695 369.438C24.1358 368.179 22.3073 367.555 20.0056 367.555H9.54031C9.23915 367.555 9.07781 367.706 9.07781 368.018V380.86C9.07781 381.172 9.23915 381.323 9.54031 381.323H20.0056ZM9.07781 403.393C9.07781 403.705 9.23915 403.856 9.54031 403.856H20.4681C23.028 403.856 24.9855 403.189 26.3515 401.855C27.7067 400.521 28.3843 398.758 28.3843 396.553C28.3843 394.402 27.7067 392.659 26.3515 391.325C24.9855 389.992 23.028 389.325 20.4681 389.325H9.54031C9.23915 389.325 9.07781 389.475 9.07781 389.787V403.393ZM47.3143 411.858C46.7981 411.858 46.5399 411.6 46.5399 411.094V375.558C46.5399 375.041 46.7981 374.783 47.3143 374.783H54.3916C54.8971 374.783 55.1552 375.041 55.1552 375.558V378.709H55.2305C56.1017 377.268 57.3386 376.117 58.9197 375.246C60.5116 374.374 62.4906 373.933 64.8461 373.933C66.3304 373.933 67.7609 374.202 69.1161 374.74C70.4713 375.289 71.6437 376.042 72.6117 377.01C72.9774 377.375 73.0312 377.73 72.7731 378.096L68.6967 383.248C68.3847 383.657 68.0298 383.71 67.6211 383.398C66.7499 382.839 65.8679 382.398 64.9967 382.086C64.1255 381.785 63.179 381.635 62.1572 381.635C59.6941 381.635 57.9087 382.452 56.8116 384.087C55.7038 385.732 55.1552 388.045 55.1552 391.013V411.094C55.1552 411.6 54.8971 411.858 54.3916 411.858H47.3143ZM110.612 411.858C110.149 411.858 109.848 411.6 109.687 411.094L102.534 387.4H102.384L95.1557 411.094C95.0051 411.6 94.6932 411.858 94.2307 411.858H87.9278C87.4654 411.858 87.1534 411.6 87.0029 411.094L75.3114 375.558C75.1501 375.041 75.3329 374.783 75.8492 374.783H83.2276C83.7439 374.783 84.0773 375.041 84.2279 375.558L91.3804 400.016H91.5418L98.619 375.558C98.7696 375.041 99.103 374.783 99.6193 374.783H105.158C105.664 374.783 105.997 375.041 106.159 375.558L113.688 400.016H113.849L120.614 375.558C120.765 375.041 121.098 374.783 121.615 374.783H129.004C129.509 374.783 129.692 375.041 129.542 375.558L117.85 411.094C117.689 411.6 117.388 411.858 116.925 411.858H110.612ZM158.614 411.858C158.098 411.858 157.84 411.6 157.84 411.094V408.395H157.765C156.893 409.675 155.592 410.718 153.839 411.514C152.096 412.31 149.924 412.708 147.31 412.708C145.611 412.708 144.008 412.471 142.502 412.009C140.986 411.557 139.663 410.858 138.533 409.933C137.404 409.019 136.511 407.846 135.844 406.437C135.178 405.028 134.844 403.35 134.844 401.403C134.844 397.349 136.167 394.369 138.802 392.476C141.448 390.583 145.073 389.626 149.687 389.626H157.227C157.539 389.626 157.689 389.475 157.689 389.163V387.4C157.689 385.248 157.098 383.678 155.925 382.71C154.742 381.731 152.591 381.247 149.461 381.247C147.353 381.247 145.643 381.484 144.309 381.979C142.976 382.463 141.868 383.065 140.996 383.786C140.534 384.141 140.179 384.087 139.921 383.624L137.071 378.548C136.823 378.139 136.866 377.805 137.232 377.558C138.716 376.472 140.512 375.601 142.61 374.934C144.718 374.267 147.31 373.933 150.386 373.933C156.022 373.933 160.013 374.966 162.347 377.01C164.681 379.064 165.842 382.344 165.842 386.862V411.094C165.842 411.6 165.584 411.858 165.078 411.858H158.614ZM149.461 405.706C152.129 405.706 154.161 405.189 155.57 404.168C156.99 403.146 157.689 401.554 157.689 399.403V396.553C157.689 396.241 157.539 396.09 157.227 396.09H151.075C148.31 396.09 146.278 396.488 144.998 397.284C143.718 398.08 143.072 399.349 143.072 401.092C143.072 404.168 145.202 405.706 149.461 405.706ZM175.92 411.858C175.404 411.858 175.146 411.6 175.146 411.094V405.48C175.146 405.222 175.232 404.964 175.382 404.705L194.302 382.473V382.323H176.921C176.404 382.323 176.146 382.065 176.146 381.548V375.558C176.146 375.041 176.404 374.783 176.921 374.783H203.691C204.197 374.783 204.455 375.041 204.455 375.558V381.548C204.455 381.86 204.38 382.118 204.229 382.323L185.536 404.168V404.318H203.691C204.197 404.318 204.455 404.576 204.455 405.093V411.094C204.455 411.6 204.197 411.858 203.691 411.858H175.92Z" fill="white"/>
<path fill-rule="evenodd" clip-rule="evenodd" d="M622.176 6.13042V330.403C622.176 353.862 612.857 376.361 596.267 392.96C579.679 409.537 557.179 418.858 533.72 418.858H254.635C251.246 418.858 248.5 416.106 248.5 412.728V6.13042C248.5 2.75237 251.246 0 254.635 0H616.041C619.429 0 622.176 2.75237 622.176 6.13042ZM609.906 12.2818H260.769V406.597H533.72C553.926 406.597 573.304 398.569 587.592 384.264C601.88 369.981 609.906 350.609 609.906 330.403V12.2818ZM387.899 383.43H291.38C287.992 383.43 285.246 380.678 285.246 377.3V281.317C285.246 279.607 285.965 277.981 287.197 276.834L431.155 142.692C432.94 141.023 435.54 140.585 437.777 141.545C440.015 142.525 441.466 144.714 441.472 147.154L441.702 227.205H531.308C534.696 227.205 537.443 229.937 537.443 233.336V275.541C564.432 278.606 585.428 301.523 585.428 329.34C585.428 359.221 561.166 383.472 531.281 383.472C513.769 383.472 498.186 375.152 488.286 362.244V377.3C488.286 380.678 485.539 383.43 482.151 383.43H387.899ZM297.515 296.08V371.148H373.029L335.314 333.656L297.515 296.08ZM429.445 231.626L429.243 161.229L300.226 281.463L333.506 314.555V281.317C333.506 279.69 334.157 278.127 335.314 276.98L383.574 228.978C385.33 227.247 387.966 226.726 390.255 227.664C392.543 228.623 394.034 230.855 394.034 233.336V275.187H429.378L429.389 269.327L429.203 233.357C429.199 232.773 429.282 232.189 429.445 231.626ZM525.173 280.754V239.467C525.173 239.467 446.258 239.467 441.708 239.467L441.658 269.306L441.687 275.187H482.151C485.539 275.187 488.286 277.939 488.286 281.317V323.167H525.171L525.146 281.317C525.146 281.129 525.157 280.942 525.173 280.754ZM531.308 335.449C530.876 335.449 489.85 335.47 489.85 335.47C492.821 355.676 510.251 371.211 531.281 371.211C554.393 371.211 573.158 352.444 573.158 329.34C573.158 308.321 557.64 290.888 537.443 287.906V329.298C537.443 332.697 534.698 335.449 531.312 335.449H531.308ZM394.034 371.148H476.016V329.298V287.448H435.584C435.557 287.448 435.53 287.448 435.503 287.448H394.034V371.148ZM381.764 362.536V281.317C381.764 262.613 381.764 248.079 381.764 248.079L345.776 283.882V326.754L381.764 362.536Z" fill="white"/>
</svg>
