<svg width="25" height="25" viewBox="0 0 25 25" fill="none" xmlns="http://www.w3.org/2000/svg">
<g clip-path="url(#clip0_247_16489)">
<path d="M19.9665 3.1958C19.5163 3.1958 19.0694 3.36713 18.7267 3.70645C18.0446 4.38845 18.0446 5.50047 18.7267 6.18582C19.4121 6.86782 20.5243 6.86782 21.2064 6.18582C21.8885 5.50383 21.8885 4.39181 21.2064 3.70645C20.8637 3.36377 20.4168 3.1958 19.9665 3.1958ZM19.9665 7.24745C19.3752 7.24745 18.7872 7.02236 18.3369 6.57217C17.4398 5.67517 17.4398 4.21039 18.3369 3.31338C19.234 2.41637 20.699 2.41637 21.5962 3.31338C22.4933 4.21039 22.4933 5.67517 21.5962 6.57217C21.1459 7.02236 20.5579 7.24745 19.9665 7.24745Z" fill="white"/>
<path d="M12.1483 9.92206C11.4763 9.92206 10.848 10.1841 10.3742 10.6578C9.39645 11.6355 9.39645 13.2279 10.3742 14.2055C10.848 14.6792 11.4763 14.9379 12.1483 14.9379C12.8203 14.9379 13.4487 14.6759 13.9224 14.2055C14.9002 13.2279 14.9002 11.6355 13.9224 10.6578C13.4487 10.1841 12.8203 9.92206 12.1483 9.92206ZM12.1483 15.4922C11.3318 15.4922 10.5624 15.1731 9.98446 14.5952C8.79164 13.4026 8.79164 11.4608 9.98446 10.2681C10.5624 9.69025 11.3318 9.37109 12.1483 9.37109C12.9648 9.37109 13.7343 9.69025 14.3122 10.2681C15.505 11.4608 15.505 13.4026 14.3122 14.5952C13.7343 15.1731 12.9648 15.4922 12.1483 15.4922Z" fill="white"/>
<path d="M13.4562 7.25861C13.2243 7.25861 13.0395 7.40307 12.979 7.6248C12.9354 7.78942 12.9858 7.9742 13.1168 8.10522C13.1806 8.16906 13.2613 8.21609 13.352 8.23961C13.4797 8.2732 13.6141 8.2564 13.7317 8.19257C13.8459 8.12538 13.9299 8.02123 13.9635 7.89021C14.0005 7.76255 13.9837 7.62816 13.9165 7.51058C13.8493 7.39635 13.7451 7.31236 13.6141 7.27541C13.5603 7.26197 13.5066 7.25525 13.4562 7.25525M13.4831 8.81074C13.389 8.81074 13.2949 8.7973 13.2042 8.77378C13.0227 8.72675 12.8581 8.62932 12.7237 8.49493C12.4549 8.22617 12.3474 7.83982 12.4448 7.4837C12.5994 6.91593 13.1571 6.58669 13.7115 6.73451C14.0307 6.82186 14.2559 6.99656 14.3936 7.24181C14.5314 7.4837 14.5683 7.76926 14.4944 8.03803C14.4205 8.3068 14.2458 8.53525 14.0005 8.67299C13.8392 8.7637 13.6611 8.81074 13.4831 8.81074ZM9.7702 8.38407C9.9214 8.53525 10.16 8.57556 10.3548 8.4815C10.6069 8.36391 10.7177 8.06827 10.6035 7.81966C10.4892 7.57105 10.1936 7.46354 9.94492 7.57441C9.65932 7.71215 9.55851 7.99772 9.67948 8.24969C9.703 8.29672 9.73324 8.34375 9.77356 8.38071M10.1331 9.08622C9.85756 9.08622 9.58204 8.97871 9.38043 8.77378C9.29979 8.68979 9.22923 8.59572 9.17883 8.48822C8.92683 7.95404 9.13851 7.3426 9.66268 7.09399L9.71308 7.07047C10.2372 6.82858 10.8622 7.06375 11.1041 7.58785C11.3461 8.1153 11.1142 8.74018 10.5867 8.98207C10.4422 9.04926 10.2876 9.08286 10.1331 9.08286M16.1812 9.16013C16.0804 9.16013 15.9829 9.19037 15.8989 9.25084C15.6738 9.40874 15.62 9.71782 15.7746 9.94627C15.8149 10.0067 15.8351 10.0269 15.8552 10.0471C16.0266 10.2184 16.2954 10.2419 16.4937 10.1008C16.7188 9.94291 16.7725 9.63047 16.6146 9.40538C16.5138 9.26428 16.3996 9.19037 16.2685 9.16685C16.2383 9.16349 16.2081 9.16013 16.1812 9.16013ZM16.2047 10.7425C15.9359 10.7425 15.6671 10.6383 15.4621 10.4334C15.4184 10.3897 15.3815 10.3427 15.3445 10.2923C14.9884 9.78165 15.106 9.12654 15.5797 8.79394C15.8082 8.63268 16.0871 8.5722 16.366 8.6226C16.6415 8.67299 16.8834 8.82417 17.0447 9.05598C17.4009 9.56328 17.2833 10.2184 16.8095 10.551C16.6281 10.6787 16.4164 10.7425 16.2047 10.7425ZM7.77433 9.88244C7.58617 9.88244 7.40472 9.98995 7.31736 10.1714C7.21656 10.3864 7.25688 10.5913 7.40136 10.7358C7.44504 10.7794 7.49544 10.8164 7.55593 10.8433C7.79785 10.9541 8.10697 10.8366 8.22458 10.5846C8.2817 10.4636 8.28506 10.3293 8.24138 10.2083C8.19433 10.084 8.10361 9.98659 7.98265 9.92948C7.91545 9.89924 7.84489 9.88244 7.77433 9.88244ZM7.75417 11.4446C7.60969 11.4446 7.46184 11.4144 7.32072 11.3506C7.20312 11.2968 7.09896 11.2229 7.00824 11.1322C6.69911 10.8231 6.61847 10.3696 6.79655 9.97987C7.062 9.41546 7.69033 9.18701 8.21449 9.43226C8.46986 9.54984 8.66138 9.7615 8.75546 10.0202C8.8529 10.2822 8.83946 10.5678 8.72186 10.8231C8.54042 11.2128 8.15065 11.4446 7.75081 11.4446M17.0581 12.3988C16.8061 12.3988 16.581 12.6071 16.5575 12.8691C16.5441 13.0203 16.5945 13.1648 16.702 13.2723C16.7826 13.3529 16.8901 13.4066 17.0077 13.4167C17.2732 13.4402 17.5252 13.242 17.5521 12.9699C17.5655 12.7952 17.5286 12.6743 17.4479 12.5768C17.3606 12.476 17.2396 12.4122 17.1018 12.4021C17.0884 12.4021 17.0749 12.4021 17.0615 12.4021M17.0514 13.971C17.0178 13.971 16.9842 13.971 16.9506 13.9643C16.7087 13.9408 16.4802 13.8333 16.3089 13.662C16.0871 13.4402 15.9762 13.1312 16.0065 12.8187C16.0569 12.2341 16.5676 11.7974 17.1455 11.8478C17.4311 11.8713 17.6865 12.0023 17.8679 12.2173C18.0426 12.4256 18.1266 12.6911 18.1031 12.9665C18.046 13.5578 17.5857 13.9677 17.0548 13.9677M7.45848 13.2017C7.41816 13.2017 7.3812 13.2051 7.34088 13.2151C7.07544 13.279 6.9108 13.5511 6.97464 13.8165L6.98808 13.8736C7.0116 13.9543 7.05192 14.0248 7.1124 14.0853C7.23336 14.2096 7.42152 14.2566 7.59625 14.2096C7.72393 14.176 7.82809 14.092 7.89529 13.9744C7.96249 13.8568 7.97929 13.7191 7.94569 13.5881C7.91209 13.4537 7.83145 13.3428 7.72057 13.2723C7.63993 13.2252 7.55256 13.1983 7.46184 13.1983M7.46184 14.7807C7.18632 14.7807 6.91752 14.6732 6.72263 14.4783C6.59495 14.3507 6.50423 14.1894 6.45719 14.0147L6.44039 13.9509C6.30263 13.3865 6.64871 12.8187 7.2132 12.681C7.48536 12.6138 7.76761 12.6575 8.00617 12.8053C8.24474 12.9497 8.41274 13.1815 8.47994 13.4537C8.62778 14.0147 8.2985 14.5959 7.73737 14.7438C7.64665 14.7673 7.55256 14.7807 7.46184 14.7807ZM15.657 15.4123C15.5226 15.4123 15.3983 15.4627 15.3042 15.5568C15.069 15.7886 15.0656 16.1044 15.2572 16.2992L15.0656 16.4975L15.2605 16.3026C15.452 16.4941 15.7645 16.4975 15.9594 16.306L16.0031 16.2623C16.2013 16.0641 16.2013 15.7483 16.0065 15.5534C15.9124 15.4593 15.788 15.4089 15.6536 15.4089M15.61 17.0014C15.3412 17.0014 15.0757 16.9006 14.8741 16.7024L14.8607 16.689C14.4541 16.2724 14.4642 15.6072 14.8808 15.204C15.3445 14.7404 16.0031 14.774 16.3996 15.1704C16.8095 15.5803 16.8095 16.2455 16.3996 16.6554L16.3492 16.7057C16.1442 16.904 15.8788 17.0048 15.61 17.0048M9.00075 16.8032C9.02091 16.8233 9.04107 16.8401 9.06459 16.8569C9.21243 16.9611 9.34011 16.988 9.46443 16.9644C9.59212 16.9409 9.70636 16.8636 9.78364 16.7528C9.85756 16.6453 9.88444 16.5143 9.86092 16.3799C9.83404 16.2455 9.75676 16.1279 9.64924 16.0506C9.42411 15.8894 9.11163 15.9398 8.95035 16.1615C8.80922 16.3597 8.82938 16.6318 9.00075 16.8032ZM9.37371 17.5221C9.16539 17.5221 8.96379 17.4583 8.7857 17.3373L8.73866 17.3038C8.69162 17.2702 8.64794 17.2332 8.60762 17.1929C8.24138 16.8267 8.19769 16.2589 8.49674 15.839C8.8361 15.3686 9.49131 15.2611 9.96172 15.5971C10.1868 15.755 10.3448 15.9935 10.3985 16.2724C10.4523 16.5546 10.3952 16.8368 10.2339 17.0652C10.0726 17.2937 9.8374 17.4516 9.5686 17.502C9.50475 17.5154 9.43755 17.5221 9.37371 17.5221ZM12.5792 16.8435C12.5792 16.8435 12.549 16.8435 12.5355 16.8435C12.4011 16.8536 12.2802 16.914 12.1928 17.0148C12.1054 17.1156 12.0651 17.2433 12.0752 17.3777C12.0853 17.4952 12.1357 17.6061 12.2197 17.6901C12.3238 17.7943 12.4616 17.8446 12.6094 17.8346C12.7842 17.8211 12.9018 17.7573 12.9824 17.6599C13.063 17.5591 13.1034 17.4281 13.0933 17.2937C13.0832 17.166 13.0194 17.0484 12.9186 16.9644C12.8245 16.8838 12.7035 16.8401 12.5792 16.8401M12.596 18.3889C12.2869 18.3889 12.0248 18.278 11.8299 18.0832C11.6518 17.9051 11.5443 17.6699 11.5241 17.4213C11.504 17.1425 11.5913 16.8704 11.7728 16.6587C11.9542 16.4471 12.2096 16.316 12.4885 16.2959C12.7674 16.2724 13.053 16.3631 13.2714 16.5478C13.4864 16.7293 13.6175 16.9779 13.641 17.2534C13.6645 17.5322 13.5839 17.801 13.4091 18.016C13.231 18.231 12.9824 18.3654 12.7002 18.3889C12.6632 18.3889 12.6262 18.3923 12.5926 18.3923" fill="white"/>
<path d="M21.6759 1.669C21.6255 1.669 21.5718 1.68916 21.5348 1.72611C21.4575 1.80338 21.4575 1.93105 21.5348 2.00832C21.6087 2.08223 21.7431 2.08223 21.817 2.00832C21.8943 1.93105 21.8943 1.80338 21.817 1.72611C21.7767 1.6858 21.7263 1.669 21.6759 1.669ZM21.6759 2.62312C21.4844 2.62312 21.2895 2.54921 21.145 2.40139C20.8527 2.1091 20.8527 1.63204 21.145 1.3364C21.4373 1.04412 21.9178 1.04412 22.2102 1.3364C22.5025 1.62868 22.5025 2.10574 22.2102 2.40139C22.0623 2.54921 21.8708 2.62312 21.6793 2.62312" fill="white"/>
<path d="M22.8204 2.81744C22.77 2.81744 22.7163 2.83759 22.6793 2.87455C22.602 2.95182 22.602 3.07948 22.6793 3.15675C22.7532 3.23402 22.8876 3.23402 22.9616 3.15675C23.0388 3.07948 23.0388 2.95182 22.9616 2.87455C22.9212 2.83423 22.8708 2.81744 22.8204 2.81744ZM22.8204 3.77156C22.6289 3.77156 22.434 3.69765 22.2896 3.54982C21.9972 3.25754 21.9972 2.78048 22.2896 2.48484C22.5819 2.19255 23.0624 2.19255 23.3547 2.48484C23.647 2.77712 23.647 3.25418 23.3547 3.54982C23.2068 3.69765 23.0153 3.77156 22.8238 3.77156" fill="white"/>
<path d="M23.3204 1.09087C23.27 1.09087 23.2163 1.11103 23.1793 1.14799C23.102 1.22526 23.102 1.35292 23.1793 1.43019C23.2566 1.50746 23.3843 1.50746 23.4616 1.43019C23.5388 1.35292 23.5388 1.22526 23.4616 1.14799C23.4212 1.10767 23.3708 1.09087 23.3204 1.09087ZM23.3204 2.04499C23.1289 2.04499 22.934 1.97108 22.7896 1.82326C22.4972 1.53098 22.4972 1.05392 22.7896 0.758275C23.0819 0.465992 23.559 0.465992 23.8547 0.758275C24.147 1.05056 24.147 1.52762 23.8547 1.82326C23.7068 1.97108 23.5153 2.04499 23.3238 2.04499" fill="white"/>
<path d="M19.9183 18.4215C19.4512 18.4215 19.0111 18.6029 18.6784 18.9355C18.3458 19.2648 18.1643 19.7049 18.1643 20.1752C18.1643 20.6456 18.3458 21.0823 18.6784 21.4149C19.3403 22.0767 20.4962 22.0767 21.1581 21.4149C21.4908 21.0857 21.6722 20.6456 21.6722 20.1752C21.6722 19.7049 21.4908 19.2681 21.1581 18.9355C20.8288 18.6063 20.3887 18.4215 19.9183 18.4215ZM19.9183 22.4765C19.3034 22.4765 18.7255 22.238 18.2887 21.8013C17.8518 21.3645 17.6133 20.7867 17.6133 20.1719C17.6133 19.5571 17.8518 18.9792 18.2887 18.5425C18.7255 18.1057 19.3034 17.8672 19.9183 17.8672C20.5332 17.8672 21.1111 18.1057 21.5479 18.5425C21.9847 18.9792 22.2233 19.5571 22.2233 20.1719C22.2233 20.7867 21.9847 21.3645 21.5479 21.8013C21.1111 22.2346 20.5332 22.4765 19.9183 22.4765Z" fill="white"/>
<path d="M22.9923 21.6841C22.9419 21.6841 22.8882 21.7042 22.8512 21.7412C22.7739 21.8185 22.7739 21.9461 22.8512 22.0234C22.9285 22.1007 23.0562 22.1007 23.1334 22.0234C23.2107 21.9461 23.2107 21.8185 23.1334 21.7412C23.0965 21.7009 23.0427 21.6841 22.9923 21.6841ZM22.9923 22.6348C22.8008 22.6348 22.6059 22.5609 22.4614 22.4131C22.1691 22.1208 22.1691 21.6438 22.4614 21.3481C22.7538 21.0558 23.2309 21.0558 23.5266 21.3481C23.8189 21.6404 23.8189 22.1175 23.5266 22.4131C23.3787 22.5609 23.1872 22.6348 22.9957 22.6348" fill="white"/>
<path d="M21.8478 22.8286C21.7974 22.8286 21.7436 22.8488 21.7067 22.8857C21.6294 22.963 21.6294 23.0907 21.7067 23.1679C21.7839 23.2452 21.9116 23.2452 21.9889 23.1679C22.0259 23.131 22.046 23.0806 22.046 23.0268C22.046 22.9731 22.0259 22.9227 21.9889 22.8857C21.9519 22.8454 21.8982 22.8286 21.8478 22.8286ZM21.8478 23.7794C21.6563 23.7794 21.4614 23.7055 21.3169 23.5576C21.0246 23.2654 21.0246 22.7883 21.3169 22.4927C21.6092 22.2004 22.0864 22.2004 22.382 22.4927C22.6744 22.7849 22.6744 23.262 22.382 23.5576C22.2342 23.7055 22.0427 23.7794 21.8511 23.7794" fill="white"/>
<path d="M23.5783 23.3213C23.5279 23.3213 23.4741 23.3415 23.4371 23.3785C23.3599 23.4557 23.3599 23.5834 23.4371 23.6607C23.5111 23.7379 23.6455 23.7379 23.7194 23.6607C23.7967 23.5834 23.7967 23.4557 23.7194 23.3785C23.6791 23.3381 23.6287 23.3213 23.5783 23.3213ZM23.5783 24.2755C23.3867 24.2755 23.1919 24.2016 23.0474 24.0537C22.755 23.7614 22.755 23.2844 23.0474 22.9887C23.3397 22.6965 23.8202 22.6965 24.1125 22.9887C24.4048 23.281 24.4048 23.7581 24.1125 24.0537C23.9647 24.2016 23.7731 24.2755 23.5816 24.2755" fill="white"/>
<path d="M3.48785 18.9226C2.80576 19.6046 2.80576 20.7166 3.48785 21.4019C4.1733 22.0839 5.28548 22.0839 5.96757 21.4019C6.64966 20.7199 6.64966 19.6079 5.96757 18.9226C5.28548 18.2372 4.16994 18.2406 3.48785 18.9226ZM4.72435 22.4636C4.13298 22.4636 3.54497 22.2385 3.09473 21.7883C2.19759 20.8913 2.19759 19.4265 3.09473 18.5295C3.99186 17.6325 5.45684 17.6291 6.35397 18.5295C7.25111 19.4265 7.25111 20.8913 6.35397 21.7883C5.90373 22.2385 5.31572 22.4636 4.72435 22.4636Z" fill="white"/>
<path d="M3.01966 23.0362C2.9659 23.0362 2.9155 23.0563 2.87854 23.0933C2.80126 23.1706 2.80126 23.2982 2.87854 23.3755C2.95582 23.4528 3.0835 23.4528 3.16078 23.3755C3.23807 23.2982 3.23807 23.1706 3.16078 23.0933C3.12382 23.0563 3.07342 23.0362 3.01966 23.0362ZM3.01966 23.9903C2.82814 23.9903 2.63326 23.9164 2.48877 23.7686C2.19645 23.4763 2.19645 22.9992 2.48877 22.7036C2.7811 22.4113 3.26159 22.4113 3.55391 22.7036C3.84623 22.9959 3.84623 23.4729 3.55391 23.7686C3.40607 23.9164 3.21455 23.9903 3.02302 23.9903" fill="white"/>
<path d="M1.87122 21.8877C1.81746 21.8877 1.76706 21.9079 1.7301 21.9449C1.65282 22.0221 1.65282 22.1498 1.7301 22.2271C1.80738 22.3043 1.93507 22.3043 2.01235 22.2271C2.08963 22.1498 2.08963 22.0221 2.01235 21.9449C1.97539 21.9079 1.92499 21.8877 1.87122 21.8877ZM1.87122 22.8419C1.6797 22.8419 1.48482 22.768 1.34034 22.6201C1.04801 22.3279 1.04801 21.8508 1.34034 21.5552C1.63266 21.2629 2.11315 21.2629 2.40547 21.5552C2.6978 21.8474 2.6978 22.3245 2.40547 22.6201C2.25763 22.768 2.06611 22.8419 1.87458 22.8419" fill="white"/>
<path d="M1.37513 23.6182C1.32473 23.6182 1.27097 23.6384 1.23401 23.6753C1.15673 23.7526 1.15673 23.8803 1.23401 23.9575C1.31129 24.0348 1.43897 24.0348 1.51625 23.9575C1.59353 23.8803 1.59353 23.7526 1.51625 23.6753C1.47929 23.635 1.42553 23.6182 1.37513 23.6182ZM1.37513 24.5723C1.18361 24.5723 0.988725 24.4984 0.844243 24.3506C0.551919 24.0583 0.551919 23.5813 0.844243 23.2856C1.13993 22.9933 1.61705 22.9933 1.90938 23.2856C2.2017 23.5779 2.2017 24.055 1.90938 24.3506C1.76154 24.4984 1.57001 24.5723 1.37849 24.5723" fill="white"/>
<path d="M4.70734 3.19886C4.24029 3.19886 3.80012 3.38028 3.46748 3.71288C3.13819 4.04548 2.95339 4.48222 2.95339 4.95256C2.95339 5.4229 3.13483 5.85965 3.46748 6.19225C4.12941 6.85408 5.28191 6.85408 5.9472 6.19225C6.27648 5.86301 6.46128 5.4229 6.46128 4.95256C6.46128 4.48222 6.27984 4.04548 5.9472 3.71288C5.61455 3.38364 5.17438 3.19886 4.70734 3.19886ZM4.70734 7.25387C4.09245 7.25387 3.51452 7.01534 3.07771 6.5786C2.64091 6.14185 2.40234 5.56401 2.40234 4.9492C2.40234 4.3344 2.64091 3.75655 3.07771 3.31981C3.51452 2.88306 4.09245 2.64453 4.70734 2.64453C5.32223 2.64453 5.90016 2.88306 6.33696 3.31981C6.77377 3.75319 7.01233 4.3344 7.01233 4.9492C7.01233 5.56401 6.77377 6.14185 6.33696 6.5786C5.90016 7.01198 5.32223 7.25387 4.70734 7.25387Z" fill="white"/>
<path d="M1.62904 3.03955C1.57864 3.03955 1.52488 3.0597 1.48792 3.09666C1.41063 3.17393 1.41063 3.30159 1.48792 3.37886C1.5652 3.45613 1.69288 3.45613 1.77016 3.37886C1.84744 3.30159 1.84744 3.17393 1.77016 3.09666C1.72984 3.05634 1.67944 3.03955 1.62904 3.03955ZM1.62904 3.99031C1.43751 3.99031 1.24263 3.9164 1.09815 3.76857C0.805825 3.47629 0.805825 2.99923 1.09815 2.70359C1.39047 2.4113 1.8676 2.4113 2.16329 2.70359C2.45897 2.99587 2.45561 3.47293 2.16329 3.76857C2.01544 3.9164 1.82392 3.99031 1.6324 3.99031" fill="white"/>
<path d="M2.77747 1.89501C2.72707 1.89501 2.67331 1.91517 2.63635 1.95213C2.55907 2.0294 2.55907 2.15706 2.63635 2.23433C2.71363 2.3116 2.84132 2.3116 2.9186 2.23433C2.99588 2.15706 2.99588 2.0294 2.9186 1.95213C2.87828 1.91181 2.82788 1.89501 2.77747 1.89501ZM2.77747 2.84578C2.58595 2.84578 2.39107 2.77186 2.24659 2.62404C1.95426 2.33176 1.95426 1.8547 2.24659 1.55906C2.53891 1.26677 3.01604 1.26677 3.31172 1.55906C3.60405 1.85134 3.60405 2.3284 3.31172 2.62404C3.16388 2.77186 2.97236 2.84578 2.78083 2.84578" fill="white"/>
<path d="M1.04953 1.39556C0.995765 1.39556 0.945365 1.41572 0.908404 1.45603C0.871444 1.49299 0.847923 1.54338 0.847923 1.59714C0.847923 1.65089 0.868084 1.70128 0.908404 1.73824C0.982325 1.81215 1.11673 1.81215 1.19065 1.73824C1.22761 1.70128 1.25113 1.65089 1.25113 1.59714C1.25113 1.54338 1.23097 1.49299 1.19065 1.45603C1.15369 1.41908 1.10329 1.39556 1.04953 1.39556ZM1.04953 2.34968C0.858003 2.34968 0.66312 2.27577 0.518638 2.12795C0.222954 1.83567 0.222954 1.35861 0.518638 1.06296C0.810963 0.770679 1.29145 0.770679 1.58377 1.06296C1.8761 1.35525 1.8761 1.83231 1.58377 2.12795C1.43593 2.27577 1.24441 2.34968 1.05289 2.34968" fill="white"/>
</g>
<defs>
<clipPath id="clip0_247_16489">
<rect width="24.0311" height="24.0311" fill="white" transform="translate(0.296875 0.539062)"/>
</clipPath>
</defs>
</svg>
