<svg width="22" height="26" viewBox="0 0 22 26" fill="none" xmlns="http://www.w3.org/2000/svg">
<mask id="path-1-inside-1_247_16465" fill="white">
<path fill-rule="evenodd" clip-rule="evenodd" d="M21.1031 25.2855H0.671875V0.652344H21.1031V25.2855ZM16.4089 1.22022H1.23836V24.7176H20.5331V5.53442H16.4089V1.22022ZM20.5331 4.54273V1.22022H17.3587L20.5331 4.54273ZM4.07073 20.1243H17.5557V20.6922H4.07073V20.1243ZM6.38843 5.41733H14.9374V5.98518H6.38843V5.41733ZM6.38843 7.47737H14.9374V8.04522H6.38843V7.47737ZM6.39535 9.53741H14.9374V10.1053H6.39535V9.53741ZM4.07073 18.1413H17.5557V18.7092H4.07073V18.1413ZM4.07073 14.0212H17.5557V14.5891H4.07073V14.0212ZM4.07073 16.0813H17.5557V16.6491H4.07073V16.0813ZM16.9788 4.96657H20.1532L16.9788 1.6437V4.96657Z"/>
</mask>
<path fill-rule="evenodd" clip-rule="evenodd" d="M21.1031 25.2855H0.671875V0.652344H21.1031V25.2855ZM16.4089 1.22022H1.23836V24.7176H20.5331V5.53442H16.4089V1.22022ZM20.5331 4.54273V1.22022H17.3587L20.5331 4.54273ZM4.07073 20.1243H17.5557V20.6922H4.07073V20.1243ZM6.38843 5.41733H14.9374V5.98518H6.38843V5.41733ZM6.38843 7.47737H14.9374V8.04522H6.38843V7.47737ZM6.39535 9.53741H14.9374V10.1053H6.39535V9.53741ZM4.07073 18.1413H17.5557V18.7092H4.07073V18.1413ZM4.07073 14.0212H17.5557V14.5891H4.07073V14.0212ZM4.07073 16.0813H17.5557V16.6491H4.07073V16.0813ZM16.9788 4.96657H20.1532L16.9788 1.6437V4.96657Z" fill="#9B4F9F"/>
<path d="M21.1031 25.2855V26.1141H21.9317V25.2855H21.1031ZM0.671875 25.2855H-0.156783V26.1141H0.671875V25.2855ZM0.671875 0.652344V-0.176314H-0.156783V0.652344H0.671875ZM21.1031 0.652344H21.9317V-0.176314H21.1031V0.652344ZM16.4089 1.22022H17.2375V0.39156H16.4089V1.22022ZM1.23836 1.22022V0.39156H0.409699V1.22022H1.23836ZM1.23836 24.7176H0.409699V25.5463H1.23836V24.7176ZM20.5331 24.7176V25.5463H21.3618V24.7176H20.5331ZM20.5331 5.53442H21.3618V4.70576H20.5331V5.53442ZM16.4089 5.53442H15.5802V6.36308H16.4089V5.53442ZM20.5331 4.54273L19.934 5.11517L21.3618 6.60962V4.54273H20.5331ZM20.5331 1.22022H21.3618V0.39156H20.5331V1.22022ZM17.3587 1.22022V0.39156H15.421L16.7596 1.79266L17.3587 1.22022ZM4.07073 20.1243V19.2957H3.24207V20.1243H4.07073ZM17.5557 20.1243H18.3843V19.2957H17.5557V20.1243ZM17.5557 20.6922V21.5208H18.3843V20.6922H17.5557ZM4.07073 20.6922H3.24207V21.5208H4.07073V20.6922ZM6.38843 5.41733V4.58867H5.55978V5.41733H6.38843ZM14.9374 5.41733H15.7661V4.58867H14.9374V5.41733ZM14.9374 5.98518V6.81384H15.7661V5.98518H14.9374ZM6.38843 5.98518H5.55978V6.81384H6.38843V5.98518ZM6.38843 7.47737V6.64871H5.55978V7.47737H6.38843ZM14.9374 7.47737H15.7661V6.64871H14.9374V7.47737ZM14.9374 8.04522V8.87388H15.7661V8.04522H14.9374ZM6.38843 8.04522H5.55978V8.87388H6.38843V8.04522ZM6.39535 9.53741V8.70875H5.56669V9.53741H6.39535ZM14.9374 9.53741H15.7661V8.70875H14.9374V9.53741ZM14.9374 10.1053V10.9339H15.7661V10.1053H14.9374ZM6.39535 10.1053H5.56669V10.9339H6.39535V10.1053ZM4.07073 18.1413V17.3126H3.24207V18.1413H4.07073ZM17.5557 18.1413H18.3843V17.3126H17.5557V18.1413ZM17.5557 18.7092V19.5378H18.3843V18.7092H17.5557ZM4.07073 18.7092H3.24207V19.5378H4.07073V18.7092ZM4.07073 14.0212V13.1926H3.24207V14.0212H4.07073ZM17.5557 14.0212H18.3843V13.1926H17.5557V14.0212ZM17.5557 14.5891V15.4177H18.3843V14.5891H17.5557ZM4.07073 14.5891H3.24207V15.4177H4.07073V14.5891ZM4.07073 16.0813V15.2526H3.24207V16.0813H4.07073ZM17.5557 16.0813H18.3843V15.2526H17.5557V16.0813ZM17.5557 16.6491V17.4778H18.3843V16.6491H17.5557ZM4.07073 16.6491H3.24207V17.4778H4.07073V16.6491ZM16.9788 4.96657H16.1501V5.79523H16.9788V4.96657ZM20.1532 4.96657V5.79523H22.0908L20.7524 4.39416L20.1532 4.96657ZM16.9788 1.6437L17.578 1.07129L16.1501 -0.42335V1.6437H16.9788ZM21.1031 25.2855V24.4568H0.671875V25.2855V26.1141H21.1031V25.2855ZM0.671875 25.2855H1.50053V0.652344H0.671875H-0.156783V25.2855H0.671875ZM0.671875 0.652344V1.481H21.1031V0.652344V-0.176314H0.671875V0.652344ZM21.1031 0.652344H20.2744V25.2855H21.1031H21.9317V0.652344H21.1031ZM16.4089 1.22022V0.39156H1.23836V1.22022V2.04888H16.4089V1.22022ZM1.23836 1.22022H0.409699V24.7176H1.23836H2.06701V1.22022H1.23836ZM1.23836 24.7176V25.5463H20.5331V24.7176V23.889H1.23836V24.7176ZM20.5331 24.7176H21.3618V5.53442H20.5331H19.7045V24.7176H20.5331ZM20.5331 5.53442V4.70576H16.4089V5.53442V6.36308H20.5331V5.53442ZM16.4089 5.53442H17.2375V1.22022H16.4089H15.5802V5.53442H16.4089ZM20.5331 4.54273H21.3618V1.22022H20.5331H19.7045V4.54273H20.5331ZM20.5331 1.22022V0.39156H17.3587V1.22022V2.04888H20.5331V1.22022ZM17.3587 1.22022L16.7596 1.79266L19.934 5.11517L20.5331 4.54273L21.1323 3.97029L17.9579 0.647778L17.3587 1.22022ZM4.07073 20.1243V20.953H17.5557V20.1243V19.2957H4.07073V20.1243ZM17.5557 20.1243H16.727V20.6922H17.5557H18.3843V20.1243H17.5557ZM17.5557 20.6922V19.8635H4.07073V20.6922V21.5208H17.5557V20.6922ZM4.07073 20.6922H4.89938V20.1243H4.07073H3.24207V20.6922H4.07073ZM6.38843 5.41733V6.24599H14.9374V5.41733V4.58867H6.38843V5.41733ZM14.9374 5.41733H14.1087V5.98518H14.9374H15.7661V5.41733H14.9374ZM14.9374 5.98518V5.15653H6.38843V5.98518V6.81384H14.9374V5.98518ZM6.38843 5.98518H7.21709V5.41733H6.38843H5.55978V5.98518H6.38843ZM6.38843 7.47737V8.30603H14.9374V7.47737V6.64871H6.38843V7.47737ZM14.9374 7.47737H14.1087V8.04522H14.9374H15.7661V7.47737H14.9374ZM14.9374 8.04522V7.21657H6.38843V8.04522V8.87388H14.9374V8.04522ZM6.38843 8.04522H7.21709V7.47737H6.38843H5.55978V8.04522H6.38843ZM6.39535 9.53741V10.3661H14.9374V9.53741V8.70875H6.39535V9.53741ZM14.9374 9.53741H14.1087V10.1053H14.9374H15.7661V9.53741H14.9374ZM14.9374 10.1053V9.2766H6.39535V10.1053V10.9339H14.9374V10.1053ZM6.39535 10.1053H7.22401V9.53741H6.39535H5.56669V10.1053H6.39535ZM4.07073 18.1413V18.97H17.5557V18.1413V17.3126H4.07073V18.1413ZM17.5557 18.1413H16.727V18.7092H17.5557H18.3843V18.1413H17.5557ZM17.5557 18.7092V17.8805H4.07073V18.7092V19.5378H17.5557V18.7092ZM4.07073 18.7092H4.89938V18.1413H4.07073H3.24207V18.7092H4.07073ZM4.07073 14.0212V14.8499H17.5557V14.0212V13.1926H4.07073V14.0212ZM17.5557 14.0212H16.727V14.5891H17.5557H18.3843V14.0212H17.5557ZM17.5557 14.5891V13.7604H4.07073V14.5891V15.4177H17.5557V14.5891ZM4.07073 14.5891H4.89938V14.0212H4.07073H3.24207V14.5891H4.07073ZM4.07073 16.0813V16.9099H17.5557V16.0813V15.2526H4.07073V16.0813ZM17.5557 16.0813H16.727V16.6491H17.5557H18.3843V16.0813H17.5557ZM17.5557 16.6491V15.8205H4.07073V16.6491V17.4778H17.5557V16.6491ZM4.07073 16.6491H4.89938V16.0813H4.07073H3.24207V16.6491H4.07073ZM16.9788 4.96657V5.79523H20.1532V4.96657V4.13791H16.9788V4.96657ZM20.1532 4.96657L20.7524 4.39416L17.578 1.07129L16.9788 1.6437L16.3796 2.21611L19.554 5.53898L20.1532 4.96657ZM16.9788 1.6437H16.1501V4.96657H16.9788H17.8075V1.6437H16.9788Z" fill="white" mask="url(#path-1-inside-1_247_16465)"/>
</svg>
