<svg width="15" height="24" viewBox="0 0 15 24" fill="none" xmlns="http://www.w3.org/2000/svg">
<g clip-path="url(#clip0_247_16482)">
<path d="M1.22697 3.05835L6.09513 7.88188L7.51051 9.24673L8.95128 7.86582L13.829 3.05514L11.909 1.11223L9.70975 3.33774L7.51051 1.11223L5.33032 3.31847L3.15012 1.11223L1.23015 3.05514L1.22697 3.05835ZM7.51051 9.97572L5.73335 8.26083L0.484375 3.06156L3.14694 0.367188L5.32714 2.57342L7.51051 0.367188L9.70975 2.59269L11.909 0.367188L14.5716 3.06156L9.31306 8.24798L7.50734 9.97572H7.51051Z" fill="white"/>
<path d="M1.22697 20.8822L3.14694 22.8251L5.34618 20.5996L7.54542 22.8251L9.72879 20.6189L11.909 22.8251L13.829 20.8822L8.9608 16.0587L7.54542 14.6938L6.10148 16.0747L1.22697 20.8854V20.8822ZM11.909 23.5734L9.72879 21.3671L7.54542 23.5734L5.34618 21.3479L3.14694 23.5734L0.484375 20.879L5.74287 15.6926L7.54859 13.9648L9.32576 15.6797L14.5747 20.879L11.9122 23.5734H11.909Z" fill="white"/>
<path d="M2.04485 11.9982L7.52549 17.5443L13.0061 11.9982L7.52549 6.45208L2.04485 11.9982ZM7.52866 18.2925L1.30859 11.9982L7.52549 5.70703L13.7424 11.9982L7.52549 18.2893L7.52866 18.2925Z" fill="white"/>
<path d="M5.72844 11.9683L7.52464 13.7859L9.32085 11.9683L7.52464 10.1506L5.72844 11.9683ZM7.52782 14.5342L4.99219 11.9683L7.52782 9.40234L10.0634 11.9683L7.52782 14.5342Z" fill="white"/>
</g>
<defs>
<clipPath id="clip0_247_16482">
<rect width="14.0872" height="23.2024" fill="white" transform="translate(0.484375 0.367188)"/>
</clipPath>
</defs>
</svg>
