<svg width="68" height="52" viewBox="0 0 68 52" fill="none" xmlns="http://www.w3.org/2000/svg">
<path d="M7.91523 0.324219H67.3125V51.8898H7.91523V0.324219Z" fill="#4F51A2"/>
<path d="M37.625 0.199219V25.5361H67.3237V0.32748L37.625 0.199219Z" fill="#00A7B3"/>
<path d="M67.3237 25.5352V51.8935L37.625 25.5352H67.3237Z" fill="#201D40"/>
<path d="M37.625 25.5352V51.8935H67.3237L37.625 25.5352Z" fill="#6ACDDA"/>
<path d="M59.7054 25.5923C46.9888 9.80294 11.7886 10.6307 0.40625 25.5923C12.4405 41.381 51.6815 40.2491 59.7054 25.5923Z" fill="#F8BF00"/>
<path d="M30.0484 37.0133C22.759 37.0133 16.8281 31.8645 16.8281 25.5363C16.8281 19.208 22.759 14.0586 30.0484 14.0586C37.3379 14.0586 43.2702 19.208 43.2702 25.5363C43.2702 31.8645 37.3379 37.0133 30.0484 37.0133Z" fill="#FC3B41"/>
</svg>
