<svg width="52" height="52" viewBox="0 0 52 52" fill="none" xmlns="http://www.w3.org/2000/svg">
<path d="M45.086 13.0702C43.4208 14.7354 40.7198 14.7354 39.0546 13.0702C37.3894 11.405 37.3894 8.70394 39.0546 7.03874C40.7198 5.37354 43.4208 5.37354 45.086 7.03874C46.7512 8.70394 46.7512 11.405 45.086 13.0702Z" fill="#5151A3"/>
<path d="M29.7641 29.9313C27.4783 32.217 23.7717 32.217 21.4859 29.9313C19.2002 27.6455 19.2002 23.9389 21.4859 21.6531C23.7717 19.3674 27.4783 19.3674 29.7641 21.6531C32.0498 23.9389 32.0498 27.6455 29.7641 29.9313Z" fill="#EF3D45"/>
<path fill-rule="evenodd" clip-rule="evenodd" d="M17.9032 36.0769C17.0152 35.189 16.8745 33.7634 17.6305 32.7103C18.4719 31.5386 20.1025 31.2703 21.2742 32.1106C22.4526 32.9309 22.7907 34.5948 21.966 35.7776C21.1412 36.9604 19.556 37.2808 18.3732 36.4561L18.2291 36.3541C18.1116 36.2687 18.0029 36.1767 17.9032 36.0769Z" fill="#1DA8B2"/>
<path fill-rule="evenodd" clip-rule="evenodd" d="M13.9401 30.4041C13.6341 30.0982 13.4024 29.708 13.2805 29.2557L13.2306 29.0595C12.8903 27.6583 13.7505 26.246 15.1517 25.9068C16.554 25.5654 17.9652 26.4256 18.3044 27.8279C18.678 29.2202 17.861 30.6913 16.4675 31.0637C15.5275 31.3154 14.5741 31.0382 13.9401 30.4041Z" fill="#1DA8B2"/>
<path fill-rule="evenodd" clip-rule="evenodd" d="M24.6711 37.9633C24.2454 37.5376 23.9638 36.9645 23.914 36.3182C23.8042 34.8804 24.8795 33.6256 26.3173 33.5136C27.755 33.3906 29.0786 34.4525 29.2017 35.8881C29.3247 37.3248 28.3193 38.5841 26.8826 38.7071L26.7186 38.7215C25.9271 38.7825 25.191 38.4832 24.6711 37.9633Z" fill="#1DA8B2"/>
<path fill-rule="evenodd" clip-rule="evenodd" d="M14.5352 23.3508C13.8024 22.6169 13.553 21.5084 14.0142 20.5029C14.0175 20.4952 14.0651 20.3932 14.0685 20.3865C14.6815 19.0818 16.2434 18.5042 17.5482 19.115C18.8551 19.7258 19.4238 21.2634 18.813 22.5692C18.2022 23.8718 16.6248 24.5003 15.32 23.8962C15.0196 23.7565 14.7558 23.5703 14.5352 23.3508Z" fill="#1DA8B2"/>
<path fill-rule="evenodd" clip-rule="evenodd" d="M31.0465 35.0767L31.021 35.0512C30.0156 34.018 30.0377 32.3652 31.0709 31.3587L31.1928 31.2367C32.2116 30.218 33.8655 30.218 34.8854 31.2367C35.9052 32.2566 35.9052 33.9105 34.8854 34.9293L34.7136 35.1011C33.6893 36.0988 32.0553 36.0855 31.0465 35.0767Z" fill="#1DA8B2"/>
<path fill-rule="evenodd" clip-rule="evenodd" d="M19.5156 18.3954C19.316 18.1958 19.1464 17.9597 19.0189 17.6915C18.4026 16.3889 18.9081 14.8547 20.2117 14.2373L20.3702 14.1641C21.6816 13.5633 23.2292 14.1375 23.8322 15.4489C24.433 16.7603 23.8566 18.31 22.5463 18.9109C21.512 19.4008 20.2849 19.1658 19.5156 18.3954Z" fill="#1DA8B2"/>
<path fill-rule="evenodd" clip-rule="evenodd" d="M34.0941 28.6905C33.562 28.1584 33.2627 27.4013 33.3403 26.5942C33.4633 25.1565 34.7326 24.0346 36.1704 24.1577C37.6059 24.2807 38.6768 25.4879 38.5537 26.9257L38.5382 27.0931C38.3996 28.5286 37.1248 29.5806 35.6893 29.4432C35.0618 29.3822 34.5076 29.1051 34.0941 28.6905Z" fill="#1DA8B2"/>
<path fill-rule="evenodd" clip-rule="evenodd" d="M26.5536 17.8039C25.9117 17.1621 25.6036 16.2131 25.8508 15.2886C26.2232 13.8952 27.5945 13.0516 28.9868 13.4241L29.1409 13.4651C30.5332 13.8464 31.3502 15.2842 30.9678 16.6743C30.5865 18.0655 29.1487 18.8825 27.7586 18.5012C27.2908 18.3759 26.8784 18.1298 26.5536 17.8039Z" fill="#1DA8B2"/>
<path fill-rule="evenodd" clip-rule="evenodd" d="M32.34 21.9016C32.2347 21.7952 32.136 21.6788 32.0473 21.5513L31.962 21.4305C31.1372 20.2477 31.4265 18.6192 32.6093 17.7945C33.7922 16.9686 35.4195 17.2591 36.2454 18.4419L36.323 18.5538C37.151 19.7344 36.865 21.3629 35.6833 22.1909C34.6302 22.9292 33.2202 22.7807 32.34 21.9016Z" fill="#1DA8B2"/>
<path d="M46.7458 4.67607C46.1482 5.27364 45.1799 5.27364 44.5823 4.67607C43.984 4.07924 43.984 3.1109 44.5831 2.51333C45.1799 1.91501 46.1482 1.91501 46.7451 2.51333C47.3426 3.1109 47.3426 4.07924 46.7458 4.67607Z" fill="#F5BF15"/>
<path d="M49.1599 7.07841C48.5623 7.67598 47.594 7.67598 46.9971 7.07916C46.3996 6.48159 46.3996 5.51324 46.9971 4.91567C47.5947 4.3181 48.563 4.3181 49.1599 4.91642C49.7567 5.51324 49.7567 6.48159 49.1599 7.07841Z" fill="#F5BF15"/>
<path d="M50.1989 3.44951C49.6014 4.04708 48.633 4.04708 48.0362 3.45025C47.4386 2.85268 47.4386 1.88433 48.0362 1.28676C48.6338 0.689193 49.6021 0.689193 50.1989 1.28751C50.7958 1.88433 50.7958 2.85268 50.1989 3.44951Z" fill="#F5BF15"/>
<path d="M38.9454 45.086C37.2802 43.4208 37.2802 40.7198 38.9454 39.0546C40.6106 37.3894 43.3117 37.3894 44.9769 39.0546C46.6421 40.7198 46.6421 43.4208 44.9769 45.086C43.3117 46.7512 40.6106 46.7512 38.9454 45.086Z" fill="#5151A3"/>
<path d="M47.3544 46.7529C46.7576 46.156 46.7576 45.1877 47.3544 44.5909C47.9513 43.9926 48.9196 43.9926 49.5172 44.5901C50.1147 45.1877 50.1147 46.156 49.5172 46.7536C48.9204 47.3504 47.952 47.3504 47.3544 46.7529Z" fill="#F5BF15"/>
<path d="M44.9326 49.1591C44.3357 48.5623 44.3357 47.594 44.9326 46.9971C45.5294 46.3988 46.4977 46.3988 47.0953 46.9964C47.6929 47.594 47.6929 48.5623 47.0953 49.1599C46.4985 49.7567 45.5301 49.7567 44.9326 49.1591Z" fill="#F5BF15"/>
<path d="M48.5737 50.207C47.9762 49.6093 47.9765 48.6409 48.5734 48.0443C49.1712 47.4453 50.1395 47.4456 50.7377 48.044C51.3344 48.641 51.3349 49.6101 50.7379 50.2068C50.1394 50.8035 49.1704 50.804 48.5737 50.207Z" fill="#F5BF15"/>
<path d="M7.01552 39.0353C8.68072 37.3701 11.3818 37.3701 13.047 39.0353C14.7122 40.7005 14.7122 43.4015 13.047 45.0667C11.3818 46.7319 8.68072 46.7319 7.01552 45.0667C5.35032 43.4015 5.35032 40.7005 7.01552 39.0353Z" fill="#5151A3"/>
<path d="M5.34869 47.4326C5.94551 46.8357 6.91386 46.8357 7.51143 47.4333C8.10975 48.0301 8.10975 48.9985 7.51143 49.5953C6.91386 50.1944 5.94551 50.1944 5.34869 49.596C4.75112 48.9985 4.75112 48.0301 5.34869 47.4326Z" fill="#F5BF15"/>
<path d="M2.94951 45.0271C3.54708 44.4295 4.51542 44.4295 5.11225 45.0263C5.70982 45.6239 5.70982 46.5922 5.11225 47.1898C4.51468 47.7874 3.54633 47.7874 2.94951 47.1891C2.35268 46.5922 2.35268 45.6239 2.94951 45.0271Z" fill="#F5BF15"/>
<path d="M1.90263 48.656C2.49946 48.0591 3.4678 48.0591 4.06612 48.656C4.66369 49.2535 4.66369 50.2219 4.06687 50.8202C3.4678 51.4178 2.49946 51.4178 1.90188 50.8202C1.30506 50.2219 1.30506 49.2535 1.90263 48.656Z" fill="#F5BF15"/>
<path d="M12.9999 7.04677C14.6651 8.71197 14.6651 11.413 12.9999 13.0782C11.3347 14.7434 8.63363 14.7434 6.96843 13.0782C5.30323 11.413 5.30323 8.71197 6.96843 7.04677C8.63363 5.38157 11.3347 5.38157 12.9999 7.04677Z" fill="#5151A3"/>
<path d="M4.59869 5.38775C5.19551 5.98458 5.19551 6.95292 4.59869 7.54975C4.00186 8.14806 3.03352 8.14806 2.43595 7.55049C1.83838 6.95292 1.83838 5.98458 2.43595 5.387C3.03277 4.79018 4.00112 4.79018 4.59869 5.38775Z" fill="#F5BF15"/>
<path d="M7.01227 2.97268C7.60969 3.5704 7.60946 4.53874 7.01249 5.13542C6.41478 5.73434 5.44643 5.73411 4.84826 5.13565C4.25158 4.53868 4.25106 3.56959 4.84803 2.97291C5.44649 2.37623 6.41558 2.37571 7.01227 2.97268Z" fill="#F5BF15"/>
<path d="M3.37945 1.93362C3.97688 2.53133 3.97665 3.49968 3.37968 4.09636C2.78196 4.69528 1.81362 4.69505 1.21544 4.09659C0.618763 3.49962 0.618251 2.53052 1.21522 1.93384C1.81368 1.33716 2.78277 1.33665 3.37945 1.93362Z" fill="#F5BF15"/>
</svg>
