<svg width="37" height="37" viewBox="0 0 37 37" fill="none" xmlns="http://www.w3.org/2000/svg">
<path d="M0.453125 0.929688H10.5532V36.0707H0.453125V0.929688Z" fill="#74CCD6"/>
<path d="M10.5625 0.929688H16.0924V36.0707H10.5625V0.929688Z" fill="#4D5AA7"/>
<path d="M16.1016 0.929688H26.3416V36.0707H16.1016V0.929688Z" fill="#20A9B3"/>
<path d="M26.3516 0.929688H29.7015V36.0707H26.3516V0.929688Z" fill="#EDBF30"/>
<path d="M29.7031 0.929688H36.0132V36.0707H29.7031V0.929688Z" fill="#F05954"/>
<path d="M2.5625 4.73438H8.3125V5.55237H2.5625V4.73438Z" fill="white"/>
<path d="M2.63281 7.69922H8.38281V8.5162H2.63281V7.69922Z" fill="white"/>
<path d="M18.2578 14.1406H24.0178V14.9576H18.2578V14.1406Z" fill="white"/>
<path d="M29.7031 5.93359H36.0132V8.68759H29.7031V5.93359Z" fill="white"/>
<path d="M29.7109 25.5391H36.011V28.4081H29.7109V25.5391Z" fill="white"/>
<path d="M18.2578 11.6562H24.0178V12.4732H18.2578V11.6562Z" fill="white"/>
<path d="M2.70312 10.6641H8.46313V11.481H2.70312V10.6641Z" fill="white"/>
<path d="M21.1434 24.1864C19.2834 24.1864 17.7734 22.6734 17.7734 20.8134C17.7734 18.9544 19.2834 17.4414 21.1434 17.4414C23.0034 17.4414 24.5134 18.9544 24.5134 20.8134C24.5134 22.6734 23.0034 24.1864 21.1434 24.1864Z" fill="white"/>
</svg>
