<svg width="33" height="33" viewBox="0 0 33 33" fill="none" xmlns="http://www.w3.org/2000/svg">
<path d="M32.8608 6.63636C32.2737 8.74066 31.8641 10.8939 31.3206 13.0101C30.6715 15.5371 30.0112 16.8718 27.2053 17.2701L11.9295 18.8388C11.0703 20.2745 11.6268 22.0388 13.4172 22.163L27.775 22.1599C28.6317 22.2577 28.8068 23.2424 28.0589 23.6344L12.9275 23.6558C10.685 23.2412 9.48127 21.0528 10.2204 18.8889C10.3236 18.586 10.6106 18.1978 10.5675 17.8892L5.763 3.48651C4.9288 2.01444 3.12969 2.63099 1.74582 2.50743C0.598945 2.40582 0.718385 1.10624 1.49631 1.00024C2.12477 0.91431 3.89949 0.940026 4.55672 1.00337C6.81482 1.22227 7.48831 3.47898 7.99671 5.32612C10.1166 5.38821 12.2346 5.34932 14.3583 5.38194C19.0108 5.45407 23.6809 5.56759 28.3334 5.63721C29.4703 5.65415 30.7903 5.53686 31.8959 5.6322C32.2955 5.66669 32.6213 5.80092 32.8608 6.13522V6.63574V6.63636Z" fill="white"/>
<path d="M31.175 7.14048L29.4916 14.0586C29.0626 15.1989 28.0783 15.7126 26.8995 15.7778L11.9808 17.285L8.45703 6.82812L31.175 7.1411V7.14048Z" fill="#9B4F9F"/>
<path d="M25.1859 32.2004C27.036 32.2004 28.5358 30.6961 28.5358 28.8404C28.5358 26.9848 27.036 25.4805 25.1859 25.4805C23.3358 25.4805 21.8359 26.9848 21.8359 28.8404C21.8359 30.6961 23.3358 32.2004 25.1859 32.2004Z" fill="white"/>
<path d="M25.1838 30.6951C26.2044 30.6951 27.0317 29.8653 27.0317 28.8417C27.0317 27.8181 26.2044 26.9883 25.1838 26.9883C24.1633 26.9883 23.3359 27.8181 23.3359 28.8417C23.3359 29.8653 24.1633 30.6951 25.1838 30.6951Z" fill="#9B4F9F"/>
<path d="M11.0987 32.1979C12.9481 32.1979 14.4474 30.6942 14.4474 28.8392C14.4474 26.9842 12.9481 25.4805 11.0987 25.4805C9.24926 25.4805 7.75 26.9842 7.75 28.8392C7.75 30.6942 9.24926 32.1979 11.0987 32.1979Z" fill="white"/>
<path d="M11.1018 30.6912C12.1223 30.6912 12.9497 29.8614 12.9497 28.8378C12.9497 27.8142 12.1223 26.9844 11.1018 26.9844C10.0812 26.9844 9.25391 27.8142 9.25391 28.8378C9.25391 29.8614 10.0812 30.6912 11.1018 30.6912Z" fill="#9B4F9F"/>
</svg>
