<svg width="32" height="27" viewBox="0 0 32 27" fill="none" xmlns="http://www.w3.org/2000/svg">
<path d="M7.61455 0.859375H11.0391V6.06251H7.61455V0.859375Z" fill="#FFA341"/>
<path d="M4.30205 6.07031H7.72656V11.2735H4.30205V6.07031Z" fill="#FFA341"/>
<path d="M11.0364 6.07031H14.4609V11.2735H11.0364V6.07031Z" fill="#FFA341"/>
<path d="M7.66924 11.2734H11.0938V16.4766H7.66924V11.2734Z" fill="#FFA341"/>
<path d="M14.4661 11.2734H17.8906V16.4766H14.4661V11.2734Z" fill="#FFA341"/>
<path d="M0.880175 11.2734H4.30469V16.4766H0.880175V11.2734Z" fill="#FFA341"/>
<path d="M4.30205 16.4688H7.72656V21.6719H4.30205V16.4688Z" fill="#FFA341"/>
<path d="M11.0364 16.4688H14.4609V21.6719H11.0364V16.4688Z" fill="#FFA341"/>
<path d="M7.66924 21.6719H11.0938V26.8754H7.66924V21.6719Z" fill="#FFA341"/>
<path d="M21.1926 0.859375H24.6172V6.06251H21.1926V0.859375Z" fill="#FFA341"/>
<path d="M17.888 6.07031H21.3125V11.2735H17.888V6.07031Z" fill="#FFA341"/>
<path d="M24.6223 6.05469H28.0469V11.2578H24.6223V6.05469Z" fill="#FFA341"/>
<path d="M21.2551 11.2734H24.6797V16.4766H21.2551V11.2734Z" fill="#FFA341"/>
<path d="M28.052 11.2734H31.4766V16.4766H28.052V11.2734Z" fill="#FFA341"/>
<path d="M17.888 16.4688H21.3125V21.6719H17.888V16.4688Z" fill="#FFA341"/>
<path d="M24.6223 16.4688H28.0469V21.6719H24.6223V16.4688Z" fill="#FFA341"/>
<path d="M21.2551 21.6719H24.6797V26.8754H21.2551V21.6719Z" fill="#FFA341"/>
<path d="M0.884202 0.859375H4.28906V3.75459H0.884202V0.859375Z" fill="#455AAA"/>
<path d="M0.884202 23.9844H4.28906V26.8796H0.884202V23.9844Z" fill="#FF5853"/>
<path d="M28.0561 0.859375H31.4609V3.75459H28.0561V0.859375Z" fill="#00AAB4"/>
<path d="M28.0561 23.9844H31.4609V26.8796H28.0561V23.9844Z" fill="#0D0E3F"/>
<path d="M7.74933 6.0525L7.68284 11.2626L14.4653 11.2554L14.4758 6.04527L7.74933 6.0525Z" fill="#00AAB4"/>
<path d="M7.65928 11.2652L7.72599 16.4757L0.887018 16.468L0.876315 11.2574L7.65928 11.2652Z" fill="#FFC81B"/>
<path d="M11.0403 11.2734V16.4766H7.72797L7.67188 21.6801H14.4649V11.2734H11.0403Z" fill="#FF5853"/>
<path d="M17.8906 11.2734V16.4766H21.3152L21.2591 21.6801H24.6836V11.2734H17.8906Z" fill="#455AAA"/>
<path d="M21.3125 6.07031V11.2735H24.681L24.6249 6.07031H21.3125Z" fill="#16CDD7"/>
<path d="M28.0481 11.2734H24.6797V16.4766H28.0481V11.2734Z" fill="#FFC81B"/>
</svg>
