<svg width="32" height="27" viewBox="0 0 32 27" fill="none" xmlns="http://www.w3.org/2000/svg">
<path d="M22.7973 0.859375H9.05469L15.926 6.70221L22.7973 0.859375Z" fill="#FCC00E"/>
<path d="M20.2122 20.399L27.8922 13.8685L27.8914 13.8678L27.8922 13.867L20.2122 7.3362L24.5785 3.7943L28.0296 0.859375H25.373L23.2659 2.6515L17.5234 7.30956L25.1142 13.7641H25.1129L25.2344 13.8678L25.1129 13.9711H25.1142L17.5234 20.426L23.2659 25.0841L25.373 26.8758H28.0296L24.5785 23.9409L20.2122 20.399Z" fill="#455AAA"/>
<path d="M6.79042 13.9711H6.79214L6.67023 13.8674L6.79214 13.7641H6.79042L14.3584 7.3289L8.65462 2.66464L6.53201 0.859375H3.875L7.33942 3.80525L11.6752 7.35117L4.01236 13.867L4.01322 13.8674L4.01236 13.8685L11.6752 20.384L7.33942 23.9303L3.875 26.8758H6.53201L8.65462 25.0706L14.3584 20.4063L6.79042 13.9711Z" fill="#455AAA"/>
<path d="M22.8008 13.9699L15.9297 19.8125L9.05859 13.9699L15.9297 8.1272L22.8008 13.9699Z" fill="#FF5853"/>
<path d="M9.05469 26.8741H22.7973L15.926 21.0312L9.05469 26.8741Z" fill="#FCC00E"/>
<path d="M27.4032 10.7655L23.5078 7.45312L27.4032 4.14079L31.2986 7.45312L27.4032 10.7655Z" fill="#00AAB4"/>
<path d="M27.4032 23.6092L23.5078 20.2969L27.4032 16.9845L31.2986 20.2969L27.4032 23.6092Z" fill="#00AAB4"/>
<path d="M4.50306 4.14079L8.39844 7.45312L4.50306 10.7655L0.607675 7.45312L4.50306 4.14079Z" fill="#00AAB4"/>
<path d="M4.50306 16.9845L8.39844 20.2969L4.50306 23.6092L0.607675 20.2969L4.50306 16.9845Z" fill="#00AAB4"/>
</svg>
