<svg width="125" height="133" viewBox="0 0 125 133" fill="none" xmlns="http://www.w3.org/2000/svg">
<path d="M62.4297 65.332L75.9203 40.3331L62.3557 13.1194L48.8674 40.2941L62.4297 65.332Z" fill="#4D5BA5"/>
<path d="M62.2578 65.3008L49.1665 40.0865L19.1724 36.2686L34.0578 62.6917L62.2578 65.3008Z" fill="#EA5955"/>
<path d="M62.6016 64.8984L34.3397 66.4714L18.4251 92.3167L48.5262 89.6001L62.6016 64.8984Z" fill="#EA5955"/>
<path d="M75.3543 90.1345L105.317 94.161L90.5104 67.662L62.3382 64.857L75.3543 90.1345Z" fill="#EA5955"/>
<path d="M89.6554 78.9085L116.697 65.2742L89.6873 51.7407L64.8081 65.3692L89.6554 78.9085Z" fill="#4D5BA5"/>
<path d="M35.7804 50.7916L8.73852 64.4258L35.7485 77.9594L60.6286 64.3284L35.7804 50.7916Z" fill="#4D5BA5"/>
<path d="M90.6066 63.1577L105.937 36.9857L75.8859 40.2986L62.3706 65.292L90.6066 63.1577Z" fill="#EA5955"/>
<path d="M62.3906 64.8672L48.3792 89.5777L61.3713 117.07L75.4249 90.1857L62.3906 64.8672Z" fill="#4D5BA5"/>
<path d="M62.3805 56.0352C57.289 56.0352 53.1595 60.1887 53.1595 65.314C53.1595 70.4375 57.289 74.591 62.3805 74.591C67.4721 74.591 71.6016 70.4375 71.6016 65.314C71.6016 60.1887 67.4721 56.0352 62.3805 56.0352Z" fill="#ECBF2F"/>
<path d="M58.0722 0.376195C50.1203 -1.32484 28.1245 11.506 23.9141 19.1801C31.8824 21.3679 55.3553 9.43849 58.0722 0.376195Z" fill="#19A7B1"/>
<path d="M100.736 19.1801C96.5258 11.506 74.53 -1.32484 66.5781 0.376195C69.2931 9.43849 92.766 21.3679 100.736 19.1801Z" fill="#19A7B1"/>
<path d="M15.1079 25.0547C7.89002 28.8195 -1.01095 52.7839 0.576474 61.4038C8.11443 58.0036 18.7261 33.7912 15.1079 25.0547Z" fill="#19A7B1"/>
<path d="M123.949 61.4038C125.535 52.7839 116.636 28.8195 109.418 25.0547C105.8 33.7931 116.411 58.0036 123.949 61.4038Z" fill="#19A7B1"/>
<path d="M66.5469 132.348C74.4987 134.051 96.4945 121.218 100.705 113.544C92.7347 111.356 69.2619 123.286 66.5469 132.348Z" fill="#19A7B1"/>
<path d="M23.8281 113.544C28.0404 121.216 50.0362 134.049 57.9862 132.348C55.2712 123.286 31.7983 111.356 23.8281 113.544Z" fill="#19A7B1"/>
<path d="M124.012 71.3438C116.474 74.744 105.862 98.9545 109.48 107.693C116.698 103.928 125.597 79.9637 124.012 71.3438Z" fill="#19A7B1"/>
<path d="M0.677666 71.3438C-0.907917 79.9637 7.99121 103.928 15.2091 107.693C18.8273 98.9545 8.21562 74.744 0.677666 71.3438Z" fill="#19A7B1"/>
</svg>
