<svg width="32" height="52" viewBox="0 0 32 52" fill="none" xmlns="http://www.w3.org/2000/svg">
<path d="M5.95952 10.5391L0.6875 15.8111L12.3189 27.199L15.9931 30.7004L19.7243 27.1733L31.3807 15.8111L26.1087 10.5391L21.0509 15.5969L15.9931 10.5391L10.9759 15.5555L5.95952 10.5391Z" fill="#00A7B3"/>
<path d="M5.95952 0.199219L0.6875 5.47124L12.3189 16.8592L15.9931 20.3605L19.7243 16.8335L31.3807 5.47124L26.1087 0.199219L21.0509 5.25704L15.9931 0.199219L10.9759 5.21563L5.95952 0.199219Z" fill="#F15855"/>
<path d="M26.1087 40.8996L31.3807 35.6276L19.75 24.2396L16.0752 20.7383L12.3439 24.2653L0.6875 35.6276L5.95952 40.8996L11.0173 35.8418L16.0752 40.8996L21.0923 35.8832L26.1087 40.8996Z" fill="#00A7B3"/>
<path d="M26.1087 51.2355L31.3807 45.9635L19.75 34.5756L16.0752 31.0742L12.3439 34.6013L0.6875 45.9635L5.95952 51.2355L11.0173 46.1777L16.0752 51.2355L21.0923 46.2191L26.1087 51.2355Z" fill="#F15855"/>
<path d="M16.0378 9.6948L29.4922 23.1484L16.0391 36.6023L2.5847 23.1487L16.0378 9.6948Z" fill="#F5BF15"/>
<path d="M16.0415 18.2485L21.0234 23.2305L16.0415 28.2124L11.0595 23.2305L16.0415 18.2485Z" fill="#5151A3"/>
</svg>
