<svg width="35" height="33" viewBox="0 0 35 33" fill="none" xmlns="http://www.w3.org/2000/svg">
<g clip-path="url(#clip0_507_2140)">
<g clip-path="url(#clip1_507_2140)">
<path d="M17.7762 24.7525C11.0932 24.7525 5.65625 19.3916 5.65625 12.802C5.65625 6.21287 11.0932 0.851562 17.7762 0.851562C24.4593 0.851562 29.8962 6.21287 29.8962 12.802C29.8962 19.3916 24.4593 24.7525 17.7762 24.7525Z" fill="#EDBF30"/>
<path d="M17.4086 13.8789H18.1562V24.3827H17.4086V13.8789Z" fill="#F05954"/>
<path d="M2.7009 12.4297H4.57812V13.1668H2.7009V12.4297Z" fill="#EDBF30"/>
<path d="M3.46622 4.96445L5.13281 5.57812L4.86821 6.27097L3.20161 5.6573L3.46622 4.96445Z" fill="#EDBF30"/>
<path d="M30.8962 12.4297H32.7734V13.1668H30.8962V12.4297Z" fill="#EDBF30"/>
<path d="M32.0165 4.97267L32.2812 5.66406L30.6156 6.27896L30.3509 5.58757L32.0165 4.97267Z" fill="#EDBF30"/>
<path d="M12.1761 24.0117H22.7266V29.3086H12.1761V24.0117Z" fill="#4D5AA7"/>
<path d="M12.1761 29.3086H22.7266V31.5963H12.1761V29.3086Z" fill="#74CCD6"/>
</g>
</g>
<defs>
<clipPath id="clip0_507_2140">
<rect width="33.7544" height="32.1965" fill="white" transform="translate(0.539062 0.0429688)"/>
</clipPath>
<clipPath id="clip1_507_2140">
<rect width="30.0998" height="30.7838" fill="white" transform="translate(2.70312 0.851562)"/>
</clipPath>
</defs>
</svg>
