<svg width="52" height="58" viewBox="0 0 52 58" fill="none" xmlns="http://www.w3.org/2000/svg">
<path d="M41.7706 8.06641H0.570312V57.9798H41.7706V8.06641Z" fill="#4F51A2"/>
<path d="M41.7732 17.0144H33.2188V8.06641L41.7732 17.0144Z" fill="#FC3B41"/>
<path d="M15.5989 8.0629L41.7653 39.1654L41.7655 57.9766L0.565809 8.06256L15.5989 8.0629Z" fill="#F8BF00"/>
<path d="M17.0539 28.0312H0.570312V42.241H17.0539V28.0312Z" fill="#6ACDDA"/>
<path d="M17.0547 28.0312V42.241H28.7839L17.0547 28.0312Z" fill="#FC3B41"/>
<path d="M28.7831 42.2422L0.570312 57.9763V42.2422H28.7831Z" fill="#4F51A2"/>
<path d="M17.0539 28.0359L0.570312 8.06641V28.0359H17.0539Z" fill="#00A7B3"/>
<path d="M28.7812 42.2422V57.9763H41.7687L28.7812 42.2422Z" fill="#201D40"/>
<path d="M28.7831 42.2422V57.9763H0.570312L28.7831 42.2422Z" fill="#FF9D16"/>
</svg>
