<svg width="617" height="407" viewBox="0 0 617 407" fill="none" xmlns="http://www.w3.org/2000/svg">
<path fill-rule="evenodd" clip-rule="evenodd" d="M616.054 0.390625V324.289C616.054 369.959 579.055 406.972 533.36 406.972H254.648V0.390625H616.054Z" fill="#181242"/>
<path d="M531.286 372.599C557.802 372.599 579.298 351.103 579.298 324.587C579.298 298.07 557.802 276.574 531.286 276.574C504.769 276.574 483.273 298.07 483.273 324.587C483.273 351.103 504.769 372.599 531.286 372.599Z" fill="#FF3941"/>
<path fill-rule="evenodd" clip-rule="evenodd" d="M435.587 228.607L435.341 142.445L291.383 276.588V372.571H387.902V276.588H435.505L435.587 228.607Z" fill="#4F4FA6"/>
<path fill-rule="evenodd" clip-rule="evenodd" d="M291.383 276.586V372.569H387.902L291.383 276.586Z" fill="#FFC700"/>
<path fill-rule="evenodd" clip-rule="evenodd" d="M339.648 324.568L387.907 372.569V228.605L339.648 276.586V324.568Z" fill="#FF9F18"/>
<path d="M482.158 276.586H387.906V372.557H482.158V276.586Z" fill="#59D9E3"/>
<path fill-rule="evenodd" clip-rule="evenodd" d="M435.59 276.586H482.157V324.568H531.314V228.605H435.344L435.59 276.586Z" fill="#00A9B5"/>
<path fill-rule="evenodd" clip-rule="evenodd" d="M429.449 276.559L429.203 228.558C429.195 226.931 429.837 225.367 430.988 224.2C432.139 223.053 433.705 222.406 435.338 222.406H531.308C534.697 222.406 537.443 225.138 537.443 228.537V324.499C537.443 327.898 534.697 330.65 531.308 330.65H482.151C478.763 330.65 476.016 327.898 476.016 324.499V282.648H435.584C432.208 282.648 429.466 279.938 429.449 276.559ZM441.687 270.387H482.151C485.54 270.387 488.286 273.14 488.286 276.518V318.368H525.173V234.667H441.504L441.687 270.387Z" fill="#181242"/>
<path fill-rule="evenodd" clip-rule="evenodd" d="M441.723 228.538L441.641 276.54C441.635 279.918 438.891 282.65 435.507 282.65H394.038V372.502C394.038 375.88 391.292 378.633 387.903 378.633H291.385C287.996 378.633 285.25 375.88 285.25 372.502V276.519C285.25 274.83 285.957 273.204 287.204 272.036L431.159 137.894C432.944 136.226 435.544 135.788 437.782 136.747C440.019 137.727 441.47 139.917 441.477 142.356L441.723 228.517C441.723 228.538 441.723 228.538 441.723 228.538ZM429.453 228.538L429.247 156.432L297.519 279.188V366.35H381.769V276.519C381.769 273.141 384.515 270.389 387.903 270.389H429.382L429.453 228.538Z" fill="#181242"/>
<path fill-rule="evenodd" clip-rule="evenodd" d="M387.9 270.387H482.152C485.541 270.387 488.287 273.139 488.287 276.517V372.5C488.287 375.878 485.541 378.63 482.152 378.63H387.9C384.512 378.63 381.766 375.878 381.766 372.5V276.517C381.766 273.139 384.512 270.387 387.9 270.387ZM394.035 282.648V366.348H476.018V282.648H394.035Z" fill="#181242"/>
<path fill-rule="evenodd" clip-rule="evenodd" d="M333.508 324.497V276.516C333.508 274.89 334.158 273.326 335.316 272.179L383.576 224.177C385.332 222.446 387.967 221.925 390.257 222.863C392.545 223.823 394.035 226.054 394.035 228.535V372.499C394.035 374.959 392.545 377.211 390.257 378.15C387.967 379.109 385.332 378.588 383.576 376.836L335.316 328.855C334.158 327.708 333.508 326.144 333.508 324.497ZM345.777 321.953L381.766 357.735V243.278L345.777 279.081V321.953Z" fill="#181242"/>
<path fill-rule="evenodd" clip-rule="evenodd" d="M295.712 272.179L392.228 368.141C393.99 369.893 394.522 372.541 393.575 374.835C392.626 377.128 390.387 378.63 387.903 378.63H291.385C287.996 378.63 285.25 375.877 285.25 372.499V276.516C285.25 274.035 286.741 271.804 289.03 270.866C291.318 269.906 293.954 270.428 295.712 272.179ZM297.519 291.28V366.348H373.034L297.519 291.28Z" fill="#181242"/>
<path fill-rule="evenodd" clip-rule="evenodd" d="M531.28 270.426C561.165 270.426 585.427 294.698 585.427 324.579C585.427 354.46 561.165 378.732 531.28 378.732C501.396 378.732 477.133 354.46 477.133 324.579H489.402C489.402 347.704 508.167 366.45 531.28 366.45C554.392 366.45 573.157 347.704 573.157 324.579C573.157 301.475 554.392 282.708 531.28 282.708V270.426Z" fill="#181242"/>
<path d="M1.2985 333.637C0.438039 333.637 0.0078125 333.207 0.0078125 332.347V322.021C0.0078125 321.161 0.438039 320.731 1.2985 320.731H4.138C7.75191 320.731 10.3548 319.827 11.9466 318.02C13.5385 316.213 14.3344 313.46 14.3344 309.76V255.293C14.3344 254.432 14.7646 254.002 15.6251 254.002H27.6284C28.4889 254.002 28.9191 254.432 28.9191 255.293V310.018C28.9191 325.764 21.3041 333.637 6.07403 333.637H1.2985ZM15.496 241.095C14.6356 241.095 14.2053 240.665 14.2053 239.805V228.705C14.2053 227.844 14.6356 227.414 15.496 227.414H27.8866C28.747 227.414 29.1773 227.844 29.1773 228.705V239.805C29.1773 240.665 28.747 241.095 27.8866 241.095H15.496Z" fill="white"/>
<path d="M59.7644 306.277C59.7644 307.137 59.3342 307.567 58.4737 307.567H46.4704C45.6099 307.567 45.1797 307.137 45.1797 306.277V221.091C45.1797 220.231 45.6099 219.801 46.4704 219.801H58.4737C59.3342 219.801 59.7644 220.231 59.7644 221.091V306.277Z" fill="white"/>
<path d="M100.036 307.566C95.9917 307.566 92.3993 307.115 89.2586 306.211C86.118 305.308 83.4721 303.802 81.3209 301.694C79.1698 299.586 77.5134 296.854 76.3518 293.498C75.1902 290.142 74.6094 286.012 74.6094 281.107C74.6094 275.859 75.3193 271.363 76.739 267.62C78.1588 263.877 80.0948 260.822 82.5471 258.456C84.9994 256.09 87.8174 254.369 91.0011 253.293C94.1847 252.217 97.5405 251.68 101.068 251.68C104.94 251.68 108.49 252.196 111.717 253.229C114.943 254.261 117.718 255.896 120.041 258.133C122.365 260.37 124.172 263.296 125.462 266.91C126.753 270.524 127.398 274.955 127.398 280.204V310.406C127.398 318.494 125.376 324.388 121.332 328.088C117.288 331.788 111.394 333.638 103.65 333.638H86.2255C85.3651 333.638 84.9348 333.208 84.9348 332.347V322.022C84.9348 321.162 85.3651 320.731 86.2255 320.731H101.327C103.047 320.731 104.639 320.581 106.102 320.28C107.565 319.978 108.813 319.355 109.845 318.408C110.878 317.462 111.674 316.128 112.233 314.407C112.792 312.686 113.072 310.406 113.072 307.566H100.036ZM101.197 264.587C97.2394 264.587 94.1847 266.049 92.0336 268.975C89.8825 271.9 88.8069 275.815 88.8069 280.72C88.8069 286.141 89.904 289.841 92.0981 291.82C94.2923 293.799 97.4545 294.789 101.585 294.789H113.072V280.075C113.072 274.998 112.125 271.148 110.232 268.523C108.339 265.899 105.328 264.587 101.197 264.587Z" fill="white"/>
<path d="M149.858 255.295C149.858 254.434 150.288 254.004 151.149 254.004H163.152C164.012 254.004 164.443 254.434 164.443 255.295V286.787C164.443 289.369 165.411 291.348 167.347 292.724C169.283 294.101 171.886 294.79 175.155 294.79H177.349C179.07 294.79 180.361 295.263 181.221 296.209C182.082 297.156 182.512 298.748 182.512 300.985C182.512 303.48 182.103 305.201 181.286 306.148C180.469 307.094 179.156 307.567 177.349 307.567C174.424 307.567 171.907 307.309 169.799 306.793C167.691 306.277 165.905 305.115 164.443 303.308V305.76C164.443 310.407 164.055 314.472 163.281 317.957C162.507 321.442 161.237 324.346 159.473 326.669C157.71 328.993 155.365 330.735 152.439 331.897C149.514 333.058 145.9 333.639 141.597 333.639H136.822C135.961 333.639 135.531 333.209 135.531 332.348V322.023C135.531 321.162 135.961 320.732 136.822 320.732H139.661C142.157 320.732 144.093 320.302 145.47 319.442C146.846 318.581 147.857 317.312 148.503 315.634C149.148 313.956 149.535 311.934 149.664 309.568C149.793 307.202 149.858 304.47 149.858 301.372V255.295Z" fill="white"/>
<path d="M188.708 332.09C187.848 332.09 187.418 331.66 187.418 330.8V319.7C187.418 318.839 187.848 318.409 188.708 318.409H201.099C201.959 318.409 202.39 318.839 202.39 319.7V330.8C202.39 331.66 201.959 332.09 201.099 332.09H188.708ZM177.35 307.567C175.629 307.567 174.339 307.266 173.478 306.664C172.618 306.061 172.188 304.857 172.188 303.05C172.188 300.899 172.596 298.984 173.414 297.306C174.231 295.628 175.543 294.79 177.35 294.79H183.675C185.826 294.79 187.396 294.295 188.386 293.305C189.375 292.316 189.87 290.53 189.87 287.949V255.295C189.87 254.434 190.3 254.004 191.161 254.004H203.164C204.024 254.004 204.455 254.434 204.455 255.295V291.305C204.455 296.898 203.293 301.006 200.97 303.631C198.647 306.255 194.774 307.567 189.354 307.567H177.35Z" fill="white"/>
<path d="M0.0078125 354.504C0.0078125 353.991 0.264213 353.734 0.777014 353.734H20.2378C25.7761 353.734 29.8785 355.004 32.5451 357.542C35.2116 360.08 36.5449 363.452 36.5449 367.657C36.5449 370.631 35.9424 373.003 34.7373 374.772C33.5322 376.541 32.1092 377.862 30.4682 378.733V378.887C31.2887 379.195 32.1092 379.682 32.9297 380.349C33.7502 381.015 34.4937 381.849 35.1604 382.849C35.827 383.849 36.3783 385.002 36.8077 386.31C37.25 387.618 37.468 389.066 37.468 390.656C37.468 395.887 35.9039 399.758 32.7758 402.271C29.6477 404.784 25.212 406.04 19.4686 406.04H0.777014C0.264213 406.04 0.0078125 405.784 0.0078125 405.271V354.504ZM20.0071 375.503C22.3147 375.503 24.1351 374.875 25.4684 373.618C26.8017 372.362 27.4683 370.708 27.4683 368.657C27.4683 366.554 26.8017 364.875 25.4684 363.619C24.1351 362.362 22.3147 361.734 20.0071 361.734H9.54592C9.23824 361.734 9.0844 361.888 9.0844 362.196V375.041C9.0844 375.349 9.23824 375.503 9.54592 375.503H20.0071ZM9.0844 397.579C9.0844 397.887 9.23824 398.04 9.54592 398.04H20.4686C23.0326 398.04 24.9941 397.374 26.353 396.041C27.7119 394.707 28.3914 392.938 28.3914 390.733C28.3914 388.579 27.7119 386.836 26.353 385.502C24.9941 384.169 23.0326 383.503 20.4686 383.503H9.54592C9.23824 383.503 9.0844 383.656 9.0844 383.964V397.579Z" fill="white"/>
<path d="M47.3161 406.039C46.8033 406.039 46.5469 405.782 46.5469 405.27V369.733C46.5469 369.22 46.8033 368.963 47.3161 368.963H54.3927C54.9055 368.963 55.1619 369.22 55.1619 369.733V372.886H55.2389C56.1106 371.45 57.3413 370.297 58.931 369.425C60.5207 368.553 62.495 368.117 64.8539 368.117C66.341 368.117 67.764 368.386 69.123 368.925C70.4819 369.463 71.6485 370.22 72.6228 371.194C72.9818 371.553 73.0331 371.912 72.7767 372.271L68.6999 377.425C68.3922 377.835 68.0333 377.886 67.623 377.578C66.7513 377.014 65.8795 376.578 65.0077 376.271C64.136 375.963 63.1873 375.809 62.1617 375.809C59.7002 375.809 57.9183 376.63 56.8157 378.271C55.7132 379.912 55.1619 382.219 55.1619 385.193V405.27C55.1619 405.782 54.9055 406.039 54.3927 406.039H47.3161Z" fill="white"/>
<path d="M110.617 406.04C110.156 406.04 109.848 405.784 109.694 405.271L102.541 381.58H102.387L95.1565 405.271C95.0026 405.784 94.695 406.04 94.2334 406.04H87.926C87.4645 406.04 87.1568 405.784 87.0029 405.271L75.3111 369.734C75.1572 369.221 75.3367 368.965 75.8495 368.965H83.2338C83.7466 368.965 84.08 369.221 84.2338 369.734L91.3874 394.195H91.5412L98.6179 369.734C98.7717 369.221 99.1051 368.965 99.6179 368.965H105.156C105.669 368.965 106.002 369.221 106.156 369.734L113.694 394.195H113.848L120.617 369.734C120.771 369.221 121.104 368.965 121.617 368.965H129.001C129.514 368.965 129.694 369.221 129.54 369.734L117.848 405.271C117.694 405.784 117.386 406.04 116.925 406.04H110.617Z" fill="white"/>
<path d="M158.62 406.039C158.107 406.039 157.851 405.782 157.851 405.27V402.577H157.774C156.902 403.859 155.594 404.898 153.851 405.693C152.107 406.488 149.928 406.885 147.313 406.885C145.62 406.885 144.018 406.654 142.505 406.193C140.992 405.731 139.672 405.039 138.544 404.116C137.416 403.193 136.518 402.026 135.852 400.616C135.185 399.206 134.852 397.526 134.852 395.578C134.852 391.527 136.172 388.552 138.813 386.655C141.454 384.758 145.082 383.809 149.697 383.809H157.235C157.543 383.809 157.697 383.655 157.697 383.347V381.578C157.697 379.424 157.107 377.86 155.928 376.886C154.748 375.912 152.595 375.425 149.466 375.425C147.364 375.425 145.646 375.668 144.313 376.155C142.979 376.643 141.877 377.245 141.005 377.963C140.544 378.322 140.185 378.271 139.928 377.809L137.082 372.732C136.826 372.322 136.877 371.989 137.236 371.732C138.723 370.656 140.518 369.784 142.621 369.117C144.723 368.451 147.313 368.117 150.389 368.117C156.03 368.117 160.017 369.143 162.351 371.194C164.684 373.245 165.85 376.527 165.85 381.04V405.27C165.85 405.782 165.594 406.039 165.081 406.039H158.62ZM149.466 399.885C152.133 399.885 154.171 399.372 155.582 398.347C156.992 397.321 157.697 395.732 157.697 393.578V390.732C157.697 390.424 157.543 390.27 157.235 390.27H151.082C148.313 390.27 146.287 390.668 145.005 391.462C143.723 392.257 143.082 393.527 143.082 395.27C143.082 398.347 145.21 399.885 149.466 399.885Z" fill="white"/>
<path d="M175.925 406.04C175.413 406.04 175.156 405.784 175.156 405.271V399.656C175.156 399.4 175.233 399.143 175.387 398.887L194.309 376.657V376.503H176.925C176.413 376.503 176.156 376.247 176.156 375.734V369.734C176.156 369.221 176.413 368.965 176.925 368.965H203.694C204.206 368.965 204.463 369.221 204.463 369.734V375.734C204.463 376.042 204.386 376.298 204.232 376.503L185.54 398.348V398.502H203.694C204.206 398.502 204.463 398.759 204.463 399.271V405.271C204.463 405.784 204.206 406.04 203.694 406.04H175.925Z" fill="white"/>
</svg>
