<svg width="623" height="419" viewBox="0 0 623 419" fill="none" xmlns="http://www.w3.org/2000/svg">
<path fill-rule="evenodd" clip-rule="evenodd" d="M177.351 313.317C174.425 313.317 171.908 313.059 169.8 312.543C167.692 312.027 165.907 310.865 164.444 309.058V311.51C164.444 316.157 164.057 320.222 163.282 323.707C162.508 327.192 161.239 330.096 159.475 332.419C157.711 334.743 155.366 336.485 152.441 337.647C149.515 338.808 145.901 339.389 141.599 339.389H136.823C135.963 339.389 135.533 338.959 135.533 338.098V327.773C135.533 326.912 135.963 326.482 136.823 326.482H139.663C142.158 326.482 144.094 326.052 145.471 325.192C146.848 324.331 147.859 323.062 148.504 321.384C149.149 319.706 149.536 317.684 149.666 315.318C149.795 312.952 149.859 310.22 149.859 307.122V261.045C149.859 260.184 150.289 259.754 151.15 259.754H163.153C164.014 259.754 164.444 260.184 164.444 261.045V292.537C164.444 295.119 165.412 297.098 167.348 298.474C169.284 299.851 171.887 300.54 175.157 300.54H183.675C185.826 300.54 187.397 300.045 188.386 299.055C189.376 298.066 189.87 296.28 189.87 293.699V261.045C189.87 260.184 190.301 259.754 191.161 259.754H203.164C204.025 259.754 204.455 260.184 204.455 261.045V297.055C204.455 302.648 203.294 306.756 200.97 309.381C198.647 312.005 194.775 313.317 189.354 313.317H177.351ZM1.30144 339.389C0.440984 339.389 0.0107575 338.959 0.0107575 338.098V327.773C0.0107575 326.912 0.440984 326.482 1.30144 326.482H4.14094C7.75486 326.482 10.3577 325.579 11.9496 323.772C13.5414 321.965 14.3373 319.211 14.3373 315.511V261.045C14.3373 260.184 14.7676 259.754 15.628 259.754H27.6314C28.4918 259.754 28.9221 260.184 28.9221 261.045V315.77C28.9221 331.516 21.307 339.389 6.07697 339.389H1.30144ZM15.499 246.847C14.6385 246.847 14.2083 246.417 14.2083 245.556V234.457C14.2083 233.596 14.6385 233.166 15.499 233.166H27.8895C28.75 233.166 29.1802 233.596 29.1802 234.457V245.556C29.1802 246.417 28.75 246.847 27.8895 246.847H15.499ZM59.7694 312.027C59.7694 312.887 59.3392 313.317 58.4787 313.317H46.4754C45.6149 313.317 45.1847 312.887 45.1847 312.027V226.841C45.1847 225.981 45.6149 225.551 46.4754 225.551H58.4787C59.3392 225.551 59.7694 225.981 59.7694 226.841V312.027ZM100.039 313.317C95.9946 313.317 92.4022 312.866 89.2616 311.962C86.1209 311.059 83.475 309.553 81.3238 307.445C79.1727 305.337 77.5163 302.605 76.3547 299.249C75.1931 295.893 74.6123 291.763 74.6123 286.858C74.6123 281.609 75.3222 277.114 76.7419 273.371C78.1617 269.628 80.0977 266.573 82.55 264.207C85.0023 261.841 87.8203 260.12 91.004 259.044C94.1877 257.968 97.5434 257.431 101.071 257.431C104.943 257.431 108.493 257.947 111.719 258.979C114.946 260.012 117.721 261.647 120.044 263.884C122.368 266.121 124.175 269.047 125.465 272.661C126.756 276.275 127.401 280.706 127.401 285.955V316.157C127.401 324.245 125.379 330.139 121.335 333.839C117.291 337.539 111.397 339.389 103.653 339.389H86.2284C85.368 339.389 84.9378 338.959 84.9378 338.098V327.773C84.9378 326.912 85.368 326.482 86.2284 326.482H101.329C103.05 326.482 104.642 326.332 106.105 326.031C107.568 325.729 108.815 325.106 109.848 324.159C110.881 323.213 111.676 321.879 112.236 320.158C112.795 318.437 113.075 316.157 113.075 313.317H100.039ZM101.2 270.338C97.2423 270.338 94.1877 271.8 92.0365 274.726C89.8854 277.651 88.8098 281.566 88.8098 286.471C88.8098 291.892 89.9069 295.592 92.1011 297.571C94.2952 299.55 97.4574 300.54 101.588 300.54H113.075V285.826C113.075 280.749 112.128 276.898 110.235 274.274C108.342 271.65 105.331 270.338 101.2 270.338ZM188.709 337.84C187.848 337.84 187.418 337.41 187.418 336.55V325.45C187.418 324.589 187.848 324.159 188.709 324.159H201.099C201.96 324.159 202.39 324.589 202.39 325.45V336.55C202.39 337.41 201.96 337.84 201.099 337.84H188.709ZM0 360.277C0 359.76 0.25814 359.502 0.774413 359.502H20.2315C25.7707 359.502 29.8793 360.771 32.536 363.31C35.2034 365.848 36.5371 369.225 36.5371 373.42C36.5371 376.399 35.9348 378.776 34.7302 380.54C33.5255 382.304 32.1058 383.627 30.4601 384.499V384.66C31.2883 384.961 32.1058 385.456 32.9232 386.112C33.7514 386.779 34.4935 387.618 35.1604 388.618C35.8272 389.618 36.3758 390.769 36.806 392.081C37.247 393.383 37.4621 394.835 37.4621 396.427C37.4621 401.654 35.9025 405.526 32.7726 408.043C29.6427 410.549 25.2114 411.807 19.4678 411.807H0.774413C0.25814 411.807 0 411.549 0 411.044V360.277ZM20.0056 381.272C22.3073 381.272 24.1358 380.648 25.4695 379.39C26.7925 378.131 27.4593 376.475 27.4593 374.42C27.4593 372.323 26.7925 370.645 25.4695 369.387C24.1358 368.128 22.3073 367.505 20.0056 367.505H9.54031C9.23915 367.505 9.07781 367.655 9.07781 367.967V380.809C9.07781 381.121 9.23915 381.272 9.54031 381.272H20.0056ZM9.07781 403.343C9.07781 403.654 9.23915 403.805 9.54031 403.805H20.4681C23.028 403.805 24.9855 403.138 26.3515 401.804C27.7067 400.471 28.3843 398.707 28.3843 396.502C28.3843 394.351 27.7067 392.608 26.3515 391.275C24.9855 389.941 23.028 389.274 20.4681 389.274H9.54031C9.23915 389.274 9.07781 389.425 9.07781 389.737V403.343ZM47.3143 411.807C46.7981 411.807 46.5399 411.549 46.5399 411.044V375.507C46.5399 374.99 46.7981 374.732 47.3143 374.732H54.3916C54.8971 374.732 55.1552 374.99 55.1552 375.507V378.658H55.2305C56.1017 377.217 57.3386 376.066 58.9197 375.195C60.5116 374.324 62.4906 373.883 64.8461 373.883C66.3304 373.883 67.7609 374.152 69.1161 374.689C70.4713 375.238 71.6437 375.991 72.6117 376.959C72.9774 377.324 73.0312 377.679 72.7731 378.045L68.6967 383.197C68.3847 383.606 68.0298 383.66 67.6211 383.348C66.7499 382.788 65.8679 382.347 64.9967 382.035C64.1255 381.734 63.179 381.584 62.1572 381.584C59.6941 381.584 57.9087 382.401 56.8116 384.036C55.7038 385.682 55.1552 387.994 55.1552 390.963V411.044C55.1552 411.549 54.8971 411.807 54.3916 411.807H47.3143ZM110.612 411.807C110.149 411.807 109.848 411.549 109.687 411.044L102.534 387.349H102.384L95.1557 411.044C95.0051 411.549 94.6932 411.807 94.2307 411.807H87.9278C87.4654 411.807 87.1534 411.549 87.0029 411.044L75.3114 375.507C75.1501 374.99 75.3329 374.732 75.8492 374.732H83.2276C83.7439 374.732 84.0773 374.99 84.2279 375.507L91.3804 399.965H91.5418L98.619 375.507C98.7696 374.99 99.103 374.732 99.6193 374.732H105.158C105.664 374.732 105.997 374.99 106.159 375.507L113.688 399.965H113.849L120.614 375.507C120.765 374.99 121.098 374.732 121.615 374.732H129.004C129.509 374.732 129.692 374.99 129.542 375.507L117.85 411.044C117.689 411.549 117.388 411.807 116.925 411.807H110.612ZM158.614 411.807C158.098 411.807 157.84 411.549 157.84 411.044V408.344H157.765C156.893 409.624 155.592 410.667 153.839 411.463C152.096 412.259 149.924 412.657 147.31 412.657C145.611 412.657 144.008 412.42 142.502 411.958C140.986 411.506 139.663 410.807 138.533 409.882C137.404 408.968 136.511 407.795 135.844 406.386C135.178 404.977 134.844 403.299 134.844 401.353C134.844 397.298 136.167 394.318 138.802 392.425C141.448 390.532 145.073 389.575 149.687 389.575H157.227C157.539 389.575 157.689 389.425 157.689 389.113V387.349C157.689 385.198 157.098 383.627 155.925 382.659C154.742 381.681 152.591 381.197 149.461 381.197C147.353 381.197 145.643 381.433 144.309 381.928C142.976 382.412 141.868 383.014 140.996 383.735C140.534 384.09 140.179 384.036 139.921 383.574L137.071 378.497C136.823 378.088 136.866 377.755 137.232 377.507C138.716 376.421 140.512 375.55 142.61 374.883C144.718 374.216 147.31 373.883 150.386 373.883C156.022 373.883 160.013 374.915 162.347 376.959C164.681 379.013 165.842 382.294 165.842 386.811V411.044C165.842 411.549 165.584 411.807 165.078 411.807H158.614ZM149.461 405.655C152.129 405.655 154.161 405.139 155.57 404.117C156.99 403.095 157.689 401.503 157.689 399.352V396.502C157.689 396.19 157.539 396.039 157.227 396.039H151.075C148.31 396.039 146.278 396.437 144.998 397.233C143.718 398.029 143.072 399.298 143.072 401.041C143.072 404.117 145.202 405.655 149.461 405.655ZM175.92 411.807C175.404 411.807 175.146 411.549 175.146 411.044V405.429C175.146 405.171 175.232 404.913 175.382 404.655L194.302 382.423V382.272H176.921C176.404 382.272 176.146 382.014 176.146 381.498V375.507C176.146 374.99 176.404 374.732 176.921 374.732H203.691C204.197 374.732 204.455 374.99 204.455 375.507V381.498C204.455 381.81 204.38 382.068 204.229 382.272L185.536 404.117V404.267H203.691C204.197 404.267 204.455 404.526 204.455 405.042V411.044C204.455 411.549 204.197 411.807 203.691 411.807H175.92Z" fill="#181242"/>
<path fill-rule="evenodd" clip-rule="evenodd" d="M622.176 6.07964V330.352C622.176 353.811 612.857 376.311 596.267 392.909C579.679 409.486 557.179 418.807 533.72 418.807H254.635C251.246 418.807 248.5 416.055 248.5 412.677V6.07964C248.5 2.70159 251.246 -0.0507812 254.635 -0.0507812H616.041C619.429 -0.0507812 622.176 2.70159 622.176 6.07964ZM609.906 12.231H260.769V406.546H533.72C553.926 406.546 573.304 398.518 587.592 384.214C601.88 369.93 609.906 350.558 609.906 330.352V12.231ZM387.899 383.379H291.38C287.992 383.379 285.246 380.627 285.246 377.249V281.266C285.246 279.556 285.965 277.93 287.197 276.783L431.155 142.641C432.94 140.973 435.54 140.535 437.777 141.494C440.015 142.474 441.466 144.664 441.472 147.103L441.702 227.155H531.308C534.696 227.155 537.443 229.886 537.443 233.285V275.49C564.432 278.555 585.428 301.472 585.428 329.289C585.428 359.17 561.166 383.421 531.281 383.421C513.769 383.421 498.186 375.101 488.286 362.194V377.249C488.286 380.627 485.539 383.379 482.151 383.379H387.899ZM297.515 296.029V371.097H373.029L335.314 333.605L297.515 296.029ZM429.445 231.575L429.243 161.178L300.226 281.412L333.506 314.505V281.266C333.506 279.64 334.157 278.076 335.314 276.929L383.574 228.927C385.33 227.196 387.966 226.675 390.255 227.614C392.543 228.573 394.034 230.804 394.034 233.285V275.136H429.378L429.389 269.276L429.203 233.306C429.199 232.722 429.282 232.138 429.445 231.575ZM525.173 280.703V239.416C525.173 239.416 446.258 239.416 441.708 239.416L441.658 269.255L441.687 275.136H482.151C485.539 275.136 488.286 277.888 488.286 281.266V323.117H525.171L525.146 281.266C525.146 281.079 525.157 280.891 525.173 280.703ZM531.308 335.399C530.876 335.399 489.85 335.419 489.85 335.419C492.821 355.625 510.251 371.16 531.281 371.16C554.393 371.16 573.158 352.393 573.158 329.289C573.158 308.27 557.64 290.837 537.443 287.856V329.247C537.443 332.646 534.698 335.399 531.312 335.399H531.308ZM394.034 371.097H476.016V329.247V287.397H435.584C435.557 287.397 435.53 287.397 435.503 287.397H394.034V371.097ZM381.764 362.486V281.266C381.764 262.562 381.764 248.028 381.764 248.028L345.776 283.831V326.703L381.764 362.486Z" fill="#181242"/>
</svg>
