<svg width="617" height="408" viewBox="0 0 617 408" fill="none" xmlns="http://www.w3.org/2000/svg">
<path fill-rule="evenodd" clip-rule="evenodd" d="M616.304 0.691406V324.169C616.304 346.216 607.537 367.351 591.972 382.948C576.371 398.511 555.223 407.273 533.217 407.273C426.477 407.273 254.898 407.273 254.898 407.273V0.691406H616.304Z" fill="#181242"/>
<path d="M530.993 370.459C557.819 370.459 579.565 348.713 579.565 321.888C579.565 295.063 557.819 273.316 530.993 273.316C504.168 273.316 482.422 295.063 482.422 321.888C482.422 348.713 504.168 370.459 530.993 370.459Z" fill="#FF3941"/>
<path fill-rule="evenodd" clip-rule="evenodd" d="M435.837 225.904L435.591 139.742L291.633 273.885V369.868H388.152V273.885H435.755L435.837 225.904Z" fill="#4F4FA6"/>
<path fill-rule="evenodd" clip-rule="evenodd" d="M291.633 273.887V369.87H388.152L291.633 273.887Z" fill="#FFC700"/>
<path fill-rule="evenodd" clip-rule="evenodd" d="M339.898 321.868L388.157 369.87V225.906L339.898 273.887V321.868Z" fill="#FF9F18"/>
<path d="M482.408 273.887H388.156V369.858H482.408V273.887Z" fill="#59D9E3"/>
<path fill-rule="evenodd" clip-rule="evenodd" d="M435.84 273.887H482.407V321.868H531.564V225.906H435.594L435.84 273.887Z" fill="#00A9B5"/>
<path fill-rule="evenodd" clip-rule="evenodd" d="M177.606 307.959C174.681 307.959 172.164 307.701 170.056 307.185C167.948 306.669 166.163 305.507 164.7 303.7V306.152C164.7 310.798 164.313 314.864 163.539 318.348C162.764 321.833 161.495 324.737 159.731 327.06C157.968 329.383 155.623 331.125 152.698 332.287C149.772 333.448 146.159 334.029 141.857 334.029H137.082C136.221 334.029 135.791 333.599 135.791 332.738V322.414C135.791 321.553 136.221 321.123 137.082 321.123H139.921C142.416 321.123 144.352 320.693 145.729 319.833C147.105 318.972 148.116 317.703 148.761 316.025C149.407 314.348 149.794 312.326 149.923 309.96C150.052 307.594 150.117 304.862 150.117 301.764V255.69C150.117 254.83 150.547 254.4 151.407 254.4H163.41C164.27 254.4 164.7 254.83 164.7 255.69V287.181C164.7 289.762 165.668 291.741 167.604 293.117C169.54 294.494 172.143 295.182 175.412 295.182H183.93C186.081 295.182 187.651 294.688 188.641 293.698C189.63 292.709 190.125 290.923 190.125 288.342V255.69C190.125 254.83 190.555 254.4 191.415 254.4H203.418C204.278 254.4 204.708 254.83 204.708 255.69V291.698C204.708 297.29 203.547 301.399 201.224 304.023C198.901 306.647 195.029 307.959 189.609 307.959H177.606ZM1.56991 334.029C0.709518 334.029 0.279323 333.599 0.279323 332.738V322.414C0.279323 321.553 0.709518 321.123 1.56991 321.123H4.4092C8.02285 321.123 10.6255 320.22 12.2173 318.413C13.809 316.606 14.6048 313.853 14.6048 310.153V255.69C14.6048 254.83 15.035 254.4 15.8954 254.4H27.8979C28.7583 254.4 29.1885 254.83 29.1885 255.69V310.411C29.1885 326.156 21.574 334.029 6.34509 334.029H1.56991ZM15.7664 241.494C14.906 241.494 14.4758 241.064 14.4758 240.203V229.104C14.4758 228.244 14.906 227.814 15.7664 227.814H28.156C29.0164 227.814 29.4466 228.244 29.4466 229.104V240.203C29.4466 241.064 29.0164 241.494 28.156 241.494H15.7664ZM60.0336 306.669C60.0336 307.529 59.6034 307.959 58.743 307.959H46.7405C45.8801 307.959 45.4499 307.529 45.4499 306.669V221.49C45.4499 220.629 45.8801 220.199 46.7405 220.199H58.743C59.6034 220.199 60.0336 220.629 60.0336 221.49V306.669ZM100.3 307.959C96.2561 307.959 92.6639 307.508 89.5235 306.604C86.3831 305.701 83.7373 304.195 81.5864 302.087C79.4354 299.979 77.7791 297.247 76.6176 293.892C75.4561 290.536 74.8753 286.406 74.8753 281.502C74.8753 276.254 75.5851 271.758 77.0048 268.016C78.4244 264.273 80.3603 261.218 82.8124 258.852C85.2645 256.486 88.0823 254.765 91.2658 253.69C94.4492 252.614 97.8048 252.077 101.332 252.077C105.204 252.077 108.753 252.593 111.98 253.625C115.206 254.658 117.981 256.293 120.304 258.53C122.627 260.767 124.434 263.692 125.724 267.306C127.015 270.919 127.66 275.35 127.66 280.599V310.798C127.66 318.886 125.638 324.78 121.595 328.48C117.551 332.179 111.657 334.029 103.914 334.029H86.4906C85.6302 334.029 85.2 333.599 85.2 332.738V322.414C85.2 321.553 85.6302 321.123 86.4906 321.123H101.59C103.311 321.123 104.903 320.973 106.366 320.671C107.828 320.37 109.076 319.747 110.108 318.8C111.141 317.854 111.937 316.52 112.496 314.799C113.055 313.079 113.335 310.798 113.335 307.959H100.3ZM101.461 264.983C97.5036 264.983 94.4492 266.445 92.2983 269.371C90.1473 272.296 89.0718 276.211 89.0718 281.115C89.0718 286.535 90.1688 290.235 92.3628 292.214C94.5568 294.193 97.7187 295.182 101.849 295.182H113.335V280.47C113.335 275.393 112.388 271.543 110.496 268.919C108.603 266.295 105.591 264.983 101.461 264.983ZM188.963 332.48C188.103 332.48 187.673 332.05 187.673 331.19V320.091C187.673 319.23 188.103 318.8 188.963 318.8H201.353C202.213 318.8 202.644 319.23 202.644 320.091V331.19C202.644 332.05 202.213 332.48 201.353 332.48H188.963ZM0.257812 354.894C0.257812 354.377 0.515929 354.119 1.02141 354.119H20.4878C26.0266 354.119 30.1242 355.388 32.7914 357.926C35.4586 360.465 36.7922 363.842 36.7922 368.047C36.7922 371.015 36.1899 373.392 34.9854 375.156C33.7808 376.93 32.3612 378.253 30.7157 379.124V379.275C31.5331 379.587 32.3612 380.071 33.1786 380.738C33.9959 381.404 34.738 382.233 35.4048 383.233C36.0716 384.233 36.6309 385.394 37.0611 386.696C37.502 388.008 37.7171 389.46 37.7171 391.041C37.7171 396.278 36.1577 400.15 33.028 402.656C29.8983 405.173 25.4565 406.431 19.7134 406.431H1.02141C0.515929 406.431 0.257812 406.173 0.257812 405.657V354.894ZM20.2512 375.887C22.5635 375.887 24.3811 375.263 25.7147 374.005C27.0483 372.747 27.7151 371.101 27.7151 369.047C27.7151 366.939 27.0483 365.261 25.7147 364.003C24.3811 362.755 22.5635 362.121 20.2512 362.121H9.79741C9.48552 362.121 9.33495 362.271 9.33495 362.583V375.425C9.33495 375.737 9.48552 375.887 9.79741 375.887H20.2512ZM9.33495 397.967C9.33495 398.279 9.48552 398.429 9.79741 398.429H20.7136C23.2841 398.429 25.2414 397.763 26.5966 396.429C27.9624 395.095 28.64 393.332 28.64 391.127C28.64 388.965 27.9624 387.223 26.5966 385.889C25.2414 384.556 23.2841 383.889 20.7136 383.889H9.79741C9.48552 383.889 9.33495 384.05 9.33495 384.351V397.967ZM47.5579 406.431C47.0524 406.431 46.7943 406.173 46.7943 405.657V370.123C46.7943 369.606 47.0524 369.348 47.5579 369.348H54.6346C55.1508 369.348 55.4089 369.606 55.4089 370.123V373.274H55.4842C56.3554 371.843 57.5922 370.682 59.1732 369.811C60.7649 368.939 62.7438 368.509 65.0991 368.509C66.5833 368.509 68.0137 368.778 69.3688 369.316C70.7239 369.854 71.8962 370.606 72.8641 371.585C73.2298 371.94 73.2836 372.306 73.0255 372.661L68.9494 377.812C68.6375 378.221 68.2826 378.275 67.8739 377.963C67.0027 377.404 66.1208 376.973 65.2497 376.662C64.3785 376.35 63.4321 376.199 62.4104 376.199C59.9475 376.199 58.1622 377.016 57.0652 378.662C55.9574 380.297 55.4089 382.609 55.4089 385.588V405.657C55.4089 406.173 55.1508 406.431 54.6346 406.431H47.5579ZM110.872 406.431C110.409 406.431 110.098 406.173 109.947 405.657L102.795 381.964H102.634L95.4064 405.657C95.2558 406.173 94.944 406.431 94.4815 406.431H88.1791C87.7167 406.431 87.4048 406.173 87.2542 405.657L75.5636 370.123C75.4023 369.606 75.5851 369.348 76.1014 369.348H83.4792C83.9955 369.348 84.3289 369.606 84.4794 370.123L91.6422 394.579H91.7928L98.8695 370.123C99.0201 369.606 99.3535 369.348 99.8697 369.348H105.408C105.914 369.348 106.247 369.606 106.409 370.123L113.948 394.579H114.098L120.863 370.123C121.025 369.606 121.358 369.348 121.863 369.348H129.252C129.768 369.348 129.94 369.606 129.79 370.123L118.099 405.657C117.949 406.173 117.637 406.431 117.174 406.431H110.872ZM158.871 406.431C158.355 406.431 158.097 406.173 158.097 405.657V402.968H158.021C157.15 404.248 155.838 405.291 154.096 406.087C152.354 406.883 150.17 407.27 147.557 407.27C145.868 407.27 144.266 407.044 142.749 406.582C141.244 406.119 139.921 405.431 138.792 404.506C137.662 403.581 136.759 402.419 136.103 401.011C135.436 399.591 135.103 397.913 135.103 395.967C135.103 391.912 136.415 388.944 139.061 387.04C141.696 385.147 145.331 384.201 149.945 384.201H157.484C157.785 384.201 157.946 384.05 157.946 383.738V381.964C157.946 379.813 157.355 378.253 156.172 377.275C154.999 376.307 152.838 375.812 149.708 375.812C147.611 375.812 145.89 376.059 144.556 376.543C143.223 377.027 142.126 377.64 141.255 378.35C140.792 378.716 140.426 378.662 140.179 378.199L137.329 373.123C137.071 372.714 137.125 372.381 137.48 372.123C138.975 371.047 140.76 370.176 142.868 369.509C144.965 368.843 147.557 368.509 150.633 368.509C156.279 368.509 160.258 369.531 162.592 371.585C164.926 373.639 166.098 376.92 166.098 381.426V405.657C166.098 406.173 165.84 406.431 165.324 406.431H158.871ZM149.708 400.279C152.375 400.279 154.419 399.763 155.827 398.741C157.236 397.709 157.946 396.117 157.946 393.966V391.127C157.946 390.815 157.785 390.664 157.484 390.664H151.332C148.557 390.664 146.535 391.062 145.255 391.847C143.965 392.643 143.33 393.912 143.33 395.655C143.33 398.741 145.46 400.279 149.708 400.279ZM176.176 406.431C175.659 406.431 175.401 406.173 175.401 405.657V400.043C175.401 399.785 175.477 399.526 175.638 399.279L194.556 377.049V376.887H177.176C176.66 376.887 176.402 376.64 176.402 376.124V370.123C176.402 369.606 176.66 369.348 177.176 369.348H203.945C204.45 369.348 204.708 369.606 204.708 370.123V376.124C204.708 376.425 204.633 376.683 204.483 376.887L185.791 398.741V398.892H203.945C204.45 398.892 204.708 399.15 204.708 399.655V405.657C204.708 406.173 204.45 406.431 203.945 406.431H176.176Z" fill="white"/>
</svg>
