<svg width="363" height="407" viewBox="0 0 363 407" fill="none" xmlns="http://www.w3.org/2000/svg">
<path fill-rule="evenodd" clip-rule="evenodd" d="M362.054 0.339844V324.238C362.054 369.909 325.055 406.921 279.36 406.921H0.648438V0.339844H362.054Z" fill="#181242"/>
<path d="M277.286 372.548C303.802 372.548 325.298 351.052 325.298 324.536C325.298 298.019 303.802 276.523 277.286 276.523C250.769 276.523 229.273 298.019 229.273 324.536C229.273 351.052 250.769 372.548 277.286 372.548Z" fill="#FF3941"/>
<path fill-rule="evenodd" clip-rule="evenodd" d="M181.587 228.556L181.341 142.395L37.3828 276.537V372.52H133.902V276.537H181.505L181.587 228.556Z" fill="#4F4FA6"/>
<path fill-rule="evenodd" clip-rule="evenodd" d="M37.3828 276.539V372.522H133.902L37.3828 276.539Z" fill="#FFC700"/>
<path fill-rule="evenodd" clip-rule="evenodd" d="M85.6484 324.517L133.907 372.519V228.555L85.6484 276.536V324.517Z" fill="#FF9F18"/>
<path d="M228.158 276.539H133.906V372.51H228.158V276.539Z" fill="#59D9E3"/>
<path fill-rule="evenodd" clip-rule="evenodd" d="M181.59 276.536H228.157V324.517H277.314V228.555H181.344L181.59 276.536Z" fill="#00A9B5"/>
<path fill-rule="evenodd" clip-rule="evenodd" d="M175.449 276.509L175.203 228.507C175.195 226.88 175.837 225.317 176.988 224.149C178.139 223.002 179.705 222.355 181.338 222.355H277.308C280.697 222.355 283.443 225.087 283.443 228.486V324.448C283.443 327.847 280.697 330.599 277.308 330.599H228.151C224.763 330.599 222.016 327.847 222.016 324.448V282.598H181.584C178.208 282.598 175.466 279.887 175.449 276.509ZM187.687 270.337H228.151C231.54 270.337 234.286 273.089 234.286 276.467V318.317H271.173V234.617H187.504L187.687 270.337Z" fill="#181242"/>
<path fill-rule="evenodd" clip-rule="evenodd" d="M187.723 228.488L187.641 276.489C187.635 279.867 184.891 282.599 181.507 282.599H140.038V372.451C140.038 375.829 137.292 378.582 133.903 378.582H37.3847C33.9962 378.582 31.25 375.829 31.25 372.451V276.468C31.25 274.779 31.9569 273.153 33.2039 271.985L177.159 137.843C178.944 136.175 181.544 135.737 183.782 136.696C186.019 137.676 187.471 139.866 187.477 142.306L187.723 228.467C187.723 228.488 187.723 228.488 187.723 228.488ZM175.453 228.488L175.247 156.381L43.5194 279.137V366.3H127.769V276.468C127.769 273.09 130.515 270.338 133.903 270.338H175.382L175.453 228.488Z" fill="#181242"/>
<path fill-rule="evenodd" clip-rule="evenodd" d="M133.9 270.336H228.152C231.541 270.336 234.287 273.088 234.287 276.466V372.449C234.287 375.827 231.541 378.58 228.152 378.58H133.9C130.512 378.58 127.766 375.827 127.766 372.449V276.466C127.766 273.088 130.512 270.336 133.9 270.336ZM140.035 282.597V366.298H222.018V282.597H140.035Z" fill="#181242"/>
<path fill-rule="evenodd" clip-rule="evenodd" d="M79.5078 324.446V276.465C79.5078 274.839 80.1584 273.275 81.3157 272.128L129.576 224.126C131.332 222.396 133.967 221.874 136.257 222.813C138.545 223.772 140.035 226.003 140.035 228.485V372.448C140.035 374.909 138.545 377.161 136.257 378.099C133.967 379.058 131.332 378.537 129.576 376.785L81.3157 328.804C80.1584 327.657 79.5078 326.094 79.5078 324.446ZM91.7773 321.902L127.766 357.685V243.227L91.7773 279.03V321.902Z" fill="#181242"/>
<path fill-rule="evenodd" clip-rule="evenodd" d="M41.7115 272.128L138.228 368.09C139.99 369.842 140.522 372.49 139.575 374.784C138.626 377.078 136.387 378.579 133.903 378.579H37.3847C33.9962 378.579 31.25 375.826 31.25 372.448V276.466C31.25 273.984 32.7409 271.753 35.0305 270.815C37.318 269.856 39.9537 270.377 41.7115 272.128ZM43.5194 291.229V366.297H119.034L43.5194 291.229Z" fill="#181242"/>
<path fill-rule="evenodd" clip-rule="evenodd" d="M277.28 270.375C307.165 270.375 331.427 294.647 331.427 324.528C331.427 354.409 307.165 378.681 277.28 378.681C247.396 378.681 223.133 354.409 223.133 324.528H235.402C235.402 347.653 254.167 366.399 277.28 366.399C300.392 366.399 319.157 347.653 319.157 324.528C319.157 301.424 300.392 282.657 277.28 282.657V270.375Z" fill="#181242"/>
</svg>
