<svg width="617" height="407" viewBox="0 0 617 407" fill="none" xmlns="http://www.w3.org/2000/svg">
<path fill-rule="evenodd" clip-rule="evenodd" d="M616.054 0.339844V324.238C616.054 369.909 579.055 406.921 533.36 406.921H254.648V0.339844H616.054Z" fill="#181242"/>
<path d="M531.286 372.548C557.802 372.548 579.298 351.052 579.298 324.536C579.298 298.019 557.802 276.523 531.286 276.523C504.769 276.523 483.273 298.019 483.273 324.536C483.273 351.052 504.769 372.548 531.286 372.548Z" fill="#FF3941"/>
<path fill-rule="evenodd" clip-rule="evenodd" d="M435.587 228.556L435.341 142.395L291.383 276.537V372.52H387.902V276.537H435.505L435.587 228.556Z" fill="#4F4FA6"/>
<path fill-rule="evenodd" clip-rule="evenodd" d="M291.383 276.539V372.522H387.902L291.383 276.539Z" fill="#FFC700"/>
<path fill-rule="evenodd" clip-rule="evenodd" d="M339.648 324.517L387.907 372.519V228.555L339.648 276.536V324.517Z" fill="#FF9F18"/>
<path d="M482.158 276.539H387.906V372.51H482.158V276.539Z" fill="#59D9E3"/>
<path fill-rule="evenodd" clip-rule="evenodd" d="M435.59 276.536H482.157V324.517H531.314V228.555H435.344L435.59 276.536Z" fill="#00A9B5"/>
<path fill-rule="evenodd" clip-rule="evenodd" d="M429.449 276.509L429.203 228.507C429.195 226.88 429.837 225.317 430.988 224.149C432.139 223.002 433.705 222.355 435.338 222.355H531.308C534.697 222.355 537.443 225.087 537.443 228.486V324.448C537.443 327.847 534.697 330.599 531.308 330.599H482.151C478.763 330.599 476.016 327.847 476.016 324.448V282.598H435.584C432.208 282.598 429.466 279.887 429.449 276.509ZM441.687 270.337H482.151C485.54 270.337 488.286 273.089 488.286 276.467V318.317H525.173V234.617H441.504L441.687 270.337Z" fill="#181242"/>
<path fill-rule="evenodd" clip-rule="evenodd" d="M441.723 228.488L441.641 276.489C441.635 279.867 438.891 282.599 435.507 282.599H394.038V372.451C394.038 375.829 391.292 378.582 387.903 378.582H291.385C287.996 378.582 285.25 375.829 285.25 372.451V276.468C285.25 274.779 285.957 273.153 287.204 271.985L431.159 137.843C432.944 136.175 435.544 135.737 437.782 136.696C440.019 137.676 441.471 139.866 441.477 142.306L441.723 228.467C441.723 228.488 441.723 228.488 441.723 228.488ZM429.453 228.488L429.247 156.381L297.519 279.137V366.3H381.769V276.468C381.769 273.09 384.515 270.338 387.903 270.338H429.382L429.453 228.488Z" fill="#181242"/>
<path fill-rule="evenodd" clip-rule="evenodd" d="M387.9 270.336H482.152C485.541 270.336 488.287 273.088 488.287 276.466V372.449C488.287 375.827 485.541 378.58 482.152 378.58H387.9C384.512 378.58 381.766 375.827 381.766 372.449V276.466C381.766 273.088 384.512 270.336 387.9 270.336ZM394.035 282.597V366.298H476.018V282.597H394.035Z" fill="#181242"/>
<path fill-rule="evenodd" clip-rule="evenodd" d="M333.508 324.446V276.465C333.508 274.839 334.158 273.275 335.316 272.128L383.576 224.126C385.332 222.396 387.967 221.874 390.257 222.813C392.545 223.772 394.035 226.003 394.035 228.485V372.448C394.035 374.909 392.545 377.161 390.257 378.099C387.967 379.058 385.332 378.537 383.576 376.785L335.316 328.804C334.158 327.657 333.508 326.094 333.508 324.446ZM345.777 321.902L381.766 357.685V243.227L345.777 279.03V321.902Z" fill="#181242"/>
<path fill-rule="evenodd" clip-rule="evenodd" d="M295.712 272.128L392.228 368.09C393.99 369.842 394.522 372.49 393.575 374.784C392.626 377.078 390.387 378.579 387.903 378.579H291.385C287.996 378.579 285.25 375.826 285.25 372.448V276.466C285.25 273.984 286.741 271.753 289.03 270.815C291.318 269.856 293.954 270.377 295.712 272.128ZM297.519 291.229V366.297H373.034L297.519 291.229Z" fill="#181242"/>
<path fill-rule="evenodd" clip-rule="evenodd" d="M531.28 270.375C561.165 270.375 585.427 294.647 585.427 324.528C585.427 354.409 561.165 378.681 531.28 378.681C501.396 378.681 477.133 354.409 477.133 324.528H489.402C489.402 347.653 508.167 366.399 531.28 366.399C554.392 366.399 573.157 347.653 573.157 324.528C573.157 301.424 554.392 282.657 531.28 282.657V270.375Z" fill="#181242"/>
<path d="M1.2985 333.587C0.438039 333.587 0.0078125 333.156 0.0078125 332.296V321.97C0.0078125 321.11 0.438039 320.68 1.2985 320.68H4.138C7.75191 320.68 10.3548 319.776 11.9466 317.969C13.5385 316.162 14.3344 313.409 14.3344 309.709V255.242C14.3344 254.382 14.7646 253.951 15.6251 253.951H27.6284C28.4889 253.951 28.9191 254.382 28.9191 255.242V309.967C28.9191 325.713 21.3041 333.587 6.07403 333.587H1.2985ZM15.496 241.045C14.6356 241.045 14.2053 240.614 14.2053 239.754V228.654C14.2053 227.794 14.6356 227.363 15.496 227.363H27.8866C28.747 227.363 29.1773 227.794 29.1773 228.654V239.754C29.1773 240.614 28.747 241.045 27.8866 241.045H15.496Z" fill="#181242"/>
<path d="M59.7644 306.226C59.7644 307.086 59.3342 307.517 58.4737 307.517H46.4704C45.6099 307.517 45.1797 307.086 45.1797 306.226V221.041C45.1797 220.18 45.6099 219.75 46.4704 219.75H58.4737C59.3342 219.75 59.7644 220.18 59.7644 221.041V306.226Z" fill="#181242"/>
<path d="M100.036 307.516C95.9917 307.516 92.3993 307.064 89.2586 306.16C86.118 305.257 83.4721 303.751 81.3209 301.643C79.1698 299.535 77.5134 296.803 76.3518 293.447C75.1902 290.091 74.6094 285.961 74.6094 281.057C74.6094 275.808 75.3193 271.312 76.739 267.569C78.1588 263.826 80.0948 260.771 82.5471 258.405C84.9994 256.039 87.8174 254.318 91.0011 253.242C94.1847 252.167 97.5405 251.629 101.068 251.629C104.94 251.629 108.49 252.145 111.717 253.178C114.943 254.21 117.718 255.845 120.041 258.082C122.365 260.32 124.172 263.245 125.462 266.859C126.753 270.473 127.398 274.904 127.398 280.153V310.355C127.398 318.443 125.376 324.337 121.332 328.037C117.288 331.737 111.394 333.587 103.65 333.587H86.2255C85.3651 333.587 84.9348 333.157 84.9348 332.297V321.971C84.9348 321.111 85.3651 320.681 86.2255 320.681H101.327C103.047 320.681 104.639 320.53 106.102 320.229C107.565 319.928 108.812 319.304 109.845 318.357C110.878 317.411 111.674 316.077 112.233 314.356C112.792 312.635 113.072 310.355 113.072 307.516H100.036ZM101.197 264.536C97.2394 264.536 94.1847 265.999 92.0336 268.924C89.8825 271.85 88.8069 275.765 88.8069 280.669C88.8069 286.09 89.904 289.79 92.0981 291.769C94.2923 293.748 97.4545 294.738 101.585 294.738H113.072V280.024C113.072 274.947 112.125 271.097 110.232 268.472C108.339 265.848 105.328 264.536 101.197 264.536Z" fill="#181242"/>
<path d="M149.858 255.244C149.858 254.383 150.288 253.953 151.149 253.953H163.152C164.012 253.953 164.443 254.383 164.443 255.244V286.736C164.443 289.318 165.411 291.297 167.347 292.674C169.283 294.05 171.886 294.739 175.155 294.739H177.349C179.07 294.739 180.361 295.212 181.221 296.158C182.082 297.105 182.512 298.697 182.512 300.934C182.512 303.429 182.103 305.15 181.286 306.097C180.469 307.043 179.156 307.517 177.349 307.517C174.424 307.517 171.907 307.258 169.799 306.742C167.691 306.226 165.905 305.064 164.443 303.257V305.71C164.443 310.356 164.055 314.422 163.281 317.907C162.507 321.391 161.237 324.295 159.473 326.619C157.71 328.942 155.365 330.684 152.439 331.846C149.514 333.008 145.9 333.588 141.597 333.588H136.822C135.961 333.588 135.531 333.158 135.531 332.298V321.972C135.531 321.112 135.961 320.681 136.822 320.681H139.661C142.157 320.681 144.093 320.251 145.47 319.391C146.846 318.53 147.857 317.261 148.503 315.583C149.148 313.905 149.535 311.883 149.664 309.517C149.793 307.151 149.858 304.419 149.858 301.321V255.244Z" fill="#181242"/>
<path d="M188.708 332.04C187.848 332.04 187.418 331.609 187.418 330.749V319.649C187.418 318.788 187.848 318.358 188.708 318.358H201.099C201.959 318.358 202.39 318.788 202.39 319.649V330.749C202.39 331.609 201.959 332.04 201.099 332.04H188.708ZM177.35 307.517C175.629 307.517 174.339 307.215 173.478 306.613C172.618 306.011 172.188 304.806 172.188 302.999C172.188 300.848 172.596 298.933 173.414 297.256C174.231 295.578 175.543 294.739 177.35 294.739H183.675C185.826 294.739 187.396 294.244 188.386 293.254C189.375 292.265 189.87 290.479 189.87 287.898V255.244C189.87 254.383 190.3 253.953 191.161 253.953H203.164C204.024 253.953 204.455 254.383 204.455 255.244V291.254C204.455 296.847 203.293 300.956 200.97 303.58C198.647 306.204 194.774 307.517 189.354 307.517H177.35Z" fill="#181242"/>
<path d="M0.0078125 354.453C0.0078125 353.94 0.264213 353.684 0.777014 353.684H20.2378C25.7761 353.684 29.8785 354.953 32.5451 357.491C35.2116 360.03 36.5449 363.401 36.5449 367.606C36.5449 370.58 35.9424 372.952 34.7373 374.721C33.5322 376.49 32.1092 377.811 30.4682 378.683V378.837C31.2887 379.144 32.1092 379.631 32.9297 380.298C33.7502 380.965 34.4937 381.798 35.1604 382.798C35.827 383.798 36.3783 384.952 36.8077 386.259C37.25 387.567 37.468 389.016 37.468 390.605C37.468 395.836 35.9039 399.708 32.7758 402.22C29.6477 404.733 25.212 405.989 19.4686 405.989H0.777014C0.264213 405.989 0.0078125 405.733 0.0078125 405.22V354.453ZM20.0071 375.452C22.3147 375.452 24.1351 374.824 25.4684 373.567C26.8017 372.311 27.4683 370.657 27.4683 368.606C27.4683 366.504 26.8017 364.824 25.4684 363.568C24.1351 362.311 22.3147 361.683 20.0071 361.683H9.54592C9.23824 361.683 9.0844 361.837 9.0844 362.145V374.99C9.0844 375.298 9.23824 375.452 9.54592 375.452H20.0071ZM9.0844 397.528C9.0844 397.836 9.23824 397.99 9.54592 397.99H20.4686C23.0326 397.99 24.9941 397.323 26.353 395.99C27.7119 394.656 28.3914 392.887 28.3914 390.682C28.3914 388.528 27.7119 386.785 26.353 385.452C24.9941 384.118 23.0326 383.452 20.4686 383.452H9.54592C9.23824 383.452 9.0844 383.606 9.0844 383.913V397.528Z" fill="#181242"/>
<path d="M47.3161 405.988C46.8033 405.988 46.5469 405.732 46.5469 405.219V369.682C46.5469 369.169 46.8033 368.913 47.3161 368.913H54.3927C54.9055 368.913 55.1619 369.169 55.1619 369.682V372.835H55.2389C56.1106 371.4 57.3413 370.246 58.931 369.374C60.5207 368.502 62.495 368.066 64.8539 368.066C66.341 368.066 67.764 368.336 69.123 368.874C70.4819 369.413 71.6485 370.169 72.6228 371.143C72.9818 371.502 73.0331 371.861 72.7767 372.22L68.6999 377.374C68.3922 377.784 68.0333 377.835 67.623 377.528C66.7513 376.964 65.8795 376.528 65.0077 376.22C64.136 375.912 63.1873 375.758 62.1617 375.758C59.7002 375.758 57.9183 376.579 56.8157 378.22C55.7132 379.861 55.1619 382.168 55.1619 385.143V405.219C55.1619 405.732 54.9055 405.988 54.3927 405.988H47.3161Z" fill="#181242"/>
<path d="M110.617 405.99C110.156 405.99 109.848 405.733 109.694 405.22L102.541 381.529H102.387L95.1565 405.22C95.0026 405.733 94.695 405.99 94.2334 405.99H87.926C87.4645 405.99 87.1568 405.733 87.0029 405.22L75.3111 369.683C75.1572 369.17 75.3367 368.914 75.8495 368.914H83.2338C83.7466 368.914 84.08 369.17 84.2338 369.683L91.3874 394.144H91.5412L98.6179 369.683C98.7717 369.17 99.1051 368.914 99.6179 368.914H105.156C105.669 368.914 106.002 369.17 106.156 369.683L113.694 394.144H113.848L120.617 369.683C120.771 369.17 121.104 368.914 121.617 368.914H129.001C129.514 368.914 129.694 369.17 129.54 369.683L117.848 405.22C117.694 405.733 117.386 405.99 116.925 405.99H110.617Z" fill="#181242"/>
<path d="M158.62 405.988C158.107 405.988 157.851 405.732 157.851 405.219V402.527H157.774C156.902 403.809 155.594 404.847 153.851 405.642C152.107 406.437 149.928 406.834 147.313 406.834C145.62 406.834 144.018 406.603 142.505 406.142C140.992 405.68 139.672 404.988 138.544 404.065C137.416 403.142 136.518 401.975 135.852 400.565C135.185 399.155 134.852 397.476 134.852 395.527C134.852 391.476 136.172 388.502 138.813 386.604C141.454 384.707 145.082 383.758 149.697 383.758H157.235C157.543 383.758 157.697 383.604 157.697 383.297V381.527C157.697 379.374 157.107 377.81 155.928 376.835C154.748 375.861 152.595 375.374 149.466 375.374C147.364 375.374 145.646 375.617 144.313 376.105C142.979 376.592 141.877 377.194 141.005 377.912C140.544 378.271 140.185 378.22 139.928 377.758L137.082 372.682C136.826 372.271 136.877 371.938 137.236 371.682C138.723 370.605 140.518 369.733 142.621 369.066C144.723 368.4 147.313 368.066 150.389 368.066C156.03 368.066 160.017 369.092 162.351 371.143C164.684 373.194 165.85 376.476 165.85 380.989V405.219C165.85 405.732 165.594 405.988 165.081 405.988H158.62ZM149.466 399.834C152.133 399.834 154.171 399.322 155.582 398.296C156.992 397.27 157.697 395.681 157.697 393.527V390.681C157.697 390.373 157.543 390.219 157.235 390.219H151.082C148.313 390.219 146.287 390.617 145.005 391.412C143.723 392.207 143.082 393.476 143.082 395.219C143.082 398.296 145.21 399.834 149.466 399.834Z" fill="#181242"/>
<path d="M175.925 405.99C175.413 405.99 175.156 405.733 175.156 405.22V399.605C175.156 399.349 175.233 399.092 175.387 398.836L194.309 376.606V376.452H176.925C176.413 376.452 176.156 376.196 176.156 375.683V369.683C176.156 369.17 176.413 368.914 176.925 368.914H203.694C204.206 368.914 204.463 369.17 204.463 369.683V375.683C204.463 375.991 204.386 376.247 204.232 376.452L185.54 398.298V398.451H203.694C204.206 398.451 204.463 398.708 204.463 399.221V405.22C204.463 405.733 204.206 405.99 203.694 405.99H175.925Z" fill="#181242"/>
</svg>
