<svg width="30" height="29" viewBox="0 0 30 29" fill="none" xmlns="http://www.w3.org/2000/svg">
<path d="M25.7579 7.00004C24.8088 7.962 23.2693 7.962 22.3203 7.00004C21.3712 6.03807 21.3712 4.4777 22.3203 3.51574C23.2693 2.55377 24.8088 2.55377 25.7579 3.51574C26.7069 4.4777 26.7069 6.03807 25.7579 7.00004Z" fill="#1DA8B2"/>
<path d="M17.0309 16.7378C15.7282 18.0583 13.6156 18.0583 12.3128 16.7378C11.0101 15.4174 11.0101 13.2761 12.3128 11.9557C13.6156 10.6352 15.7282 10.6352 17.0309 11.9557C18.3337 13.2761 18.3337 15.4174 17.0309 16.7378Z" fill="#1DA8B2"/>
<path d="M10.6668 19.898C10.3514 19.5783 10.3014 19.0649 10.57 18.6857C10.8689 18.2637 11.4482 18.1671 11.8645 18.4697C12.2831 18.7651 12.4033 19.3643 12.1102 19.7902C11.8172 20.2162 11.254 20.3315 10.8338 20.0345L10.7826 19.9978C10.7409 19.9671 10.7023 19.9339 10.6668 19.898ZM8.40347 16.5991C8.29477 16.489 8.21246 16.3484 8.16914 16.1856L8.15141 16.1149C8.03051 15.6104 8.33612 15.1018 8.83393 14.9796C9.33213 14.8567 9.83348 15.1665 9.954 15.6714C10.0867 16.1728 9.79646 16.7025 9.30141 16.8367C8.96744 16.9273 8.62874 16.8275 8.40347 16.5991ZM14.5252 20.9786C14.374 20.8253 14.274 20.6189 14.2562 20.3862C14.2173 19.8685 14.5993 19.4166 15.1101 19.3763C15.6209 19.332 16.0911 19.7144 16.1348 20.2313C16.1786 20.7487 15.8213 21.2021 15.3109 21.2464L15.2526 21.2516C14.9715 21.2736 14.7099 21.1658 14.5252 20.9786ZM8.74926 12.5334C8.48893 12.2692 8.40032 11.87 8.56415 11.5079C8.56534 11.5051 8.58227 11.4684 8.58345 11.466C8.80124 10.9962 9.35616 10.7882 9.8197 11.0081C10.284 11.2281 10.4861 11.7818 10.2691 12.252C10.0521 12.7211 9.49163 12.9474 9.02809 12.7298C8.92136 12.6795 8.82763 12.6125 8.74926 12.5334ZM18.1666 19.2956C18.1639 19.2928 18.1607 19.2896 18.1576 19.2865C17.8004 18.9144 17.8082 18.3192 18.1753 17.9568L18.2186 17.9129C18.5806 17.546 19.1682 17.546 19.5305 17.9129C19.8928 18.2801 19.8928 18.8757 19.5305 19.2425L19.4694 19.3044C19.1055 19.6637 18.525 19.6589 18.1666 19.2956ZM11.5884 9.67247C11.5175 9.60062 11.4573 9.51559 11.412 9.41899C11.193 8.94995 11.3726 8.39748 11.8357 8.17513L11.8921 8.14878C12.358 7.93242 12.9078 8.1392 13.122 8.61144C13.3355 9.08368 13.1307 9.64174 12.6652 9.85809C12.2977 10.0345 11.8617 9.94991 11.5884 9.67247ZM19.8924 15.6116C19.7034 15.4199 19.597 15.1473 19.6246 14.8567C19.6683 14.3389 20.1193 13.935 20.6301 13.9793C21.1401 14.0236 21.5205 14.4583 21.4768 14.976L21.4713 15.0363C21.4221 15.5533 20.9692 15.9321 20.4591 15.8826C20.2362 15.8606 20.0393 15.7608 19.8924 15.6116ZM15.5953 9.33157C15.3673 9.10044 15.2578 8.75874 15.3456 8.42582C15.4779 7.92404 15.9651 7.62026 16.4598 7.75439L16.5145 7.76916C17.0092 7.90648 17.2994 8.42422 17.1635 8.9248C17.0281 9.42578 16.5173 9.71998 16.0234 9.58266C15.8572 9.53755 15.7107 9.44893 15.5953 9.33157ZM18.8783 11.6884C18.8409 11.65 18.8058 11.6081 18.7743 11.5622L18.744 11.5187C18.451 11.0928 18.5538 10.5064 18.974 10.2094C19.3942 9.91198 19.9724 10.0166 20.2658 10.4425L20.2933 10.4828C20.5875 10.908 20.4859 11.4944 20.0661 11.7925C19.692 12.0584 19.191 12.0049 18.8783 11.6884Z" fill="#1DA8B2"/>
<path d="M26.4897 1.93446C26.2667 2.16056 25.9052 2.16056 25.6821 1.93446C25.4588 1.70865 25.4588 1.34227 25.6824 1.11617C25.9052 0.889794 26.2667 0.889794 26.4895 1.11617C26.7125 1.34227 26.7125 1.70865 26.4897 1.93446Z" fill="#1DA8B2"/>
<path d="M27.8647 3.32509C27.6417 3.55118 27.2802 3.55118 27.0574 3.32537C26.8344 3.09927 26.8344 2.73289 27.0574 2.5068C27.2805 2.2807 27.642 2.2807 27.8647 2.50708C28.0875 2.73289 28.0875 3.09927 27.8647 3.32509Z" fill="#1DA8B2"/>
<path d="M28.4585 1.22743C28.2354 1.45353 27.874 1.45353 27.6512 1.22771C27.4281 1.00162 27.4281 0.635236 27.6512 0.409141C27.8742 0.183045 28.2357 0.183045 28.4585 0.409423C28.6813 0.635236 28.6813 1.00162 28.4585 1.22743Z" fill="#1DA8B2"/>
<path d="M22.2657 25.4961C21.3166 24.5341 21.3166 22.9737 22.2657 22.0118C23.2147 21.0498 24.7542 21.0498 25.7033 22.0118C26.6523 22.9737 26.6523 24.5341 25.7033 25.4961C24.7542 26.458 23.2147 26.458 22.2657 25.4961Z" fill="#1DA8B2"/>
<path d="M27.2629 26.241C27.0401 26.0152 27.0401 25.6488 27.2629 25.423C27.4857 25.1966 27.8472 25.1966 28.0702 25.4227C28.2933 25.6488 28.2933 26.0152 28.0702 26.2413C27.8474 26.4671 27.486 26.4671 27.2629 26.241Z" fill="#1DA8B2"/>
<path d="M25.8879 27.6317C25.6651 27.4058 25.6651 27.0395 25.8879 26.8137C26.1107 26.5873 26.4722 26.5873 26.6952 26.8134C26.9183 27.0395 26.9183 27.4058 26.6952 27.6319C26.4724 27.8578 26.111 27.8578 25.8879 27.6317Z" fill="#1DA8B2"/>
<path d="M27.9584 28.2336C27.7354 28.0075 27.7355 27.6411 27.9583 27.4153C28.1814 27.1887 28.5429 27.1888 28.7662 27.4152C28.9889 27.6411 28.9891 28.0078 28.7663 28.2335C28.5429 28.4593 28.1811 28.4595 27.9584 28.2336Z" fill="#1DA8B2"/>
<path d="M4.06245 22C5.01152 21.038 6.55098 21.038 7.50005 22C8.44912 22.9619 8.44912 24.5223 7.50005 25.4843C6.55098 26.4462 5.01152 26.4462 4.06245 25.4843C3.11338 24.5223 3.11338 22.9619 4.06245 22Z" fill="#1DA8B2"/>
<path d="M3.32304 27.0653C3.54583 26.8394 3.9073 26.8394 4.13036 27.0655C4.35371 27.2914 4.35371 27.6577 4.13036 27.8835C3.9073 28.1102 3.54583 28.1102 3.32304 27.8838C3.09997 27.6577 3.09997 27.2914 3.32304 27.0653Z" fill="#1DA8B2"/>
<path d="M1.95557 25.6749C2.17864 25.4488 2.54011 25.4488 2.7629 25.6746C2.98596 25.9007 2.98596 26.2671 2.7629 26.4932C2.53983 26.7193 2.17836 26.7193 1.95557 26.4929C1.73279 26.2671 1.73279 25.9007 1.95557 25.6749Z" fill="#1DA8B2"/>
<path d="M1.36182 27.7726C1.58461 27.5468 1.94608 27.5468 2.16943 27.7726C2.39249 27.9987 2.39249 28.365 2.1697 28.5914C1.94608 28.8175 1.58461 28.8175 1.36155 28.5914C1.13876 28.365 1.13876 27.9987 1.36182 27.7726Z" fill="#1DA8B2"/>
<path d="M7.4687 3.51957C8.41777 4.48153 8.41777 6.0419 7.4687 7.00387C6.51963 7.96583 4.98017 7.96583 4.0311 7.00387C3.08203 6.0419 3.08203 4.48153 4.0311 3.51957C4.98017 2.5576 6.51963 2.5576 7.4687 3.51957Z" fill="#1DA8B2"/>
<path d="M2.47148 2.77459C2.69426 3.0004 2.69426 3.36678 2.47148 3.5926C2.24869 3.81898 1.88722 3.81898 1.66415 3.59288C1.44109 3.36678 1.44109 3.0004 1.66415 2.77431C1.88694 2.54849 2.24841 2.54849 2.47148 2.77459Z" fill="#1DA8B2"/>
<path d="M3.8463 1.38358C4.06931 1.60973 4.06922 1.97611 3.84638 2.20187C3.62326 2.42848 3.26179 2.42839 3.0385 2.20196C2.81577 1.97609 2.81558 1.60942 3.03842 1.38366C3.26182 1.15791 3.62357 1.15771 3.8463 1.38358Z" fill="#1DA8B2"/>
<path d="M1.77599 0.778113C1.999 1.00426 1.99891 1.37065 1.77607 1.5964C1.55295 1.82301 1.19148 1.82292 0.968187 1.59649C0.745455 1.37062 0.745265 1.00395 0.968106 0.778196C1.1915 0.552438 1.55325 0.552245 1.77599 0.778113Z" fill="#1DA8B2"/>
</svg>
