<svg width="241" height="86" viewBox="0 0 241 86" fill="none" xmlns="http://www.w3.org/2000/svg">
<path d="M47.9138 8.32107V7.3254C47.9138 7.17122 47.9856 7.09398 48.1288 7.09398H50.7521C50.8953 7.09398 50.967 7.17122 50.967 7.3254V14.4325C50.967 14.8956 51.0493 15.216 51.2143 15.3933C51.3787 15.5706 51.6407 15.6595 51.9989 15.6595H52.6658C53.2389 15.6595 53.5256 16.1303 53.5256 17.0715C53.5256 17.6119 53.4577 17.9782 53.3215 18.171C53.1851 18.3641 52.9666 18.4604 52.6658 18.4604H50.4295C49.727 18.4604 49.1789 18.341 48.7845 18.1014C48.3902 17.8624 48.1288 17.4109 47.9997 16.7473C47.6845 17.025 47.319 17.2336 46.9032 17.3723C46.4871 17.5113 46.0501 17.5806 45.5917 17.5806C45.0324 17.5806 44.4984 17.4961 43.9897 17.3264C43.4806 17.1567 43.0328 16.8942 42.6458 16.539C42.2588 16.1841 41.9539 15.7213 41.7319 15.1498C41.5096 14.5794 41.3984 13.8848 41.3984 13.0667C41.3984 12.1407 41.524 11.373 41.7751 10.7632C42.0257 10.1538 42.3556 9.66751 42.764 9.30502C43.1725 8.94221 43.6383 8.68767 44.1617 8.54078C44.6848 8.3942 45.2185 8.32107 45.7634 8.32107H47.9138ZM43.5489 5.45026C43.4054 5.45026 43.3339 5.37333 43.3339 5.21884V2.95018C43.3339 2.796 43.4054 2.71875 43.5489 2.71875H45.699C45.8422 2.71875 45.914 2.796 45.914 2.95018V5.21884C45.914 5.37333 45.8422 5.45026 45.699 5.45026H43.5489ZM46.1401 14.7798C46.6814 14.7798 47.1125 14.6142 47.4331 14.2821C47.7536 13.9503 47.9138 13.4292 47.9138 12.7191V11.1219H46.2042C45.6622 11.1219 45.2279 11.2609 44.9003 11.5389C44.5725 11.8165 44.409 12.3256 44.409 13.0667C44.409 13.6996 44.5725 14.1431 44.9003 14.3976C45.2279 14.6522 45.6414 14.7798 46.1401 14.7798ZM46.8602 5.45026C46.7167 5.45026 46.6453 5.37333 46.6453 5.21884V2.95018C46.6453 2.796 46.7167 2.71875 46.8602 2.71875H49.0318C49.175 2.71875 49.2468 2.796 49.2468 2.95018V5.21884C49.2468 5.37333 49.175 5.45026 49.0318 5.45026H46.8602Z" fill="white"/>
<path d="M52.8914 18.4523C52.5903 18.4523 52.3721 18.3555 52.2356 18.1608C52.0998 17.9661 52.0312 17.5887 52.0312 17.0287C52.0312 16.531 52.1033 16.1729 52.2462 15.9551C52.3897 15.7373 52.605 15.6281 52.8914 15.6281H54.5469C54.3161 15.1206 54.2005 14.4282 54.2005 13.5513C54.2005 12.5357 54.3334 11.6935 54.5989 11.0243C54.8648 10.3553 55.2206 9.82092 55.6658 9.42076C56.1113 9.02091 56.6212 8.7363 57.1963 8.56692C57.7706 8.39723 58.3599 8.31302 58.9633 8.31302C59.5952 8.31302 60.1987 8.39787 60.7735 8.56724C61.3481 8.73756 61.8545 9.02313 62.2929 9.42392C62.7308 9.82536 63.0792 10.3617 63.338 11.0328C63.5968 11.7043 63.7261 12.5493 63.7261 13.5677C63.7261 14.5093 63.6035 15.2925 63.3598 15.9174C63.1154 16.5427 62.781 17.0442 62.3576 17.4222C61.9342 17.8005 61.4313 18.0667 60.8494 18.2209C60.2675 18.3754 59.6394 18.4523 58.9639 18.4523H52.8914ZM58.9633 11.1139C57.7947 11.1139 57.211 11.8667 57.211 13.3714C57.211 14.2617 57.3569 14.8762 57.6489 15.214C57.9409 15.5518 58.379 15.7208 58.9633 15.7208C59.547 15.7208 59.9855 15.5559 60.2778 15.2257C60.5695 14.8958 60.7156 14.3006 60.7156 13.4408C60.7156 11.8892 60.1316 11.1139 58.9633 11.1139ZM57.598 6.36855C57.4545 6.36855 57.3831 6.2913 57.3831 6.1368V3.86814C57.3831 3.71428 57.4545 3.63672 57.598 3.63672H60.2642C60.4074 3.63672 60.4795 3.71428 60.4795 3.86814V6.1368C60.4795 6.2913 60.4074 6.36855 60.2642 6.36855H57.598Z" fill="white"/>
<path d="M66.0312 2.95017C66.0312 2.796 66.1021 2.71875 66.2447 2.71875H68.828C68.9703 2.71875 69.0415 2.796 69.0415 2.95017V14.4325C69.0415 14.8956 69.1238 15.216 69.2888 15.3933C69.4535 15.5706 69.7149 15.6595 70.0739 15.6595H70.6544C70.9408 15.6595 71.1561 15.7716 71.2993 15.9951C71.4425 16.219 71.5142 16.5935 71.5142 17.1177C71.5142 17.6734 71.446 18.0358 71.3101 18.2059C71.1737 18.3759 70.9552 18.4604 70.6544 18.4604H68.5293C67.6321 18.4604 66.9919 18.2255 66.6073 17.7544C66.2233 17.284 66.0312 16.5473 66.0312 15.5437V2.95017Z" fill="white"/>
<path d="M76.7155 8.31302C77.445 8.31302 78.1028 8.40198 78.6892 8.57927C79.2758 8.75688 79.7763 9.01141 80.1906 9.34319C80.6055 9.67498 80.924 10.0878 81.1457 10.5817C81.3674 11.0756 81.4783 11.6464 81.4783 12.2947C81.4783 13.0203 81.3218 13.6722 81.0087 14.2506C80.6955 14.8296 80.2968 15.3039 79.8127 15.6746C79.9274 15.6594 80.0459 15.6515 80.1677 15.6515H82.7157C83.0021 15.6515 83.217 15.7477 83.3605 15.9409C83.5037 16.1337 83.5755 16.5003 83.5755 17.0401C83.5755 17.565 83.5076 17.9316 83.3714 18.1396C83.2353 18.3482 83.0165 18.4523 82.7157 18.4523H79.5119C78.9953 18.4523 78.508 18.4292 78.049 18.383C77.59 18.3365 77.1533 18.1747 76.7372 17.8967C76.2638 18.1747 75.7583 18.3365 75.2205 18.383C74.6832 18.4292 74.2063 18.4523 73.7902 18.4523H70.6723C70.3715 18.4523 70.153 18.3444 70.0169 18.1282C69.8807 17.9122 69.8125 17.5418 69.8125 17.0169C69.8125 16.5234 69.8807 16.1723 70.0169 15.9637C70.153 15.7553 70.3715 15.6515 70.6723 15.6515H73.5967C73.1127 15.2963 72.7175 14.8296 72.4117 14.2506C72.1055 13.6722 71.9532 13.0203 71.9532 12.2947C71.9532 11.6464 72.0638 11.0756 72.2855 10.5817C72.5072 10.0878 72.8254 9.67498 73.24 9.34319C73.6546 9.01141 74.1551 8.75688 74.7415 8.57927C75.3281 8.40198 75.9859 8.31302 76.7155 8.31302ZM74.0387 6.36855C73.8952 6.36855 73.8237 6.2913 73.8237 6.1368V3.86814C73.8237 3.71428 73.8952 3.63672 74.0387 3.63672H76.1888C76.3317 3.63672 76.4038 3.71428 76.4038 3.86814V6.1368C76.4038 6.2913 76.3317 6.36855 76.1888 6.36855H74.0387ZM76.7155 10.6045C76.2541 10.6045 75.8465 10.759 75.4931 11.0676C75.1393 11.3766 74.9632 11.8702 74.9632 12.5493C74.9632 13.2591 75.1361 13.8264 75.4822 14.2506C75.8283 14.6755 76.2397 15.011 76.7155 15.2577C77.1912 15.011 77.6026 14.6755 77.9487 14.2506C78.2948 13.8264 78.468 13.2591 78.468 12.5493C78.468 11.8702 78.2878 11.3766 77.9273 11.0676C77.5665 10.759 77.1624 10.6045 76.7155 10.6045ZM77.3497 6.36855C77.2065 6.36855 77.1348 6.2913 77.1348 6.1368V3.86814C77.1348 3.71428 77.2065 3.63672 77.3497 3.63672H79.5213C79.6645 3.63672 79.7366 3.71428 79.7366 3.86814V6.1368C79.7366 6.2913 79.6645 6.36855 79.5213 6.36855H77.3497Z" fill="white"/>
<path d="M85.1552 8.93991C85.1552 8.78574 85.2258 8.70849 85.3684 8.70849H87.952C88.0943 8.70849 88.1654 8.78574 88.1654 8.93991V14.4033C88.194 14.7892 88.348 15.094 88.6277 15.3176C88.907 15.5414 89.2975 15.6531 89.7998 15.6531H90.2941C90.5808 15.6531 90.7958 15.7611 90.9393 15.9773C91.0822 16.1935 91.1542 16.5481 91.1542 17.042C91.1542 17.9835 90.8672 18.4543 90.2941 18.4543C89.7492 18.4543 89.2761 18.385 88.875 18.246C88.4736 18.107 88.1372 17.791 87.8664 17.2969C87.6385 17.791 87.3003 18.107 86.8519 18.246C86.404 18.385 85.788 18.4543 85.0046 18.4543H82.7898C82.5031 18.4543 82.2881 18.3581 82.1449 18.1649C82.0017 17.9721 81.9297 17.6134 81.9297 17.0882C81.9297 16.564 81.9982 16.1935 82.1341 15.9773C82.2705 15.7611 82.4887 15.6531 82.7898 15.6531H84.123C84.5815 15.6531 84.8679 15.5107 84.9832 15.2248C85.0976 14.9392 85.1552 14.4495 85.1552 13.7549V8.93991ZM83.9293 6.3705C83.7858 6.3705 83.7143 6.29325 83.7143 6.13844V3.86978C83.7143 3.71624 83.7858 3.63835 83.9293 3.63835H86.0797C86.2229 3.63835 86.2947 3.71624 86.2947 3.86978V6.13844C86.2947 6.29325 86.2229 6.3705 86.0797 6.3705H83.9293ZM85.6066 3.05995C85.4631 3.05995 85.3916 2.9827 85.3916 2.82853V0.559867C85.3916 0.405689 85.4631 0.328125 85.6066 0.328125H87.757C87.8999 0.328125 87.9719 0.405689 87.9719 0.559867V2.82853C87.9719 2.9827 87.8999 3.05995 87.757 3.05995H85.6066ZM87.2409 6.3705C87.0974 6.3705 87.0257 6.29325 87.0257 6.13844V3.86978C87.0257 3.71624 87.0974 3.63835 87.2409 3.63835H89.4125C89.5557 3.63835 89.6275 3.71624 89.6275 3.86978V6.13844C89.6275 6.29325 89.5557 6.3705 89.4125 6.3705H87.2409Z" fill="white"/>
<path d="M90.3211 18.4604C90.0346 18.4604 89.8194 18.4066 89.6762 18.2983C89.533 18.1907 89.4609 17.9741 89.4609 17.6499C89.4609 17.465 89.4792 17.2564 89.5147 17.025C89.5506 16.7936 89.6006 16.5776 89.6653 16.3769C89.73 16.1765 89.8156 16.0065 89.9232 15.8675C90.0305 15.7289 90.1634 15.6595 90.3211 15.6595H91.0738C91.432 15.6595 91.6937 15.5706 91.8584 15.3933C92.023 15.216 92.1057 14.8956 92.1057 14.4325V2.95017C92.1057 2.796 92.1771 2.71875 92.3206 2.71875H94.9439C95.0871 2.71875 95.1589 2.796 95.1589 2.95017V15.5434C95.1589 16.5469 94.9654 17.284 94.5784 17.7544C94.1914 18.2255 93.5465 18.4604 92.6432 18.4604H90.3211Z" fill="white"/>
<path d="M100.737 18.229C100.737 18.3835 100.666 18.4604 100.524 18.4604H97.9403C97.7977 18.4604 97.7266 18.3835 97.7266 18.229V2.95017C97.7266 2.796 97.7977 2.71875 97.9403 2.71875H100.524C100.666 2.71875 100.737 2.796 100.737 2.95017V18.229Z" fill="white"/>
<path d="M112.794 18.6148C112.118 18.6148 111.49 18.5296 110.908 18.3599C110.326 18.1902 109.823 17.9085 109.399 17.5149C108.975 17.1217 108.641 16.6009 108.397 15.9526C108.153 15.3042 108.031 14.5096 108.031 13.568C108.031 12.5493 108.16 11.7046 108.419 11.0331C108.677 10.362 109.026 9.82567 109.464 9.42424C109.902 9.02344 110.409 8.73788 110.984 8.56756C111.558 8.39818 112.162 8.31334 112.794 8.31334C113.425 8.31334 114.029 8.39818 114.604 8.56756C115.178 8.73788 115.685 9.02344 116.123 9.42424C116.562 9.82567 116.91 10.362 117.168 11.0331C117.427 11.7046 117.556 12.5493 117.556 13.568C117.556 14.5096 117.434 15.3042 117.19 15.9526C116.946 16.6009 116.612 17.1217 116.188 17.5149C115.764 17.9085 115.261 18.1902 114.68 18.3599C114.097 18.5296 113.469 18.6148 112.794 18.6148ZM110.052 6.36886C109.909 6.36886 109.837 6.29162 109.837 6.1368V3.86846C109.837 3.7146 109.909 3.63672 110.052 3.63672H112.202C112.346 3.63672 112.417 3.7146 112.417 3.86846V6.1368C112.417 6.29162 112.346 6.36886 112.202 6.36886H110.052ZM112.794 11.1142C111.625 11.1142 111.041 11.8936 111.041 13.4525C111.041 14.332 111.191 14.9455 111.49 15.2928C111.789 15.6398 112.224 15.8136 112.794 15.8136C113.392 15.8136 113.834 15.6398 114.119 15.2928C114.403 14.9455 114.546 14.332 114.546 13.4525C114.546 11.8936 113.962 11.1142 112.794 11.1142ZM113.363 6.36886C113.22 6.36886 113.148 6.29162 113.148 6.1368V3.86846C113.148 3.7146 113.22 3.63672 113.363 3.63672H115.535C115.678 3.63672 115.75 3.7146 115.75 3.86846V6.1368C115.75 6.29162 115.678 6.36886 115.535 6.36886H113.363Z" fill="white"/>
<path d="M118.824 23.2063C118.681 23.2063 118.609 23.129 118.609 22.9749V20.6369C118.609 20.4824 118.681 20.4054 118.824 20.4054H119.297C119.885 20.4054 120.305 20.2433 120.555 19.9192C120.806 19.595 120.932 19.1011 120.932 18.4375V8.94659C120.932 8.79241 121.003 8.71484 121.146 8.71484H123.77C123.913 8.71484 123.985 8.79241 123.985 8.94659V18.5534C123.985 20.1427 123.641 21.3156 122.953 22.0723C122.265 22.828 121.218 23.2063 119.814 23.2063H118.824Z" fill="white"/>
<path d="M129.503 18.229C129.503 18.3835 129.432 18.4604 129.289 18.4604H126.706C126.563 18.4604 126.492 18.3835 126.492 18.229V2.95017C126.492 2.796 126.563 2.71875 126.706 2.71875H129.289C129.432 2.71875 129.503 2.796 129.503 2.95017V18.229Z" fill="white"/>
<path d="M131.082 23.198C130.939 23.198 130.867 23.1207 130.867 22.9666V20.6286C130.867 20.4741 130.939 20.3971 131.082 20.3971H131.555C132.143 20.3971 132.562 20.235 132.813 19.9109C133.064 19.5867 133.189 19.0928 133.189 18.4292V8.93828C133.189 8.7841 133.261 8.70654 133.404 8.70654H136.028C136.171 8.70654 136.243 8.7841 136.243 8.93828V18.5451C136.243 20.1344 135.899 21.3073 135.211 22.064C134.523 22.8197 133.476 23.198 132.071 23.198H131.082ZM133.383 6.36855C133.24 6.36855 133.168 6.29161 133.168 6.1368V3.86814C133.168 3.71428 133.24 3.63672 133.383 3.63672H136.049C136.192 3.63672 136.264 3.71428 136.264 3.86814V6.1368C136.264 6.29161 136.192 6.36855 136.049 6.36855H133.383Z" fill="white"/>
<path d="M140.471 23.2014C140.327 23.2014 140.256 23.1241 140.256 22.9699V20.6319C140.256 20.4775 140.327 20.4005 140.471 20.4005H142.943C143.23 20.4005 143.488 20.3809 143.717 20.3426C143.946 20.304 144.143 20.2153 144.308 20.0763C144.473 19.9374 144.602 19.7408 144.696 19.4859C144.789 19.2314 144.835 18.8876 144.835 18.4557H143.932C143.072 18.4557 142.301 18.4019 141.621 18.294C140.94 18.1863 140.359 17.9581 139.879 17.6108C139.399 17.2638 139.033 16.7775 138.782 16.1526C138.532 15.5276 138.406 14.6906 138.406 13.6411C138.406 12.6533 138.539 11.8198 138.805 11.1407C139.071 10.4616 139.422 9.91359 139.861 9.49727C140.299 9.08033 140.802 8.77957 141.369 8.59405C141.937 8.40885 142.522 8.31641 143.126 8.31641C143.758 8.31641 144.361 8.40157 144.936 8.57094C145.511 8.74095 146.013 9.02239 146.445 9.41591C146.875 9.80943 147.217 10.3419 147.468 11.0134C147.72 11.6846 147.845 12.5143 147.845 13.5018V18.8955C147.845 20.3464 147.503 21.4266 146.817 22.1367C146.131 22.8465 145.062 23.2014 143.61 23.2014H140.471ZM143.137 11.1176C142.549 11.1176 142.105 11.3338 141.803 11.7659C141.502 12.1978 141.352 12.7844 141.352 13.5249C141.352 14.374 141.52 14.941 141.857 15.2265C142.194 15.5121 142.635 15.6549 143.18 15.6549H144.835V13.4093C144.835 11.8815 144.269 11.1176 143.137 11.1176Z" fill="white"/>
<path d="M13.0272 43.1631C13.1919 42.9858 13.2745 42.6654 13.2745 42.2026V36.7161C13.2745 36.5619 13.346 36.4844 13.4895 36.4844H16.1127C16.2559 36.4844 16.3277 36.5619 16.3277 36.7161V43.3135C16.3277 44.317 16.1342 45.0537 15.7472 45.5245C15.3602 45.9953 14.7007 46.2302 13.7691 46.2302H2.6094C1.70665 46.2302 1.06149 45.9953 0.674511 45.5245C0.287239 45.0537 0.09375 44.317 0.09375 43.3135V38.1974C0.09375 38.0432 0.1655 37.966 0.308706 37.966H2.93227C3.07518 37.966 3.14723 38.0432 3.14723 38.1974V42.2026C3.14723 42.6654 3.22956 42.9858 3.39453 43.1631C3.5592 43.3404 3.82091 43.4293 4.17936 43.4293H12.2209C12.5938 43.4293 12.8625 43.3404 13.0272 43.1631ZM6.86703 50.9758C6.72353 50.9758 6.65208 50.8986 6.65208 50.7444V48.4757C6.65208 48.3212 6.72353 48.2443 6.86703 48.2443H9.53324C9.67644 48.2443 9.74819 48.3212 9.74819 48.4757V50.7444C9.74819 50.8986 9.67644 50.9758 9.53324 50.9758H6.86703Z" fill="white"/>
<path d="M18.6953 30.7236C18.6953 30.5694 18.7662 30.4922 18.9088 30.4922H21.4921C21.6344 30.4922 21.7059 30.5694 21.7059 30.7236V42.2059C21.7059 42.6691 21.7879 42.9894 21.9529 43.1667C22.1175 43.344 22.3792 43.433 22.7377 43.433H23.3185C23.6049 43.433 23.8201 43.5451 23.9636 43.7682C24.1065 43.9921 24.1786 44.3669 24.1786 44.8912C24.1786 45.4468 24.1101 45.8093 23.9742 45.979C23.8378 46.1493 23.6193 46.2338 23.3185 46.2338H21.193C20.2962 46.2338 19.656 45.9989 19.2714 45.5278C18.887 45.0574 18.6953 44.3204 18.6953 43.3168V30.7236Z" fill="white"/>
<path d="M27.9362 45.0727C27.6921 45.5511 27.3557 45.8636 26.9258 46.0102C26.4953 46.157 25.8934 46.2302 25.1191 46.2302H23.3992C23.1125 46.2302 22.8975 46.1802 22.754 46.0795C22.6108 45.9794 22.5391 45.7594 22.5391 45.4197C22.5391 45.2193 22.5538 45.0034 22.582 44.7717C22.6108 44.5402 22.6611 44.324 22.7326 44.1236C22.8043 43.9232 22.8975 43.757 23.0119 43.6259C23.1272 43.4949 23.2701 43.429 23.4424 43.429H24.152C24.596 43.429 24.8792 43.2942 25.0012 43.0238C25.1226 42.7541 25.1841 42.2716 25.1841 41.577V36.7158C25.1841 36.5923 25.2876 36.5227 25.4955 36.5072C25.7034 36.4923 25.886 36.4844 26.0439 36.4844H28.022C28.1649 36.4844 28.2373 36.5616 28.2373 36.7158V42.1788C28.2655 42.5651 28.4196 42.8699 28.6995 43.0934C28.9789 43.3173 29.3694 43.429 29.8713 43.429H30.3657C30.6524 43.429 30.8673 43.537 31.0108 43.7532C31.154 43.9694 31.2258 44.324 31.2258 44.8179C31.2258 45.7594 30.9388 46.2302 30.3657 46.2302C29.8211 46.2302 29.3476 46.1605 28.9468 46.0219C28.5452 45.8826 28.2082 45.5669 27.9362 45.0727ZM25.3558 50.9527C25.2123 50.9527 25.1406 50.8755 25.1406 50.7213V48.4526C25.1406 48.2981 25.2123 48.2209 25.3558 48.2209H28.022C28.1649 48.2209 28.2373 48.2981 28.2373 48.4526V50.7213C28.2373 50.8755 28.1649 50.9527 28.022 50.9527H25.3558Z" fill="white"/>
<path d="M43.3181 46.2352C42.7588 46.2352 42.3036 46.1235 41.9528 45.8996C41.6014 45.6761 41.3323 45.3789 41.1465 45.0085C40.9454 45.4871 40.641 45.8107 40.2326 45.9804C39.8238 46.1507 39.2681 46.2352 38.5662 46.2352H37.7275C37.1682 46.2352 36.7098 46.1235 36.3516 45.8996C35.9929 45.6761 35.7206 45.3789 35.5344 45.0085C35.3333 45.5023 35.0325 45.8303 34.6311 45.9924C34.23 46.1545 33.6637 46.2352 32.9326 46.2352H30.3523C30.0656 46.2352 29.8506 46.1466 29.7074 45.969C29.5642 45.7917 29.4922 45.4482 29.4922 44.9391C29.4922 44.399 29.5607 44.0128 29.6966 43.7814C29.833 43.5499 30.0512 43.4344 30.3523 43.4344H31.7929C32.2087 43.4344 32.4736 43.3226 32.5886 43.0985C32.7033 42.8753 32.7606 42.4618 32.7606 41.86V38.3874C32.7606 38.2335 32.8321 38.1559 32.9756 38.1559H35.5988C35.742 38.1559 35.8138 38.2335 35.8138 38.3874V42.1842C35.8138 42.6784 35.957 43.0098 36.244 43.1795C36.5304 43.3495 36.8459 43.4344 37.19 43.4344C37.462 43.4344 37.6811 43.4034 37.8457 43.3416C38.0104 43.2802 38.1286 43.1874 38.2006 43.064C38.2721 42.9402 38.3189 42.7746 38.3403 42.566C38.3618 42.3577 38.3727 42.0993 38.3727 41.7907V38.3874C38.3727 38.2335 38.4441 38.1559 38.5876 38.1559H41.2109C41.3541 38.1559 41.4259 38.2335 41.4259 38.3874V42.1611C41.4259 42.6857 41.5726 43.0288 41.8666 43.1909C42.1604 43.353 42.4936 43.4344 42.8664 43.4344C43.1387 43.4344 43.3466 43.4034 43.4898 43.3416C43.633 43.2802 43.7407 43.1837 43.8127 43.0523C43.8842 42.9212 43.9271 42.7512 43.9415 42.5429C43.9556 42.3346 43.9633 42.0762 43.9633 41.7676V36.7208C43.9633 36.567 44.0347 36.4894 44.1782 36.4894H46.8015C46.9447 36.4894 47.0164 36.567 47.0164 36.7208V42.1842C47.0447 42.5701 47.1993 42.8753 47.4787 43.0985C47.758 43.3226 48.1486 43.4344 48.6505 43.4344H49.1448C49.4315 43.4344 49.6465 43.542 49.7903 43.7586C49.9332 43.9745 50.0052 44.3294 50.0052 44.8233C50.0052 45.7648 49.7182 46.2352 49.1448 46.2352C48.6002 46.2352 48.1271 46.1659 47.726 46.0269C47.3243 45.8879 46.9876 45.572 46.7153 45.0778C46.5145 45.5254 46.221 45.8303 45.8337 45.9924C45.4465 46.1545 45.0022 46.2352 44.5005 46.2352H43.3181ZM37.0824 34.1514C36.9389 34.1514 36.8674 34.0742 36.8674 33.9197V31.651C36.8674 31.4972 36.9389 31.4196 37.0824 31.4196H39.2328C39.376 31.4196 39.4477 31.4972 39.4477 31.651V33.9197C39.4477 34.0742 39.376 34.1514 39.2328 34.1514H37.0824ZM38.7596 30.8409C38.6162 30.8409 38.5444 30.764 38.5444 30.6095V28.3408C38.5444 28.1866 38.6162 28.1094 38.7596 28.1094H40.9098C41.053 28.1094 41.125 28.1866 41.125 28.3408V30.6095C41.125 30.764 41.053 30.8409 40.9098 30.8409H38.7596ZM40.3937 34.1514C40.2502 34.1514 40.1788 34.0742 40.1788 33.9197V31.651C40.1788 31.4972 40.2502 31.4196 40.3937 31.4196H42.5653C42.7085 31.4196 42.7806 31.4972 42.7806 31.651V33.9197C42.7806 34.0742 42.7085 34.1514 42.5653 34.1514H40.3937Z" fill="white"/>
<path d="M49.0789 46.2338C48.7925 46.2338 48.5772 46.18 48.434 46.0717C48.2908 45.9641 48.2188 45.7475 48.2188 45.4234C48.2188 45.2385 48.237 45.0302 48.2726 44.7984C48.3084 44.567 48.3584 44.3511 48.4231 44.1504C48.4875 43.95 48.5734 43.78 48.681 43.641C48.7883 43.5023 48.9212 43.433 49.0789 43.433H49.8316C50.1898 43.433 50.4515 43.344 50.6162 43.1667C50.7809 42.9894 50.8635 42.6691 50.8635 42.2059V30.7236C50.8635 30.5694 50.9349 30.4922 51.0784 30.4922H53.7017C53.8449 30.4922 53.9167 30.5694 53.9167 30.7236V43.3168C53.9167 44.3204 53.7232 45.0574 53.3362 45.5282C52.9492 45.9989 52.3044 46.2338 51.401 46.2338H49.0789Z" fill="white"/>
<path d="M59.4949 46.0024C59.4949 46.1569 59.4238 46.2338 59.2814 46.2338H56.6982C56.5555 46.2338 56.4844 46.1569 56.4844 46.0024V30.7236C56.4844 30.5694 56.5555 30.4922 56.6982 30.4922H59.2814C59.4238 30.4922 59.4949 30.5694 59.4949 30.7236V46.0024Z" fill="white"/>
<path d="M63.8221 50.9748C63.6783 50.9748 63.6071 50.8976 63.6071 50.7434V48.4051C63.6071 48.2509 63.6783 48.1736 63.8221 48.1736H66.2948C66.5815 48.1736 66.8394 48.1543 67.0688 48.1157C67.2981 48.0774 67.4948 47.9888 67.6601 47.8498C67.8248 47.7108 67.9536 47.5142 68.0471 47.2593C68.1403 47.0048 68.1868 46.661 68.1868 46.2292H67.2837C66.4239 46.2292 65.6532 46.1757 64.9721 46.0671C64.2914 45.9594 63.7109 45.7315 63.2307 45.3842C62.7503 45.0372 62.3847 44.5509 62.1339 43.926C61.8831 43.3007 61.7578 42.4637 61.7578 41.4142C61.7578 40.4264 61.8907 39.5935 62.1563 38.9144C62.4221 38.235 62.7741 37.687 63.2122 37.2707C63.6504 36.8538 64.1532 36.5527 64.721 36.3675C65.2885 36.1823 65.874 36.0898 66.4777 36.0898C67.1093 36.0898 67.713 36.175 68.2876 36.3444C68.8622 36.5144 69.365 36.7958 69.7961 37.1893C70.2272 37.5829 70.5686 38.1154 70.8197 38.7868C71.0711 39.458 71.197 40.2878 71.197 41.2752V46.6689C71.197 48.1195 70.8541 49.2 70.1684 49.9101C69.4824 50.6199 68.4135 50.9748 66.9611 50.9748H63.8221ZM66.4883 38.891C65.9002 38.891 65.4562 39.1072 65.155 39.5394C64.8539 39.9712 64.7034 40.5578 64.7034 41.2986C64.7034 42.1474 64.8719 42.7144 65.2089 43C65.5453 43.2855 65.9863 43.4283 66.5312 43.4283H68.1868V41.1828C68.1868 39.6549 67.6204 38.891 66.4883 38.891Z" fill="white"/>
<path d="M84.7732 36.0945V35.0988C84.7732 34.9447 84.845 34.8674 84.9882 34.8674H87.6114C87.7546 34.8674 87.8264 34.9447 87.8264 35.0988V42.2059C87.8264 42.6691 87.9087 42.9894 88.0737 43.1667C88.2381 43.344 88.5001 43.433 88.8582 43.433H89.5251C90.0983 43.433 90.385 43.9037 90.385 44.845C90.385 45.3854 90.317 45.7517 90.1809 45.9445C90.0445 46.1379 89.8263 46.2338 89.5251 46.2338H87.2889C86.5864 46.2338 86.0382 46.1145 85.6439 45.8751C85.2496 45.6358 84.9882 45.1843 84.8591 44.5208C84.5438 44.7984 84.178 45.0071 83.7625 45.1457C83.3464 45.2847 82.9095 45.354 82.451 45.354C81.8918 45.354 81.3577 45.2695 80.849 45.0998C80.34 44.9301 79.8922 44.6677 79.5052 44.3128C79.1182 43.9576 78.8133 43.4947 78.5913 42.9233C78.369 42.3528 78.2578 41.6582 78.2578 40.8401C78.2578 39.9141 78.3834 39.1464 78.6345 38.5367C78.885 37.9272 79.215 37.4409 79.6234 37.0785C80.0319 36.7156 80.4976 36.4611 81.0211 36.3142C81.5442 36.1676 82.0782 36.0945 82.6228 36.0945H84.7732ZM80.4082 33.2237C80.265 33.2237 80.1933 33.1468 80.1933 32.9923V30.7236C80.1933 30.5694 80.265 30.4922 80.4082 30.4922H82.5584C82.7016 30.4922 82.7733 30.5694 82.7733 30.7236V32.9923C82.7733 33.1468 82.7016 33.2237 82.5584 33.2237H80.4082ZM82.9995 42.5532C83.5408 42.5532 83.9719 42.3873 84.2924 42.0555C84.6129 41.7237 84.7732 41.2026 84.7732 40.4925V38.8957H83.0636C82.5216 38.8957 82.0873 39.0343 81.7597 39.3123C81.4319 39.5899 81.2684 40.099 81.2684 40.8401C81.2684 41.473 81.4319 41.9165 81.7597 42.1711C82.0873 42.4256 82.5007 42.5532 82.9995 42.5532ZM83.7196 33.2237C83.5761 33.2237 83.5047 33.1468 83.5047 32.9923V30.7236C83.5047 30.5694 83.5761 30.4922 83.7196 30.4922H85.8912C86.0344 30.4922 86.1062 30.5694 86.1062 30.7236V32.9923C86.1062 33.1468 86.0344 33.2237 85.8912 33.2237H83.7196Z" fill="white"/>
<path d="M91.4296 36.5301C91.4296 36.3759 91.5005 36.2987 91.6428 36.2987H94.2264C94.3687 36.2987 94.4402 36.3759 94.4402 36.5301V37.2247C95.1003 36.916 95.8187 36.6501 96.5947 36.4259C97.3704 36.2024 98.1817 36.0904 99.0301 36.0904C100.782 36.0904 102.111 36.538 103.016 37.4327C103.921 38.328 104.374 39.7327 104.374 41.6465C104.374 42.557 104.295 43.3095 104.137 43.9031C103.979 44.4976 103.729 44.9681 103.385 45.3154C103.041 45.6627 102.593 45.902 102.041 46.0331C101.489 46.1642 100.819 46.2297 100.03 46.2297H96.0313C95.8161 46.2297 95.5829 46.2262 95.3323 46.2183C95.0812 46.2107 94.841 46.1914 94.6119 46.1604C94.3825 46.1293 94.1817 46.0834 94.01 46.0214C93.838 45.96 93.7089 45.8675 93.623 45.7434C93.3504 45.9907 93.0208 46.1338 92.6335 46.1718C92.2468 46.2107 91.7807 46.2297 91.2361 46.2297H89.6879C89.4015 46.2297 89.1863 46.1338 89.0431 45.9403C88.8999 45.7478 88.8281 45.3812 88.8281 44.8408C88.8281 44.2542 88.8925 43.8727 89.0213 43.6951C89.1504 43.5175 89.3727 43.4288 89.6879 43.4288H90.5481C90.9494 43.4288 91.1967 43.3013 91.2897 43.0467C91.3829 42.7919 91.4296 42.3638 91.4296 41.762V36.5301ZM98.4523 38.8915C97.7333 38.8915 97.0249 38.9995 96.3274 39.2157C95.6299 39.4316 95.0009 39.671 94.4402 39.9334V42.5256C94.4402 42.6956 94.4364 42.8539 94.429 43.0005C94.4217 43.1474 94.4111 43.2899 94.397 43.4288H98.6678C99.1995 43.4288 99.6347 43.4133 99.9725 43.3823C100.311 43.3516 100.573 43.2747 100.76 43.1509C100.946 43.0277 101.073 42.8349 101.138 42.5722C101.202 42.3097 101.235 41.9472 101.235 41.4841C101.235 41.0674 101.191 40.697 101.105 40.3728C101.019 40.049 100.871 39.7751 100.663 39.5513C100.455 39.3278 100.17 39.1613 99.8111 39.0536C99.4515 38.9457 98.9983 38.8915 98.4523 38.8915ZM97.3213 34.1459C97.1778 34.1459 97.1061 34.069 97.1061 33.9141V31.6455C97.1061 31.4916 97.1778 31.4141 97.3213 31.4141H99.9872C100.13 31.4141 100.202 31.4916 100.202 31.6455V33.9141C100.202 34.069 100.13 34.1459 99.9872 34.1459H97.3213Z" fill="white"/>
<path d="M106.703 30.7236C106.703 30.5694 106.774 30.4922 106.917 30.4922H109.5C109.642 30.4922 109.713 30.5694 109.713 30.7236V42.2059C109.713 42.6691 109.796 42.9894 109.961 43.1667C110.125 43.344 110.387 43.433 110.746 43.433H111.326C111.613 43.433 111.828 43.5451 111.971 43.7682C112.114 43.9921 112.186 44.3669 112.186 44.8912C112.186 45.4468 112.118 45.8093 111.982 45.979C111.846 46.1493 111.627 46.2338 111.326 46.2338H109.201C108.304 46.2338 107.664 45.9989 107.279 45.5278C106.895 45.0574 106.703 44.3204 106.703 43.3168V30.7236Z" fill="white"/>
<path d="M111.344 46.2302C111.058 46.2302 110.843 46.1343 110.699 45.9408C110.556 45.748 110.484 45.4048 110.484 44.9106C110.484 43.9232 110.771 43.4293 111.344 43.4293H112.678C113.036 43.4293 113.298 43.3404 113.462 43.1631C113.627 42.9858 113.71 42.6654 113.71 42.2022V36.7158C113.71 36.5619 113.78 36.4844 113.923 36.4844H116.507C116.649 36.4844 116.72 36.5619 116.72 36.7158V43.3131C116.72 44.3167 116.528 45.0537 116.143 45.5245C115.759 45.9953 115.119 46.2302 114.222 46.2302H111.344ZM112.14 50.9758C111.997 50.9758 111.925 50.8983 111.925 50.7444V48.4757C111.925 48.3212 111.997 48.244 112.14 48.244H114.29C114.433 48.244 114.505 48.3212 114.505 48.4757V50.7444C114.505 50.8983 114.433 50.9758 114.29 50.9758H112.14ZM115.451 50.9758C115.308 50.9758 115.236 50.8983 115.236 50.7444V48.4757C115.236 48.3212 115.308 48.244 115.451 48.244H117.623C117.766 48.244 117.838 48.3212 117.838 48.4757V50.7444C117.838 50.8983 117.766 50.9758 117.623 50.9758H115.451Z" fill="white"/>
<path d="M120.572 36.7158C120.572 36.5616 120.644 36.4844 120.787 36.4844H123.41C123.554 36.4844 123.625 36.5616 123.625 36.7158V42.1788C123.654 42.5651 123.808 42.8699 124.088 43.0934C124.368 43.3173 124.758 43.429 125.26 43.429H125.733C126.019 43.429 126.234 43.537 126.378 43.7532C126.521 43.9694 126.593 44.324 126.593 44.8179C126.593 45.7594 126.306 46.2302 125.733 46.2302C125.26 46.2302 124.851 46.1802 124.507 46.0795C124.163 45.9794 123.869 45.767 123.625 45.4428V45.8132C123.625 47.5728 123.31 48.8727 122.679 49.7142C122.049 50.5551 120.974 50.9755 119.454 50.9755H118.465C118.321 50.9755 118.25 50.8983 118.25 50.7441V48.4061C118.25 48.2516 118.321 48.1747 118.465 48.1747H118.938C119.325 48.1747 119.626 48.1088 119.841 47.9781C120.056 47.8467 120.218 47.6536 120.325 47.3993C120.432 47.1445 120.5 46.832 120.529 46.4616C120.558 46.0912 120.572 45.6667 120.572 45.1883V36.7158Z" fill="white"/>
<path d="M125.727 46.2338C125.441 46.2338 125.226 46.18 125.082 46.0717C124.939 45.9641 124.867 45.7475 124.867 45.4234C124.867 45.2385 124.885 45.0302 124.921 44.7984C124.957 44.567 125.007 44.3511 125.072 44.1504C125.136 43.95 125.222 43.78 125.329 43.641C125.437 43.5023 125.57 43.433 125.727 43.433H126.48C126.838 43.433 127.1 43.344 127.265 43.1667C127.429 42.9894 127.512 42.6691 127.512 42.2059V30.7236C127.512 30.5694 127.583 30.4922 127.727 30.4922H130.35C130.493 30.4922 130.565 30.5694 130.565 30.7236V43.3168C130.565 44.3204 130.372 45.0574 129.985 45.5282C129.598 45.9989 128.953 46.2338 128.049 46.2338H125.727Z" fill="white"/>
<path d="M136.151 46.0024C136.151 46.1569 136.08 46.2338 135.938 46.2338H133.354C133.212 46.2338 133.141 46.1569 133.141 46.0024V30.7236C133.141 30.5694 133.212 30.4922 133.354 30.4922H135.938C136.08 30.4922 136.151 30.5694 136.151 30.7236V46.0024Z" fill="white"/>
<path d="M140.471 50.9748C140.327 50.9748 140.256 50.8976 140.256 50.7434V48.4051C140.256 48.2509 140.327 48.1736 140.471 48.1736H142.943C143.23 48.1736 143.488 48.1543 143.717 48.1157C143.946 48.0774 144.143 47.9888 144.309 47.8498C144.473 47.7108 144.602 47.5142 144.696 47.2593C144.789 47.0048 144.835 46.661 144.835 46.2292H143.932C143.072 46.2292 142.301 46.1757 141.621 46.0671C140.94 45.9594 140.359 45.7315 139.879 45.3842C139.399 45.0372 139.033 44.5509 138.782 43.926C138.532 43.3007 138.406 42.4637 138.406 41.4142C138.406 40.4264 138.539 39.5935 138.805 38.9144C139.071 38.235 139.422 37.687 139.861 37.2707C140.299 36.8538 140.802 36.5527 141.369 36.3675C141.937 36.1823 142.522 36.0898 143.126 36.0898C143.758 36.0898 144.361 36.175 144.936 36.3444C145.511 36.5144 146.013 36.7958 146.445 37.1893C146.876 37.5829 147.217 38.1154 147.468 38.7868C147.72 39.458 147.845 40.2878 147.845 41.2752V46.6689C147.845 48.1195 147.503 49.2 146.817 49.9101C146.131 50.6199 145.062 50.9748 143.61 50.9748H140.471ZM143.137 38.891C142.549 38.891 142.105 39.1072 141.803 39.5394C141.502 39.9712 141.352 40.5578 141.352 41.2986C141.352 42.1474 141.52 42.7144 141.857 43C142.194 43.2855 142.635 43.4283 143.179 43.4283H144.835V41.1828C144.835 39.6549 144.269 38.891 143.137 38.891Z" fill="white"/>
<path d="M40.7344 60.0749C40.7344 59.9992 40.7697 59.9609 40.8402 59.9609H42.1014C42.1864 59.9609 42.2429 59.9992 42.2711 60.0749L44.0943 64.5027H44.1366L45.928 60.0749C45.9559 59.9992 46.013 59.9609 46.0977 59.9609H47.3377C47.4083 59.9609 47.4436 59.9992 47.4436 60.0749V67.6068C47.4436 67.6831 47.4083 67.7208 47.3377 67.7208H46.14C46.0694 67.7208 46.0341 67.6831 46.0341 67.6068V63.236H45.9915L44.6559 66.5114C44.6136 66.6102 44.5465 66.6596 44.4545 66.6596H43.7232C43.6314 66.6596 43.5644 66.6102 43.522 66.5114L42.1864 63.236H42.1438V67.6068C42.1438 67.6831 42.1085 67.7208 42.0379 67.7208H40.8402C40.7697 67.7208 40.7344 67.6831 40.7344 67.6068V60.0749Z" fill="white"/>
<path d="M48.8359 60.0749C48.8359 59.9992 48.8712 59.9609 48.9418 59.9609H50.288C50.3583 59.9609 50.3938 59.9992 50.3938 60.0749V67.6068C50.3938 67.6831 50.3583 67.7208 50.288 67.7208H48.9418C48.8712 67.7208 48.8359 67.6831 48.8359 67.6068V60.0749Z" fill="white"/>
<path d="M51.7578 60.0749C51.7578 59.9992 51.7931 59.9609 51.8637 59.9609H53.1358C53.2131 59.9609 53.2734 59.9992 53.3157 60.0749L55.8599 64.9592H55.9128V60.0749C55.9128 59.9992 55.9481 59.9609 56.0187 59.9609H57.2164C57.2869 59.9609 57.3225 59.9992 57.3225 60.0749V67.6068C57.3225 67.6831 57.2869 67.7208 57.2164 67.7208H55.9552C55.8772 67.7208 55.8173 67.6831 55.7749 67.6068L53.2204 62.7339H53.1672V67.6068C53.1672 67.6831 53.1319 67.7208 53.0614 67.7208H51.8637C51.7931 67.7208 51.7578 67.6831 51.7578 67.6068V60.0749Z" fill="white"/>
<path d="M58.6953 60.0749C58.6953 59.9992 58.7306 59.9609 58.8012 59.9609H60.1474C60.2179 59.9609 60.2532 59.9992 60.2532 60.0749V67.6068C60.2532 67.6831 60.2179 67.7208 60.1474 67.7208H58.8012C58.7306 67.7208 58.6953 67.6831 58.6953 67.6068V60.0749Z" fill="white"/>
<path d="M64.0723 67.8429C63.7895 67.8429 63.5122 67.8144 63.2404 67.7571C62.9682 67.7002 62.712 67.6245 62.4718 67.5292C62.2315 67.4342 62.0107 67.3218 61.8093 67.1924C61.6079 67.0632 61.4367 66.9261 61.2953 66.7817C61.2385 66.7206 61.2353 66.6564 61.2847 66.5877L62.0901 65.5949C62.1324 65.5341 62.1854 65.5303 62.2492 65.5835C62.4891 65.7889 62.7688 65.9735 63.0867 66.1369C63.4045 66.3005 63.7545 66.3822 64.1361 66.3822C64.5175 66.3822 64.8089 66.2967 65.0104 66.1255C65.2118 65.9545 65.3124 65.7319 65.3124 65.4581C65.3124 65.2298 65.2347 65.0434 65.0795 64.899C64.9239 64.7543 64.6305 64.6514 64.1997 64.5906L63.818 64.5337C63.0831 64.427 62.5194 64.1857 62.1272 63.809C61.7352 63.4323 61.539 62.8979 61.539 62.2055C61.539 61.8481 61.599 61.5229 61.7193 61.2298C61.8393 60.9369 62.0107 60.6878 62.2336 60.4823C62.4559 60.2768 62.7244 60.1173 63.039 60.003C63.3531 59.889 63.7048 59.832 64.0938 59.832C64.574 59.832 65.0265 59.9042 65.4503 60.0489C65.8743 60.1936 66.2381 60.3911 66.5421 60.6422C66.6056 60.6878 66.6124 60.7451 66.563 60.8134L65.9167 61.8519C65.8743 61.913 65.8246 61.9244 65.7682 61.8864C65.4929 61.6885 65.2186 61.54 64.9469 61.4409C64.6749 61.3425 64.3902 61.2924 64.0938 61.2924C63.7753 61.2924 63.5354 61.3725 63.3728 61.5324C63.2102 61.692 63.129 61.8936 63.129 62.1371C63.129 62.3581 63.2119 62.5404 63.3781 62.6851C63.5442 62.8295 63.8356 62.932 64.2526 62.9928L64.634 63.0498C65.3832 63.1565 65.9487 63.3984 66.3301 63.7745C66.7115 64.1512 66.9023 64.6932 66.9023 65.4008C66.9023 65.7509 66.8423 66.0761 66.7224 66.3765C66.6018 66.6773 66.4236 66.9356 66.1869 67.1525C65.9502 67.3693 65.6552 67.5387 65.3018 67.6606C64.9483 67.7822 64.5387 67.8429 64.0723 67.8429Z" fill="white"/>
<path d="M69.4115 67.7133C69.3406 67.7133 69.3053 67.6753 69.3053 67.5993V61.5168C69.3053 61.4712 69.2841 61.4484 69.2415 61.4484H67.4187C67.3481 61.4484 67.3125 61.4107 67.3125 61.335V60.0779C67.3125 60.0025 67.3481 59.9648 67.4187 59.9648H72.7502C72.8208 59.9648 72.8563 60.0025 72.8563 60.0779V61.335C72.8563 61.4107 72.8208 61.4484 72.7502 61.4484H70.927C70.8847 61.4484 70.8635 61.4712 70.8635 61.5168V67.5993C70.8635 67.6753 70.8282 67.7133 70.7574 67.7133H69.4115Z" fill="white"/>
<path d="M77.7038 67.7208C77.6262 67.7208 77.5732 67.6828 77.545 67.6068L76.305 64.7651H75.3402C75.2978 64.7651 75.2767 64.7879 75.2767 64.8335V67.6068C75.2767 67.6828 75.2411 67.7208 75.1708 67.7208H73.8246C73.7537 67.7208 73.7188 67.6828 73.7188 67.6068V60.0749C73.7188 59.9989 73.7537 59.9609 73.8246 59.9609H76.6969C77.0642 59.9609 77.3983 60.0198 77.6988 60.1376C77.999 60.2557 78.2569 60.4213 78.4725 60.634C78.6877 60.8474 78.8538 61.1019 78.9703 61.3989C79.0873 61.6952 79.1455 62.0188 79.1455 62.3686C79.1455 62.8707 79.0323 63.3082 78.8062 63.6811C78.5801 64.0541 78.2657 64.3355 77.8629 64.5255L79.2835 67.584C79.2973 67.622 79.2973 67.6543 79.2835 67.6809C79.2688 67.7078 79.2444 67.7208 79.2091 67.7208H77.7038ZM76.6123 63.3386C76.9087 63.3386 77.1457 63.2512 77.3224 63.0762C77.4988 62.9014 77.5873 62.6655 77.5873 62.3686C77.5873 62.0795 77.4988 61.8478 77.3224 61.6727C77.1457 61.4976 76.9087 61.41 76.6123 61.41H75.3402C75.2978 61.41 75.2767 61.4327 75.2767 61.4787V63.2702C75.2767 63.3161 75.2978 63.3386 75.3402 63.3386H76.6123Z" fill="white"/>
<path d="M81.7167 67.7208C81.6458 67.7208 81.6105 67.6828 81.6105 67.6068V64.6281L79.4801 60.0749C79.4519 59.9989 79.4763 59.9609 79.5542 59.9609H80.9324C81.0098 59.9609 81.0627 59.9989 81.0912 60.0749L82.3951 62.9052H82.4268L83.7304 60.0749C83.7589 59.9989 83.8118 59.9609 83.8895 59.9609H85.2251C85.2603 59.9609 85.285 59.9723 85.2995 59.9948C85.3133 60.0179 85.3133 60.0448 85.2995 60.0749L83.1687 64.6281V67.6068C83.1687 67.6828 83.1331 67.7208 83.0626 67.7208H81.7167Z" fill="white"/>
<path d="M90.9553 67.8429C90.3263 67.8429 89.7767 67.6872 89.3071 67.3753C88.8369 67.0632 88.5102 66.5915 88.3264 65.9602C88.2841 65.8231 88.2506 65.6902 88.2259 65.5607C88.2012 65.4312 88.1815 65.2868 88.1676 65.1269C88.1535 64.9674 88.1426 64.7847 88.1356 64.5792C88.1285 64.3738 88.125 64.1268 88.125 63.8372C88.125 63.5484 88.1285 63.3012 88.1356 63.0957C88.1426 62.8906 88.1535 62.7076 88.1676 62.5477C88.1815 62.3882 88.2012 62.2438 88.2259 62.1143C88.2506 61.9851 88.2841 61.8519 88.3264 61.7148C88.5102 61.0911 88.8369 60.6213 89.3071 60.3056C89.7767 59.99 90.3263 59.832 90.9553 59.832C91.5843 59.832 92.1336 59.99 92.6035 60.3056C93.0734 60.6213 93.4001 61.0911 93.5839 61.7148C93.6262 61.8519 93.66 61.9851 93.6847 62.1143C93.7094 62.2438 93.7288 62.3882 93.7429 62.5477C93.7571 62.7076 93.7676 62.8906 93.7747 63.0957C93.7818 63.3012 93.7853 63.5484 93.7853 63.8372C93.7853 64.1268 93.7818 64.3738 93.7747 64.5792C93.7676 64.7847 93.7571 64.9674 93.7429 65.1269C93.7288 65.2868 93.7094 65.4312 93.6847 65.5607C93.66 65.6902 93.6262 65.8231 93.5839 65.9602C93.4001 66.5915 93.0734 67.0632 92.6035 67.3753C92.1336 67.6872 91.5843 67.8429 90.9553 67.8429ZM90.9553 66.3594C91.252 66.3594 91.4961 66.2834 91.6866 66.1312C91.8774 65.9792 92.0115 65.7699 92.0895 65.5037C92.1103 65.435 92.1283 65.3571 92.1424 65.2697C92.1565 65.1823 92.1689 65.0757 92.1794 64.9503C92.19 64.8246 92.1971 64.6704 92.2006 64.4878C92.2041 64.3054 92.2059 64.0885 92.2059 63.8372C92.2059 63.5864 92.2041 63.3696 92.2006 63.1872C92.1971 63.0045 92.19 62.8504 92.1794 62.7247C92.1689 62.5993 92.1565 62.4926 92.1424 62.4052C92.1283 62.3179 92.1103 62.24 92.0895 62.1716C92.0115 61.9054 91.8774 61.6961 91.6866 61.5438C91.4961 61.3915 91.252 61.3156 90.9553 61.3156C90.6583 61.3156 90.4148 61.3915 90.224 61.5438C90.0331 61.6961 89.899 61.9054 89.8211 62.1716C89.7999 62.24 89.782 62.3179 89.7682 62.4052C89.7541 62.4926 89.7414 62.5993 89.7308 62.7247C89.7203 62.8504 89.7132 63.0045 89.71 63.1872C89.7061 63.3696 89.7047 63.5864 89.7047 63.8372C89.7047 64.0885 89.7061 64.3054 89.71 64.4878C89.7132 64.6704 89.7203 64.8246 89.7308 64.9503C89.7414 65.0757 89.7541 65.1823 89.7682 65.2697C89.782 65.3571 89.7999 65.435 89.8211 65.5037C89.899 65.7699 90.0331 65.9792 90.224 66.1312C90.4148 66.2834 90.6583 66.3594 90.9553 66.3594Z" fill="white"/>
<path d="M94.9688 60.0749C94.9688 59.9992 95.004 59.9609 95.0746 59.9609H99.696C99.7666 59.9609 99.8021 59.9992 99.8021 60.0749V61.296C99.8021 61.3723 99.7666 61.41 99.696 61.41H96.5905C96.5478 61.41 96.5267 61.4331 96.5267 61.479V63.1107C96.5267 63.1562 96.5478 63.179 96.5905 63.179H99.1767C99.2473 63.179 99.2825 63.2173 99.2825 63.293V64.5027C99.2825 64.579 99.2473 64.617 99.1767 64.617H96.5905C96.5478 64.617 96.5267 64.6398 96.5267 64.6854V67.6068C96.5267 67.6831 96.4914 67.7208 96.4208 67.7208H95.0746C95.004 67.7208 94.9688 67.6831 94.9688 67.6068V60.0749Z" fill="white"/>
<path d="M103.381 65.9371C103.339 65.8155 103.305 65.6914 103.281 65.566C103.256 65.4407 103.236 65.2998 103.222 65.144C103.208 64.9883 103.197 64.8056 103.19 64.5963C103.183 64.3871 103.18 64.1338 103.18 63.8372C103.18 63.5405 103.183 63.2876 103.19 63.0783C103.197 62.8694 103.208 62.6867 103.222 62.5306C103.236 62.3749 103.256 62.2359 103.281 62.1143C103.305 61.9927 103.339 61.8671 103.381 61.7376C103.572 61.0984 103.888 60.6213 104.33 60.3053C104.771 59.9897 105.31 59.832 105.946 59.832C106.561 59.832 107.082 59.9821 107.51 60.2825C107.937 60.583 108.254 61.0072 108.459 61.5549C108.494 61.6233 108.476 61.6692 108.406 61.6917L107.25 62.2511C107.186 62.2891 107.137 62.2704 107.102 62.1941C107.003 61.943 106.863 61.7338 106.683 61.5663C106.503 61.3991 106.261 61.3152 105.957 61.3152C105.674 61.3152 105.443 61.3915 105.263 61.5438C105.083 61.6958 104.953 61.905 104.876 62.1713C104.855 62.2397 104.837 62.3141 104.823 62.3939C104.809 62.4739 104.796 62.5743 104.786 62.6962C104.775 62.8178 104.768 62.97 104.765 63.1527C104.761 63.3351 104.759 63.5633 104.759 63.8372C104.759 64.1113 104.761 64.3393 104.765 64.5223C104.768 64.7046 104.775 64.8566 104.786 64.9781C104.796 65.1004 104.809 65.201 104.823 65.2808C104.837 65.3609 104.855 65.435 104.876 65.5034C104.953 65.7699 105.083 65.9789 105.263 66.1308C105.443 66.2831 105.674 66.3594 105.957 66.3594C106.261 66.3594 106.503 66.2755 106.683 66.1084C106.863 65.9409 107.003 65.7316 107.102 65.4806C107.137 65.4046 107.186 65.3856 107.25 65.4236L108.406 65.9824C108.476 66.0055 108.494 66.0511 108.459 66.1194C108.254 66.6675 107.937 67.0917 107.51 67.3921C107.082 67.6929 106.561 67.8429 105.946 67.8429C105.31 67.8429 104.771 67.6853 104.33 67.3693C103.888 67.0537 103.572 66.5763 103.381 65.9371Z" fill="white"/>
<path d="M112.196 67.8465C111.793 67.8465 111.423 67.7819 111.083 67.6524C110.744 67.5232 110.453 67.3327 110.209 67.0819C109.965 66.8309 109.774 66.519 109.636 66.1461C109.499 65.7735 109.43 65.3473 109.43 64.868V60.0749C109.43 59.9992 109.465 59.9609 109.536 59.9609H110.882C110.953 59.9609 110.988 59.9992 110.988 60.0749V64.9136C110.988 65.3777 111.098 65.7355 111.317 65.9862C111.535 66.2376 111.829 66.363 112.196 66.363C112.557 66.363 112.846 66.2376 113.065 65.9862C113.284 65.7355 113.394 65.3777 113.394 64.9136V60.0749C113.394 59.9992 113.429 59.9609 113.5 59.9609H114.846C114.917 59.9609 114.952 59.9992 114.952 60.0749V64.868C114.952 65.3473 114.883 65.7735 114.746 66.1461C114.608 66.519 114.417 66.8309 114.173 67.0819C113.929 67.3327 113.639 67.5232 113.304 67.6524C112.968 67.7819 112.599 67.8465 112.196 67.8465Z" fill="white"/>
<path d="M116.312 60.0749C116.312 59.9992 116.348 59.9609 116.418 59.9609H117.765C117.835 59.9609 117.87 59.9992 117.87 60.0752V66.1686C117.87 66.2145 117.892 66.2376 117.934 66.2376H121.114C121.185 66.2376 121.22 66.2753 121.22 66.3506V67.6075C121.22 67.6834 121.185 67.7208 121.114 67.7208H116.418C116.348 67.7208 116.312 67.6831 116.312 67.6068V60.0749Z" fill="white"/>
<path d="M122.771 67.7133C122.7 67.7133 122.665 67.6753 122.665 67.5993V61.5168C122.665 61.4712 122.644 61.4484 122.601 61.4484H120.778C120.707 61.4484 120.672 61.4107 120.672 61.335V60.0779C120.672 60.0025 120.707 59.9648 120.778 59.9648H126.11C126.18 59.9648 126.216 60.0025 126.216 60.0779V61.335C126.216 61.4107 126.18 61.4484 126.11 61.4484H124.287C124.244 61.4484 124.223 61.4712 124.223 61.5168V67.5993C124.223 67.6753 124.188 67.7133 124.117 67.7133H122.771Z" fill="white"/>
<path d="M129.829 67.8465C129.426 67.8465 129.055 67.7819 128.716 67.6524C128.377 67.5232 128.086 67.3327 127.841 67.0819C127.598 66.8309 127.407 66.519 127.269 66.1461C127.132 65.7735 127.062 65.3473 127.062 64.868V60.0749C127.062 59.9992 127.098 59.9609 127.169 59.9609H128.515C128.585 59.9609 128.621 59.9992 128.621 60.0749V64.9136C128.621 65.3777 128.73 65.7355 128.949 65.9862C129.168 66.2376 129.462 66.363 129.829 66.363C130.189 66.363 130.479 66.2376 130.698 65.9862C130.917 65.7355 131.027 65.3777 131.027 64.9136V60.0749C131.027 59.9992 131.062 59.9609 131.133 59.9609H132.479C132.55 59.9609 132.585 59.9992 132.585 60.0749V64.868C132.585 65.3473 132.516 65.7735 132.378 66.1461C132.241 66.519 132.05 66.8309 131.806 67.0819C131.562 67.3327 131.272 67.5232 130.937 67.6524C130.601 67.7819 130.232 67.8465 129.829 67.8465Z" fill="white"/>
<path d="M137.915 67.7208C137.837 67.7208 137.784 67.6828 137.756 67.6068L136.516 64.7651H135.551C135.509 64.7651 135.488 64.7879 135.488 64.8335V67.6068C135.488 67.6828 135.452 67.7208 135.382 67.7208H134.036C133.965 67.7208 133.93 67.6828 133.93 67.6068V60.0749C133.93 59.9989 133.965 59.9609 134.036 59.9609H136.908C137.275 59.9609 137.609 60.0198 137.91 60.1376C138.21 60.2557 138.468 60.4213 138.683 60.634C138.899 60.8474 139.065 61.1019 139.182 61.3989C139.298 61.6952 139.356 62.0188 139.356 62.3686C139.356 62.8707 139.243 63.3082 139.017 63.6811C138.791 64.0541 138.477 64.3355 138.074 64.5255L139.494 67.584C139.508 67.622 139.508 67.6543 139.494 67.6809C139.48 67.7078 139.455 67.7208 139.42 67.7208H137.915ZM136.823 63.3386C137.12 63.3386 137.357 63.2512 137.533 63.0762C137.71 62.9014 137.798 62.6655 137.798 62.3686C137.798 62.0795 137.71 61.8478 137.533 61.6727C137.357 61.4976 137.12 61.41 136.823 61.41H135.551C135.509 61.41 135.488 61.4327 135.488 61.4787V63.2702C135.488 63.3161 135.509 63.3386 135.551 63.3386H136.823Z" fill="white"/>
<path d="M140.539 60.0749C140.539 59.9992 140.574 59.9609 140.645 59.9609H145.266C145.337 59.9609 145.372 59.9992 145.372 60.0749V61.296C145.372 61.3723 145.337 61.41 145.266 61.41H142.16C142.118 61.41 142.097 61.4331 142.097 61.479V63.0192C142.097 63.0648 142.118 63.0879 142.16 63.0879H144.747C144.818 63.0879 144.853 63.1259 144.853 63.2018V64.4115C144.853 64.4878 144.818 64.5258 144.747 64.5258H142.16C142.118 64.5258 142.097 64.5483 142.097 64.5942V66.2031C142.097 66.249 142.118 66.2715 142.16 66.2715H145.266C145.337 66.2715 145.372 66.3098 145.372 66.3857V67.6068C145.372 67.6831 145.337 67.7208 145.266 67.7208H140.645C140.574 67.7208 140.539 67.6831 140.539 67.6068V60.0749Z" fill="white"/>
<path d="M146.469 66.2315C146.469 66.1555 146.504 66.1172 146.575 66.1172H147.773C147.843 66.1172 147.878 66.1555 147.878 66.2315V67.6121C147.878 67.696 147.847 67.772 147.783 67.8404L146.734 68.8677C146.677 68.9206 146.624 68.9475 146.575 68.9475C146.504 68.9475 146.469 68.9054 146.469 68.8218V66.2315Z" fill="white"/>
<path d="M55.8926 81.5422C55.6098 81.5422 55.3325 81.5137 55.0608 81.4567C54.7885 81.3994 54.5323 81.3237 54.2921 81.2284C54.0519 81.1334 53.831 81.0214 53.6296 80.8916C53.4282 80.7624 53.257 80.6253 53.1156 80.481C53.0588 80.4202 53.0556 80.3556 53.105 80.2869L53.9107 79.2941C53.9528 79.2333 54.0057 79.2295 54.0695 79.2827C54.3094 79.4881 54.5891 79.6727 54.907 79.8361C55.2248 79.9997 55.5748 80.0817 55.9562 80.0817C56.3376 80.0817 56.6293 79.996 56.8307 79.8247C57.0321 79.6537 57.1327 79.4312 57.1327 79.1573C57.1327 78.9291 57.055 78.7426 56.8998 78.5982C56.7442 78.4535 56.4508 78.3506 56.0197 78.2899L55.6383 78.2329C54.9034 78.1262 54.3397 77.885 53.9475 77.5082C53.5552 77.1315 53.3594 76.5971 53.3594 75.9047C53.3594 75.5473 53.4193 75.2221 53.5393 74.929C53.6593 74.6361 53.831 74.3873 54.0536 74.1815C54.2759 73.9761 54.5447 73.8168 54.8593 73.7022C55.1734 73.5882 55.5251 73.5312 55.9138 73.5312C56.3943 73.5312 56.8466 73.6037 57.2706 73.7481C57.6946 73.8928 58.0584 74.0903 58.3624 74.3414C58.4259 74.3873 58.4327 74.4443 58.3833 74.5127L57.737 75.5511C57.6946 75.6122 57.6449 75.6236 57.5885 75.5853C57.3132 75.3877 57.0389 75.2392 56.7672 75.1405C56.4952 75.0417 56.2105 74.992 55.9138 74.992C55.5956 74.992 55.3554 75.0718 55.1931 75.2316C55.0305 75.3912 54.9493 75.5929 54.9493 75.8363C54.9493 76.0573 55.0322 76.2396 55.1984 76.3843C55.3645 76.5287 55.6556 76.6313 56.0729 76.6921L56.4543 76.749C57.2033 76.8557 57.7687 77.0976 58.1504 77.474C58.5318 77.8504 58.7226 78.3924 58.7226 79.1C58.7226 79.4502 58.6627 79.7753 58.5424 80.0757C58.4221 80.3765 58.2439 80.6351 58.0072 80.8517C57.7702 81.0685 57.4755 81.2382 57.1221 81.3598C56.7686 81.4814 56.359 81.5422 55.8926 81.5422Z" fill="white"/>
<path d="M59.8715 81.4083C59.8009 81.4083 59.7656 81.3703 59.7656 81.2943V73.7624C59.7656 73.6864 59.8009 73.6484 59.8715 73.6484H62.6697C63.0585 73.6484 63.4081 73.7092 63.7192 73.8308C64.03 73.9527 64.295 74.124 64.514 74.3446C64.7331 74.565 64.8993 74.8277 65.0122 75.132C65.1251 75.4362 65.1818 75.7746 65.1818 76.1476C65.1818 76.5129 65.1236 76.8475 65.0069 77.1518C64.8904 77.4563 64.7243 77.7185 64.5087 77.9391C64.2932 78.1598 64.03 78.3311 63.7192 78.4526C63.4081 78.5745 63.0585 78.6353 62.6697 78.6353H61.3873C61.345 78.6353 61.3235 78.6581 61.3235 78.7037V81.2943C61.3235 81.3703 61.2882 81.4083 61.2177 81.4083H59.8715ZM62.5744 77.186C62.9064 77.186 63.1643 77.0929 63.3481 76.9064C63.5319 76.72 63.6236 76.467 63.6236 76.1476C63.6236 75.8278 63.5319 75.5733 63.3481 75.3827C63.1643 75.1931 62.9064 75.0975 62.5744 75.0975H61.3873C61.345 75.0975 61.3235 75.1206 61.3235 75.1662V77.1176C61.3235 77.1635 61.345 77.186 61.3873 77.186H62.5744Z" fill="white"/>
<path d="M68.8225 81.5422C68.1935 81.5422 67.6439 81.3864 67.1743 81.0742C66.7041 80.7624 66.3771 80.2907 66.1936 79.6594C66.1513 79.5227 66.1175 79.3894 66.093 79.2599C66.0681 79.1307 66.0486 78.986 66.0348 78.8262C66.0204 78.6666 66.0098 78.4839 66.0028 78.2785C65.9957 78.073 65.9922 77.8261 65.9922 77.5367C65.9922 77.2477 65.9957 77.0004 66.0028 76.7949C66.0098 76.5898 66.0204 76.4068 66.0348 76.2469C66.0486 76.0874 66.0681 75.943 66.093 75.8138C66.1175 75.6844 66.1513 75.5511 66.1936 75.414C66.3771 74.7903 66.7041 74.3208 67.1743 74.0049C67.6439 73.6892 68.1935 73.5312 68.8225 73.5312C69.4512 73.5312 70.0008 73.6892 70.4707 74.0049C70.9406 74.3208 71.2673 74.7903 71.451 75.414C71.4934 75.5511 71.5272 75.6844 71.5519 75.8138C71.5766 75.943 71.596 76.0874 71.6101 76.2469C71.6239 76.4068 71.6348 76.5898 71.6419 76.7949C71.6489 77.0004 71.6525 77.2477 71.6525 77.5367C71.6525 77.8261 71.6489 78.073 71.6419 78.2785C71.6348 78.4839 71.6239 78.6666 71.6101 78.8262C71.596 78.986 71.5766 79.1307 71.5519 79.2599C71.5272 79.3894 71.4934 79.5227 71.451 79.6594C71.2673 80.2907 70.9406 80.7624 70.4707 81.0742C70.0008 81.3864 69.4512 81.5422 68.8225 81.5422ZM68.8225 80.0586C69.1192 80.0586 69.3632 79.9827 69.5538 79.8304C69.7446 79.6784 69.8787 79.4692 69.9566 79.2029C69.9775 79.1342 69.9955 79.0563 70.0096 78.9689C70.0234 78.8816 70.0357 78.7749 70.0466 78.6495C70.0572 78.5238 70.0643 78.37 70.0678 78.187C70.0713 78.0046 70.0731 77.7878 70.0731 77.5367C70.0731 77.2857 70.0713 77.0688 70.0678 76.8864C70.0643 76.7034 70.0572 76.5496 70.0466 76.4239C70.0357 76.2985 70.0234 76.1918 70.0096 76.1045C69.9955 76.0171 69.9775 75.9392 69.9566 75.8708C69.8787 75.6046 69.7446 75.3953 69.5538 75.243C69.3632 75.0908 69.1192 75.0148 68.8225 75.0148C68.5255 75.0148 68.282 75.0908 68.0912 75.243C67.9003 75.3953 67.7659 75.6046 67.6883 75.8708C67.6671 75.9392 67.6492 76.0171 67.6354 76.1045C67.6213 76.1918 67.6086 76.2985 67.598 76.4239C67.5874 76.5496 67.5804 76.7034 67.5771 76.8864C67.5733 77.0688 67.5719 77.2857 67.5719 77.5367C67.5719 77.7878 67.5733 78.0046 67.5771 78.187C67.5804 78.37 67.5874 78.5238 67.598 78.6495C67.6086 78.7749 67.6213 78.8816 67.6354 78.9689C67.6492 79.0563 67.6671 79.1342 67.6883 79.2029C67.7659 79.4692 67.9003 79.6784 68.0912 79.8304C68.282 79.9827 68.5255 80.0586 68.8225 80.0586Z" fill="white"/>
<path d="M76.821 81.4083C76.7434 81.4083 76.6904 81.3703 76.6622 81.2943L75.4222 78.4526H74.4574C74.415 78.4526 74.3938 78.4754 74.3938 78.521V81.2943C74.3938 81.3703 74.3583 81.4083 74.288 81.4083H72.9418C72.8709 81.4083 72.8359 81.3703 72.8359 81.2943V73.7624C72.8359 73.6864 72.8709 73.6484 72.9418 73.6484H75.8141C76.1814 73.6484 76.5155 73.7073 76.816 73.8251C77.1162 73.9432 77.3741 74.1088 77.5896 74.3215C77.8049 74.5349 77.971 74.7897 78.0878 75.0864C78.2045 75.3827 78.2627 75.7063 78.2627 76.0564C78.2627 76.5582 78.1495 76.9957 77.9237 77.3686C77.6973 77.7416 77.3829 78.023 76.9801 78.213L78.4006 81.2715C78.4145 81.3095 78.4145 81.3418 78.4006 81.3684C78.3859 81.3953 78.3615 81.4083 78.3263 81.4083H76.821ZM75.7294 77.0261C76.0261 77.0261 76.2629 76.9387 76.4396 76.7637C76.616 76.5889 76.7045 76.353 76.7045 76.0564C76.7045 75.767 76.616 75.5353 76.4396 75.3602C76.2629 75.1851 76.0261 75.0975 75.7294 75.0975H74.4574C74.415 75.0975 74.3938 75.1206 74.3938 75.1662V76.9577C74.3938 77.0036 74.415 77.0261 74.4574 77.0261H75.7294Z" fill="white"/>
<path d="M81.013 81.4125C80.9422 81.4125 80.9069 81.3745 80.9069 81.2986V75.216C80.9069 75.1704 80.886 75.1476 80.8434 75.1476H79.0202C78.9496 75.1476 78.9141 75.1099 78.9141 75.0342V73.7771C78.9141 73.7017 78.9496 73.6641 79.0202 73.6641H84.3517C84.4223 73.6641 84.4579 73.7017 84.4579 73.7771V75.0342C84.4579 75.1099 84.4223 75.1476 84.3517 75.1476H82.5286C82.4863 75.1476 82.4651 75.1704 82.4651 75.216V81.2986C82.4651 81.3745 82.4298 81.4125 82.3589 81.4125H81.013Z" fill="white"/>
<path d="M87.7598 81.5422C87.477 81.5422 87.1997 81.5137 86.9279 81.4567C86.6554 81.3994 86.3995 81.3237 86.1593 81.2284C85.919 81.1334 85.6982 81.0214 85.4968 80.8916C85.2954 80.7624 85.1242 80.6253 84.9828 80.481C84.926 80.4202 84.9228 80.3556 84.9722 80.2869L85.7776 79.2941C85.8199 79.2333 85.8729 79.2295 85.9364 79.2827C86.1766 79.4881 86.4563 79.6727 86.7742 79.8361C87.092 79.9997 87.442 80.0817 87.8233 80.0817C88.2047 80.0817 88.4964 79.996 88.6979 79.8247C88.8993 79.6537 88.9999 79.4312 88.9999 79.1573C88.9999 78.9291 88.9219 78.7426 88.7667 78.5982C88.6114 78.4535 88.318 78.3506 87.8869 78.2899L87.5055 78.2329C86.7703 78.1262 86.2069 77.885 85.8147 77.5082C85.4224 77.1315 85.2265 76.5971 85.2265 75.9047C85.2265 75.5473 85.2865 75.2221 85.4065 74.929C85.5268 74.6361 85.6982 74.3873 85.9208 74.1815C86.1431 73.9761 86.4119 73.8168 86.7265 73.7022C87.0406 73.5882 87.3923 73.5312 87.781 73.5312C88.2615 73.5312 88.7137 73.6037 89.1378 73.7481C89.5618 73.8928 89.9256 74.0903 90.2296 74.3414C90.2931 74.3873 90.2999 74.4443 90.2505 74.5127L89.6042 75.5511C89.5618 75.6122 89.5121 75.6236 89.4557 75.5853C89.1801 75.3877 88.9061 75.2392 88.6344 75.1405C88.3624 75.0417 88.0777 74.992 87.781 74.992C87.4628 74.992 87.2226 75.0718 87.0603 75.2316C86.8977 75.3912 86.8165 75.5929 86.8165 75.8363C86.8165 76.0573 86.8994 76.2396 87.0653 76.3843C87.2314 76.5287 87.5228 76.6313 87.9398 76.6921L88.3215 76.749C89.0704 76.8557 89.6359 77.0976 90.0176 77.474C90.399 77.8504 90.5898 78.3924 90.5898 79.1C90.5898 79.4502 90.5298 79.7753 90.4096 80.0757C90.2893 80.3765 90.1111 80.6351 89.8744 80.8517C89.6374 81.0685 89.3427 81.2382 88.9893 81.3598C88.6358 81.4814 88.2262 81.5422 87.7598 81.5422Z" fill="white"/>
<path d="M96.0813 73.7624C96.1024 73.6867 96.1483 73.6484 96.2192 73.6484H97.5548C97.6254 73.6484 97.6712 73.6867 97.6924 73.7624L100.13 81.2943C100.152 81.3703 100.127 81.4083 100.056 81.4083H98.6781C98.6075 81.4083 98.5616 81.3703 98.5405 81.2943L98.127 79.9365H95.6046L95.2017 81.2943C95.1803 81.3703 95.1344 81.4083 95.0638 81.4083H93.6753C93.6047 81.4083 93.5797 81.3703 93.6012 81.2943L96.0813 73.7624ZM97.703 78.5099L96.887 75.7939H96.8552L96.0389 78.5099H97.703Z" fill="white"/>
<path d="M100.969 73.7624C100.969 73.6867 101.004 73.6484 101.075 73.6484H102.347C102.424 73.6484 102.484 73.6867 102.527 73.7624L105.071 78.6467H105.124V73.7624C105.124 73.6867 105.159 73.6484 105.23 73.6484H106.427C106.498 73.6484 106.533 73.6867 106.533 73.7624V81.2943C106.533 81.3703 106.498 81.4083 106.427 81.4083H105.166C105.088 81.4083 105.028 81.3703 104.986 81.2943L102.431 76.4214H102.378V81.2943C102.378 81.3703 102.343 81.4083 102.272 81.4083H101.075C101.004 81.4083 100.969 81.3703 100.969 81.2943V73.7624Z" fill="white"/>
<path d="M107.914 73.7777C107.914 73.7021 107.949 73.6641 108.02 73.6641H110.702C111.338 73.6641 111.868 73.8084 112.292 74.0972C112.715 74.3859 113.016 74.8228 113.193 75.4072C113.221 75.5136 113.247 75.6256 113.272 75.7437C113.297 75.8615 113.318 75.9998 113.336 76.1594C113.353 76.319 113.366 76.5089 113.373 76.7293C113.38 76.9496 113.383 77.219 113.383 77.5381C113.383 77.8576 113.38 78.127 113.373 78.3476C113.366 78.5677 113.353 78.7576 113.336 78.9172C113.318 79.0767 113.297 79.2154 113.272 79.3329C113.247 79.451 113.221 79.563 113.193 79.6688C113.016 80.2541 112.715 80.691 112.292 80.9794C111.868 81.2682 111.338 81.4125 110.702 81.4125H108.02C107.949 81.4125 107.914 81.3745 107.914 81.2986V73.7777ZM109.472 79.8603C109.472 79.9062 109.493 79.929 109.536 79.929H110.352C110.712 79.929 111.002 79.8663 111.221 79.7403C111.44 79.6143 111.595 79.3914 111.687 79.0714C111.709 79.0179 111.726 78.9549 111.74 78.8824C111.754 78.8099 111.767 78.7165 111.777 78.6022C111.788 78.4876 111.795 78.3445 111.799 78.1729C111.802 78.0016 111.804 77.7901 111.804 77.5381C111.804 77.2864 111.802 77.0772 111.799 76.9094C111.795 76.7416 111.788 76.6004 111.777 76.4858C111.767 76.3715 111.754 76.2781 111.74 76.2056C111.726 76.1334 111.709 76.0663 111.687 76.0052C111.595 75.6852 111.44 75.462 111.221 75.3363C111.002 75.2106 110.712 75.1476 110.352 75.1476H109.536C109.493 75.1476 109.472 75.1704 109.472 75.216V79.8603Z" fill="white"/>
<path d="M118.459 81.4083C118.388 81.4083 118.353 81.3703 118.353 81.2943V78.3156L116.222 73.7624C116.194 73.6864 116.218 73.6484 116.296 73.6484H117.675C117.752 73.6484 117.805 73.6864 117.833 73.7624L119.137 76.5927H119.169L120.472 73.7624C120.501 73.6864 120.554 73.6484 120.632 73.6484H121.967C122.002 73.6484 122.027 73.6598 122.041 73.6826C122.055 73.7054 122.055 73.732 122.041 73.7624L119.911 78.3156V81.2943C119.911 81.3703 119.876 81.4083 119.805 81.4083H118.459Z" fill="white"/>
<path d="M125.479 81.5422C124.85 81.5422 124.3 81.3864 123.831 81.0742C123.36 80.7624 123.033 80.2907 122.85 79.6594C122.808 79.5227 122.774 79.3894 122.749 79.2599C122.725 79.1307 122.705 78.986 122.691 78.8262C122.677 78.6666 122.666 78.4839 122.659 78.2785C122.652 78.073 122.648 77.8261 122.648 77.5367C122.648 77.2477 122.652 77.0004 122.659 76.7949C122.666 76.5898 122.677 76.4068 122.691 76.2469C122.705 76.0874 122.725 75.943 122.749 75.8138C122.774 75.6844 122.808 75.5511 122.85 75.414C123.033 74.7903 123.36 74.3208 123.831 74.0049C124.3 73.6892 124.85 73.5312 125.479 73.5312C126.107 73.5312 126.657 73.6892 127.127 74.0049C127.597 74.3208 127.924 74.7903 128.107 75.414C128.15 75.5511 128.183 75.6844 128.208 75.8138C128.233 75.943 128.252 76.0874 128.266 76.2469C128.28 76.4068 128.291 76.5898 128.298 76.7949C128.305 77.0004 128.309 77.2477 128.309 77.5367C128.309 77.8261 128.305 78.073 128.298 78.2785C128.291 78.4839 128.28 78.6666 128.266 78.8262C128.252 78.986 128.233 79.1307 128.208 79.2599C128.183 79.3894 128.15 79.5227 128.107 79.6594C127.924 80.2907 127.597 80.7624 127.127 81.0742C126.657 81.3864 126.107 81.5422 125.479 81.5422ZM125.479 80.0586C125.775 80.0586 126.019 79.9827 126.21 79.8304C126.401 79.6784 126.535 79.4692 126.613 79.2029C126.634 79.1342 126.652 79.0563 126.666 78.9689C126.68 78.8816 126.692 78.7749 126.703 78.6495C126.713 78.5238 126.721 78.37 126.724 78.187C126.728 78.0046 126.729 77.7878 126.729 77.5367C126.729 77.2857 126.728 77.0688 126.724 76.8864C126.721 76.7034 126.713 76.5496 126.703 76.4239C126.692 76.2985 126.68 76.1918 126.666 76.1045C126.652 76.0171 126.634 75.9392 126.613 75.8708C126.535 75.6046 126.401 75.3953 126.21 75.243C126.019 75.0908 125.775 75.0148 125.479 75.0148C125.182 75.0148 124.938 75.0908 124.747 75.243C124.557 75.3953 124.422 75.6046 124.345 75.8708C124.323 75.9392 124.305 76.0171 124.292 76.1045C124.278 76.1918 124.265 76.2985 124.254 76.4239C124.244 76.5496 124.237 76.7034 124.233 76.8864C124.23 77.0688 124.228 77.2857 124.228 77.5367C124.228 77.7878 124.23 78.0046 124.233 78.187C124.237 78.37 124.244 78.5238 124.254 78.6495C124.265 78.7749 124.278 78.8816 124.292 78.9689C124.305 79.0563 124.323 79.1342 124.345 79.2029C124.422 79.4692 124.557 79.6784 124.747 79.8304C124.938 79.9827 125.182 80.0586 125.479 80.0586Z" fill="white"/>
<path d="M132.235 81.534C131.832 81.534 131.462 81.4694 131.123 81.3402C130.783 81.2107 130.492 81.0205 130.248 80.7694C130.004 80.5184 129.813 80.2065 129.675 79.8336C129.538 79.461 129.469 79.0348 129.469 78.5555V73.7627C129.469 73.6867 129.504 73.6484 129.575 73.6484H130.921C130.992 73.6484 131.027 73.6867 131.027 73.7627V78.6011C131.027 79.0652 131.137 79.423 131.356 79.6737C131.574 79.9251 131.868 80.0505 132.235 80.0505C132.596 80.0505 132.885 79.9251 133.104 79.6737C133.324 79.423 133.433 79.0652 133.433 78.6011V73.7627C133.433 73.6867 133.468 73.6484 133.539 73.6484H134.885C134.956 73.6484 134.991 73.6867 134.991 73.7627V78.5555C134.991 79.0348 134.923 79.461 134.785 79.8336C134.647 80.2065 134.456 80.5184 134.212 80.7694C133.968 81.0205 133.678 81.2107 133.343 81.3402C133.007 81.4694 132.638 81.534 132.235 81.534Z" fill="white"/>
<path d="M137.919 81.4125C137.848 81.4125 137.813 81.3745 137.813 81.2986V75.216C137.813 75.1704 137.792 75.1476 137.75 75.1476H135.927C135.856 75.1476 135.82 75.1099 135.82 75.0342V73.7771C135.82 73.7017 135.856 73.6641 135.927 73.6641H141.258C141.329 73.6641 141.364 73.7017 141.364 73.7771V75.0342C141.364 75.1099 141.329 75.1476 141.258 75.1476H139.435C139.393 75.1476 139.371 75.1704 139.371 75.216V81.2986C139.371 81.3745 139.336 81.4125 139.265 81.4125H137.919Z" fill="white"/>
<path d="M142.234 73.7624C142.234 73.6867 142.27 73.6484 142.34 73.6484H143.686C143.757 73.6484 143.792 73.6867 143.792 73.7627V76.6839C143.792 76.7298 143.813 76.7523 143.856 76.7523H146.209C146.251 76.7523 146.273 76.7298 146.273 76.6839V73.7627C146.273 73.6867 146.308 73.6484 146.379 73.6484H147.725C147.795 73.6484 147.831 73.6867 147.831 73.7624V81.2943C147.831 81.3703 147.795 81.4083 147.725 81.4083H146.379C146.308 81.4083 146.273 81.3703 146.273 81.2943V78.3045C146.273 78.2586 146.251 78.2358 146.209 78.2358H143.856C143.813 78.2358 143.792 78.2586 143.792 78.3045V81.2943C143.792 81.3703 143.757 81.4083 143.686 81.4083H142.34C142.27 81.4083 142.234 81.3703 142.234 81.2943V73.7624Z" fill="white"/>
<g clip-path="url(#clip0_0_1)">
<path d="M234.975 26.7852L234.982 26.7889L221.32 52.6273H240.079V26.7852H234.975Z" fill="#24A6B3"/>
<path d="M192.078 26.7852H174.104V45.6884L192.078 45.628V26.7852Z" fill="#24A6B3"/>
<path d="M204.461 52.6289L204.432 75.6202L186.952 62.3641L181.242 73.1623L204.089 85.2414L221.333 52.6289H204.461Z" fill="#E94D4D"/>
<path d="M234.974 26.7852H214.109V52.6273H221.319L234.981 26.7889L234.974 26.7852Z" fill="#82D1DB"/>
<path d="M192.102 52.6289H174.117L186.954 62.3641L192.102 52.6289Z" fill="#4E51A2"/>
<path d="M165 45.7181L174.107 52.6245V45.6875L165 45.7181Z" fill="#4E51A2"/>
<path d="M192.078 26.7852V52.6273H192.091L195.799 45.6155L205.755 26.7852H192.078Z" fill="#FBCC25"/>
<path d="M204.453 52.6289H192.092L186.944 62.3641L204.425 75.6201L204.453 52.6289Z" fill="#141241"/>
<path d="M205.766 26.7852L195.809 45.6155L192.102 52.6273H214.126V26.7852H205.766Z" fill="#F7A442"/>
<path d="M209.268 20.1597L203.105 11.7503L192.087 26.7861L205.764 26.7862L209.268 20.1597Z" fill="#FBCC25"/>
<path d="M212.142 14.7148L209.262 20.1635L205.758 26.7899H234.982L212.142 14.7148Z" fill="#EC4D4B"/>
<path d="M195.359 0L203.098 9.75538L210.835 0H195.359Z" fill="#FBCC25"/>
<path d="M192.078 52.6284H174.106L174.104 45.6896L192.078 45.6289V52.6284Z" fill="#82D1DB"/>
</g>
<g clip-path="url(#clip1_0_1)">
<path d="M234.975 26.7852L234.982 26.7889L221.32 52.6273H240.079V26.7852H234.975Z" fill="#24A6B3"/>
<path d="M192.078 26.7852H174.104V45.6884L192.078 45.628V26.7852Z" fill="#24A6B3"/>
<path d="M204.461 52.6289L204.432 75.6202L186.952 62.3641L181.242 73.1623L204.089 85.2414L221.333 52.6289H204.461Z" fill="#E94D4D"/>
<path d="M234.974 26.7852H214.109V52.6273H221.319L234.981 26.7889L234.974 26.7852Z" fill="#82D1DB"/>
<path d="M192.102 52.6289H174.117L186.954 62.3641L192.102 52.6289Z" fill="#4E51A2"/>
<path d="M165 45.7181L174.107 52.6245V45.6875L165 45.7181Z" fill="#4E51A2"/>
<path d="M192.078 26.7852V52.6273H192.091L195.799 45.6155L205.755 26.7852H192.078Z" fill="#FBCC25"/>
<path d="M204.453 52.6289H192.092L186.944 62.3641L204.425 75.6201L204.453 52.6289Z" fill="#141241"/>
<path d="M205.766 26.7852L195.809 45.6155L192.102 52.6273H214.126V26.7852H205.766Z" fill="#F7A442"/>
<path d="M209.268 20.1597L203.105 11.7503L192.087 26.7861L205.764 26.7862L209.268 20.1597Z" fill="#FBCC25"/>
<path d="M212.142 14.7148L209.262 20.1635L205.758 26.7899H234.982L212.142 14.7148Z" fill="#EC4D4B"/>
<path d="M195.359 0L203.098 9.75538L210.835 0H195.359Z" fill="#FBCC25"/>
<path d="M192.078 52.6284H174.106L174.104 45.6896L192.078 45.6289V52.6284Z" fill="#82D1DB"/>
</g>
<g clip-path="url(#clip2_0_1)">
<path d="M234.975 26.7852L234.982 26.7889L221.32 52.6273H240.079V26.7852H234.975Z" fill="#24A6B3"/>
<path d="M192.078 26.7852H174.104V45.6884L192.078 45.628V26.7852Z" fill="#24A6B3"/>
<path d="M204.461 52.6289L204.432 75.6202L186.952 62.3641L181.242 73.1623L204.089 85.2414L221.333 52.6289H204.461Z" fill="#E94D4D"/>
<path d="M234.974 26.7852H214.109V52.6273H221.319L234.981 26.7889L234.974 26.7852Z" fill="#82D1DB"/>
<path d="M192.102 52.6289H174.117L186.954 62.3641L192.102 52.6289Z" fill="#4E51A2"/>
<path d="M165 45.7181L174.107 52.6245V45.6875L165 45.7181Z" fill="#4E51A2"/>
<path d="M192.078 26.7852V52.6273H192.091L195.799 45.6155L205.755 26.7852H192.078Z" fill="#FBCC25"/>
<path d="M204.453 52.6289H192.092L186.944 62.3641L204.425 75.6201L204.453 52.6289Z" fill="#141241"/>
<path d="M205.766 26.7852L195.809 45.6155L192.102 52.6273H214.126V26.7852H205.766Z" fill="#F7A442"/>
<path d="M209.268 20.1597L203.105 11.7503L192.087 26.7861L205.764 26.7862L209.268 20.1597Z" fill="#FBCC25"/>
<path d="M212.142 14.7148L209.262 20.1635L205.758 26.7899H234.982L212.142 14.7148Z" fill="#EC4D4B"/>
<path d="M195.359 0L203.098 9.75538L210.835 0H195.359Z" fill="#FBCC25"/>
<path d="M192.078 52.6284H174.106L174.104 45.6896L192.078 45.6289V52.6284Z" fill="#82D1DB"/>
</g>
<g clip-path="url(#clip3_0_1)">
<path d="M234.975 26.7852L234.982 26.7889L221.32 52.6273H240.079V26.7852H234.975Z" fill="#24A6B3"/>
<path d="M192.078 26.7852H174.104V45.6884L192.078 45.628V26.7852Z" fill="#24A6B3"/>
<path d="M204.461 52.6289L204.432 75.6202L186.952 62.3641L181.242 73.1623L204.089 85.2414L221.333 52.6289H204.461Z" fill="#E94D4D"/>
<path d="M234.974 26.7852H214.109V52.6273H221.319L234.981 26.7889L234.974 26.7852Z" fill="#82D1DB"/>
<path d="M192.102 52.6289H174.117L186.954 62.3641L192.102 52.6289Z" fill="#4E51A2"/>
<path d="M165 45.7181L174.107 52.6245V45.6875L165 45.7181Z" fill="#4E51A2"/>
<path d="M192.078 26.7852V52.6273H192.091L195.799 45.6155L205.755 26.7852H192.078Z" fill="#FBCC25"/>
<path d="M204.453 52.6289H192.092L186.944 62.3641L204.425 75.6201L204.453 52.6289Z" fill="#141241"/>
<path d="M205.766 26.7852L195.809 45.6155L192.102 52.6273H214.126V26.7852H205.766Z" fill="#F7A442"/>
<path d="M209.268 20.1597L203.105 11.7503L192.087 26.7861L205.764 26.7862L209.268 20.1597Z" fill="#FBCC25"/>
<path d="M212.142 14.7148L209.262 20.1635L205.758 26.7899H234.982L212.142 14.7148Z" fill="#EC4D4B"/>
<path d="M195.359 0L203.098 9.75538L210.835 0H195.359Z" fill="#FBCC25"/>
<path d="M192.078 52.6284H174.106L174.104 45.6896L192.078 45.6289V52.6284Z" fill="#82D1DB"/>
</g>
<g clip-path="url(#clip4_0_1)">
<path d="M234.975 26.7852L234.982 26.7889L221.32 52.6273H240.079V26.7852H234.975Z" fill="#24A6B3"/>
<path d="M192.078 26.7852H174.104V45.6884L192.078 45.628V26.7852Z" fill="#24A6B3"/>
<path d="M204.461 52.6289L204.432 75.6202L186.952 62.3641L181.242 73.1623L204.089 85.2414L221.333 52.6289H204.461Z" fill="#E94D4D"/>
<path d="M234.974 26.7852H214.109V52.6273H221.319L234.981 26.7889L234.974 26.7852Z" fill="#82D1DB"/>
<path d="M192.102 52.6289H174.117L186.954 62.3641L192.102 52.6289Z" fill="#4E51A2"/>
<path d="M165 45.7181L174.107 52.6245V45.6875L165 45.7181Z" fill="#4E51A2"/>
<path d="M192.078 26.7852V52.6273H192.091L195.799 45.6155L205.755 26.7852H192.078Z" fill="#FBCC25"/>
<path d="M204.453 52.6289H192.092L186.944 62.3641L204.425 75.6201L204.453 52.6289Z" fill="#141241"/>
<path d="M205.766 26.7852L195.809 45.6155L192.102 52.6273H214.126V26.7852H205.766Z" fill="#F7A442"/>
<path d="M209.268 20.1597L203.105 11.7503L192.087 26.7861L205.764 26.7862L209.268 20.1597Z" fill="#FBCC25"/>
<path d="M212.142 14.7148L209.262 20.1635L205.758 26.7899H234.982L212.142 14.7148Z" fill="#EC4D4B"/>
<path d="M195.359 0L203.098 9.75538L210.835 0H195.359Z" fill="#FBCC25"/>
<path d="M192.078 52.6284H174.106L174.104 45.6896L192.078 45.6289V52.6284Z" fill="#82D1DB"/>
</g>
<g clip-path="url(#clip5_0_1)">
<path d="M234.975 26.7852L234.982 26.7889L221.32 52.6273H240.079V26.7852H234.975Z" fill="#24A6B3"/>
<path d="M192.078 26.7852H174.104V45.6884L192.078 45.628V26.7852Z" fill="#24A6B3"/>
<path d="M204.461 52.6289L204.432 75.6202L186.952 62.3641L181.242 73.1623L204.089 85.2414L221.333 52.6289H204.461Z" fill="#E94D4D"/>
<path d="M234.974 26.7852H214.109V52.6273H221.319L234.981 26.7889L234.974 26.7852Z" fill="#82D1DB"/>
<path d="M192.094 52.6289H174.109L186.946 62.3641L192.094 52.6289Z" fill="#4E51A2"/>
<path d="M165 45.7181L174.107 52.6245V45.6875L165 45.7181Z" fill="#4E51A2"/>
<path d="M192.078 26.7852V52.6273H192.091L195.799 45.6155L205.755 26.7852H192.078Z" fill="#FBCC25"/>
<path d="M204.453 52.6289H192.092L186.944 62.3641L204.425 75.6201L204.453 52.6289Z" fill="#141241"/>
<path d="M205.758 26.7852L195.801 45.6155L192.094 52.6273H214.118V26.7852H205.758Z" fill="#F7A442"/>
<path d="M209.268 20.1597L203.105 11.7503L192.087 26.7861L205.764 26.7862L209.268 20.1597Z" fill="#FBCC25"/>
<path d="M212.142 14.7148L209.262 20.1635L205.758 26.7899H234.982L212.142 14.7148Z" fill="#EC4D4B"/>
<path d="M195.359 0L203.098 9.75538L210.835 0H195.359Z" fill="#FBCC25"/>
<path d="M192.078 52.6284H174.106L174.104 45.6896L192.078 45.6289V52.6284Z" fill="#82D1DB"/>
</g>
<defs>
<clipPath id="clip0_0_1">
<rect width="75.1118" height="85.2621" fill="white" transform="translate(165)"/>
</clipPath>
<clipPath id="clip1_0_1">
<rect width="75.1118" height="85.2621" fill="white" transform="translate(165)"/>
</clipPath>
<clipPath id="clip2_0_1">
<rect width="75.1118" height="85.2621" fill="white" transform="translate(165)"/>
</clipPath>
<clipPath id="clip3_0_1">
<rect width="75.1118" height="85.2621" fill="white" transform="translate(165)"/>
</clipPath>
<clipPath id="clip4_0_1">
<rect width="75.1118" height="85.2621" fill="white" transform="translate(165)"/>
</clipPath>
<clipPath id="clip5_0_1">
<rect width="75.1118" height="85.2621" fill="white" transform="translate(165)"/>
</clipPath>
</defs>
</svg>
