<svg width="34" height="37" viewBox="0 0 34 37" fill="none" xmlns="http://www.w3.org/2000/svg">
<path fill-rule="evenodd" clip-rule="evenodd" d="M8.23621 21.2052L3.24002 18.7032C3.17349 18.6701 3.13147 18.6019 3.13147 18.5272C3.13147 18.453 3.17349 18.3848 3.23952 18.3513L8.25372 15.8362L5.78163 11.4699C5.74512 11.4052 5.74812 11.325 5.78964 11.2634C5.83065 11.2017 5.90369 11.1686 5.97722 11.1777L13.424 12.1331L16.771 5.42624C16.804 5.35957 16.872 5.31746 16.9465 5.31746C17.0206 5.31746 17.0886 5.35957 17.1221 5.42624L20.5016 12.2008L28.0134 11.3656C28.0874 11.3576 28.1595 11.3917 28.2 11.4544C28.2405 11.517 28.242 11.5967 28.204 11.6609L25.6554 15.9911L30.8081 18.5718C30.8747 18.6049 30.9167 18.6731 30.9167 18.7478C30.9167 18.822 30.8747 18.8902 30.8081 18.9237L25.5653 21.5531L28.0394 25.974C28.0754 26.0387 28.0724 26.1189 28.0304 26.1806C27.9889 26.2422 27.9159 26.2748 27.8423 26.2653L20.365 25.2692L16.8465 31.9656C16.812 32.0317 16.7435 32.0724 16.6689 32.0708C16.5944 32.0693 16.5274 32.0257 16.4958 31.9581L13.2609 25.1198L5.77313 25.7901C5.6991 25.7966 5.62757 25.7605 5.58855 25.6973C5.54953 25.6342 5.54953 25.5539 5.58905 25.4903L8.23621 21.2052ZM14.3299 24.5378L16.7209 29.5919L19.3356 24.6175L17.6989 21.4438C17.4593 21.5115 17.2067 21.5471 16.946 21.5471C16.854 21.5471 16.7625 21.5425 16.6754 21.534C16.4873 21.5215 16.3013 21.4904 16.1227 21.4388L14.3299 24.5378ZM9.41523 21.6082C9.30618 21.7852 7.69347 24.3954 7.69347 24.3954L13.2559 23.8976L15.0297 20.7851C15.0007 20.757 14.9727 20.7279 14.9472 20.7004C14.6 20.3429 14.3474 19.8933 14.2293 19.3915L10.6548 19.6025L10.3391 20.1128L9.42173 21.5987C9.41973 21.6022 9.41773 21.6052 9.41523 21.6082ZM23.3574 15.0963C23.3428 14.972 23.3529 14.8387 23.4794 14.9018C23.4829 14.9033 23.4859 14.9063 23.4879 14.9103L23.4889 14.9063L24.5664 15.4457L26.1236 12.8009L20.5336 13.422L18.7823 16.6448C18.8544 16.708 18.9234 16.7752 18.9884 16.8454C19.034 16.8925 19.077 16.9411 19.1185 16.9907L23.1082 15.0081L23.2978 14.9048C23.2193 14.9479 23.1793 15.0392 23.2018 15.1259C23.2058 15.1424 23.2118 15.1575 23.2193 15.1715L23.3574 15.0963ZM24.7845 16.697C24.6944 16.8739 24.9476 16.9762 24.9601 16.9812C24.9556 16.9702 24.8885 16.8053 24.839 16.7245L24.7845 16.697ZM17.7134 16.0603L19.4611 12.838L16.9465 7.79639L14.4745 12.7487L16.1992 16.0543C16.3253 16.0197 16.4543 15.9931 16.5864 15.9761C16.7034 15.9591 16.8205 15.951 16.938 15.951C17.0136 15.951 17.0891 15.9545 17.1651 15.9616C17.3537 15.9761 17.5368 16.0097 17.7134 16.0603ZM20.4211 24.048L25.9835 24.789L24.3863 21.9351L23.2323 19.8737L19.6622 19.5218C19.5867 19.7915 19.4556 20.0517 19.2666 20.3028C19.1285 20.5094 18.9639 20.6963 18.7778 20.8593L20.4211 24.048ZM10.089 18.6129C10.0955 18.5147 10.0945 18.4169 10.0615 18.4179C10.2341 18.4074 14.2148 18.1723 14.2148 18.1723C14.2283 18.1096 14.2434 18.0475 14.2604 17.9878L10.6578 16.0177L10.6338 16.0042L9.02106 16.8133C9.01805 16.8153 9.01455 16.8168 9.01105 16.8183L5.60506 18.5267L8.87849 20.1655L9.90044 18.5107C9.86293 18.5713 9.86093 18.648 9.89594 18.7102C9.91245 18.7398 9.93596 18.7643 9.96397 18.7819C9.90995 18.7483 9.87343 18.6886 9.87143 18.6205C9.86843 18.5262 9.93196 18.4455 10.0195 18.4235C9.90545 18.455 9.95697 18.6049 10.009 18.7087L10.067 18.6144L10.089 18.6129ZM13.3244 13.3483L7.84454 12.645L9.3412 15.2908L10.5652 14.6767C10.6228 14.6482 10.6908 14.6492 10.7468 14.6797L14.8416 16.9085C14.8931 16.8514 14.9467 16.7967 15.0012 16.7456C15.0372 16.7105 15.0737 16.6764 15.1112 16.6438L13.3244 13.3483ZM23.8786 18.7458C23.8886 18.7894 23.8856 18.8691 23.8796 18.9423L23.9176 19.01L24.0327 18.8135L24.9706 20.4898L28.4431 18.7483L24.885 16.9667C24.881 16.9652 24.8765 16.9632 24.8725 16.9612L23.8411 16.4443L23.4119 16.2293L19.6937 18.256C19.6962 18.2716 19.6987 18.2866 19.7013 18.3021L23.8801 18.7137L23.8786 18.7458ZM23.8786 18.7458C23.8736 18.7252 23.8661 18.7127 23.8541 18.7127C23.734 18.7172 23.73 18.8069 23.7585 18.8997L23.8611 18.9097L23.8701 18.9248L23.8786 18.7458ZM7.23277 6.81785C6.98316 6.81785 6.75806 6.79228 6.56298 6.73965L6.05876 6.60129L6.31187 6.1426C7.50689 3.97498 13.5005 0.463367 15.8436 0.957148L16.2802 1.05039L16.1512 1.479C15.4264 3.89176 9.91945 6.81785 7.23277 6.81785ZM26.5493 6.81785C23.8631 6.81785 18.3567 3.89176 17.6308 1.4795L17.5018 1.05039L17.9385 0.957148C20.2815 0.463869 26.2756 3.97498 27.4707 6.1426L27.7233 6.60129L27.2191 6.73965C27.024 6.79228 26.7989 6.81785 26.5493 6.81785ZM0.157161 18.1096L0.0626202 17.5938C-0.387077 15.1585 2.01598 8.62754 4.14241 7.52318L4.54009 7.31765L4.71166 7.73072C5.76813 10.2733 2.80232 16.9211 0.634371 17.8951L0.157161 18.1096ZM33.5914 18.1096L33.1141 17.8951C30.9462 16.9206 27.9799 10.2728 29.0364 7.73072L29.2094 7.31765L29.6061 7.52318C31.7325 8.62754 34.1361 15.1585 33.6859 17.5938L33.5914 18.1096ZM18.4227 36.7695C18.2421 36.7695 18.074 36.754 17.9225 36.7214L17.4848 36.6282L17.6138 36.1996C18.4067 33.5632 24.907 30.3158 27.202 30.9394L27.7063 31.0773L27.4537 31.536C26.3367 33.5632 21.0238 36.7695 18.4227 36.7695ZM15.3253 36.7695C12.7242 36.7695 7.41135 33.5632 6.29436 31.536L6.04175 31.0773L6.54597 30.9394C8.83598 30.3118 15.3403 33.5632 16.1337 36.1996L16.2632 36.6282L15.8255 36.7214C15.674 36.754 15.5059 36.7695 15.3253 36.7695ZM29.2254 30.3604L29.0534 29.9473C27.9974 27.4052 30.9632 20.757 33.1317 19.7835L33.6084 19.5689L33.7029 20.0843C34.1531 22.5191 31.7495 29.05 29.6231 30.1544L29.2254 30.3604ZM4.5561 30.3604L4.15942 30.1544C2.03299 29.05 -0.370571 22.5191 0.079127 20.0843L0.174169 19.5689L0.650878 19.7835C2.81933 20.7575 5.78563 27.4057 4.72867 29.9473L4.5561 30.3604Z" fill="#E46161"/>
</svg>
